<svg version="1.1" id="notifyLockScreen" xmlns="http://www.w3.org/2000/svg" xmlns:xlink="http://www.w3.org/1999/xlink" x="0px" y="0px" width="375px" height="664.69px" viewBox="157 336 752 1332" style="enable-background:new 0 0 1080 1920;" xml:space="preserve">
<style type="text/css">
<![CDATA[
	#notifyLockScreen .st0{fill:#7A4A8A;}
	#notifyLockScreen .st1{fill:#101113;}
	#notifyLockScreen .st2{fill:#E73114;}
	#notifyLockScreen .st3{opacity:0.98;}
	#notifyLockScreen .st4{fill:#1D1D1B;}
	#notifyLockScreen .st5{font-family: 'Arial'; font-size: 34px;}
	#notifyLockScreen .st6{fill:#F08A4D;}
	#notifyLockScreen .st7{fill:#F4A164;}
	#notifyLockScreen .st8{fill:#27345D;}
	#notifyLockScreen .st9{fill:#F6F6F6;}
	#notifyLockScreen .st10{fill:#F8F8F8;}
	#notifyLockScreen .st11{clip-path:url(#SVGID_2_);}
	#notifyLockScreen .st12{clip-path:url(#SVGID_6_);}
	#notifyLockScreen .st13{opacity:0.1;}
	#notifyLockScreen .st14{opacity:0.5;}
	#notifyLockScreen .st15{opacity:0.6;}
	#notifyLockScreen .st16{opacity:0.9;}
	#notifyLockScreen .st17{fill:none;stroke:#000000;stroke-miterlimit:10;}
	#notifyLockScreen .st18{fill:#FFFFFF;}
	#notifyLockScreen .st19{opacity:0.5;fill:#3D4C9A;}
	#notifyLockScreen .st20{fill:#9FA0A0;}
	#notifyLockScreen .st21{opacity:0.8;fill:#7A4A8A;}
	#notifyLockScreen .st22{fill:none;stroke:#FFFFFF;stroke-width:0.25;stroke-miterlimit:10;}
	#notifyLockScreen .st23{fill:#040000;}
	#notifyLockScreen .st24{font-size:24;}
	#notifyLockScreen .st25{font-size:34;}
	#notifyLockScreen .st26{font-size:36;}
	#notifyLockScreen .st27{fill:#070405;}
	#notifyLockScreen .st28{fill:#3D4C9A;}
	#notifyLockScreen .st29{opacity:0.1;fill:#FFFFFF;}
	#notifyLockScreen .st30{fill:none;stroke:#040000;stroke-miterlimit:10;}
	#notifyLockScreen .st31{fill:#FFFFFF;stroke:#000000;stroke-width:3;stroke-miterlimit:10;}
	#notifyLockScreen .st32{fill:none;stroke:#FFFFFF;stroke-width:3;stroke-miterlimit:10;}
]]>
</style>
<g id="Layer_1">
	
		<image style="overflow:visible;" width="1010" height="1920" xlink:href="lockscreen.jpg"  transform="matrix(0.7472 0 0 0.7365 156.9541 283.2075)">
	</image>
	<g>
		<path class="st18" d="M187.9,310.7c0,3.7-3,6.7-6.7,6.7c-3.7,0-6.7-3-6.7-6.7c0-3.7,3-6.7,6.7-6.7
			C184.9,304,187.9,307,187.9,310.7"/>
		<path class="st18" d="M204.9,310.7c0,3.7-3,6.7-6.7,6.7c-3.7,0-6.7-3-6.7-6.7c0-3.7,3-6.7,6.7-6.7
			C201.9,304,204.9,307,204.9,310.7"/>
		<path class="st18" d="M221.9,310.7c0,3.7-3,6.7-6.7,6.7c-3.7,0-6.7-3-6.7-6.7c0-3.7,3-6.7,6.7-6.7
			C218.9,304,221.9,307,221.9,310.7"/>
		<path class="st18" d="M238.9,310.7c0,3.7-3,6.7-6.7,6.7c-3.7,0-6.7-3-6.7-6.7c0-3.7,3-6.7,6.7-6.7
			C235.9,304,238.9,307,238.9,310.7"/>
		<path class="st18" d="M255.9,310.7c0,3.7-3,6.7-6.7,6.7c-3.7,0-6.7-3-6.7-6.7c0-3.7,3-6.7,6.7-6.7
			C252.9,304,255.9,307,255.9,310.7"/>
		<path class="st18" d="M262.5,303.8c2.1-1.9,4.5-3.4,7.1-4.3c2.6-1,5.2-1.4,7.9-1.4c2.7,0,5.3,0.5,7.9,1.4c2.6,1,4.9,2.4,7.1,4.3
			c0.2,0.2,0.3,0.5,0.3,0.8c0,0.3-0.1,0.6-0.3,0.8l-1.6,1.6c-0.2,0.2-0.5,0.3-0.8,0.3c-0.3,0-0.6-0.1-0.8-0.3
			c-1.7-1.5-3.6-2.6-5.6-3.4c-2-0.8-4.1-1.1-6.3-1.1c-2.1,0-4.2,0.4-6.3,1.1c-2.1,0.8-3.9,1.9-5.6,3.4c-0.2,0.2-0.5,0.3-0.8,0.3
			c-0.3,0-0.5-0.1-0.8-0.3l-1.6-1.6c-0.2-0.2-0.3-0.5-0.3-0.8C262.1,304.3,262.2,304,262.5,303.8L262.5,303.8z M267.7,308.9
			c1.4-1.2,2.9-2.1,4.6-2.7c1.7-0.6,3.4-0.9,5.2-0.9c1.8,0,3.5,0.3,5.2,0.9c1.7,0.6,3.2,1.5,4.6,2.7c0.3,0.2,0.4,0.5,0.4,0.8
			c0,0.3-0.1,0.6-0.3,0.8l-1.6,1.6c-0.2,0.2-0.4,0.3-0.7,0.3c-0.3,0-0.5-0.1-0.8-0.3c-1-0.8-2-1.4-3.2-1.8c-1.2-0.4-2.3-0.6-3.5-0.6
			c-1.2,0-2.4,0.2-3.5,0.6c-1.2,0.4-2.2,1-3.2,1.8c-0.2,0.2-0.5,0.3-0.8,0.2c-0.3,0-0.5-0.1-0.7-0.3l-1.6-1.6
			c-0.2-0.2-0.3-0.5-0.3-0.8C267.3,309.4,267.4,309.2,267.7,308.9C267.6,308.9,267.6,308.9,267.7,308.9
			C267.6,308.9,267.6,308.9,267.7,308.9 M275.1,313.3c0.3-0.3,0.7-0.6,1.1-0.7c0.4-0.2,0.8-0.2,1.3-0.2c0.4,0,0.9,0.1,1.3,0.2
			c0.4,0.2,0.8,0.4,1.1,0.7c0.3,0.3,0.6,0.7,0.7,1.1c0.2,0.4,0.3,0.8,0.2,1.3c0,0.4-0.1,0.8-0.2,1.3c-0.2,0.4-0.4,0.8-0.7,1.1
			c-0.3,0.3-0.7,0.6-1.1,0.7c-0.4,0.2-0.8,0.3-1.3,0.3c-0.4,0-0.8-0.1-1.3-0.2c-0.4-0.2-0.8-0.4-1.1-0.8c-0.3-0.3-0.6-0.7-0.7-1.1
			c-0.2-0.4-0.2-0.8-0.2-1.3c0-0.4,0.1-0.9,0.2-1.3C274.5,314,274.8,313.6,275.1,313.3"/>
		<path class="st18" d="M762.8,319.2V306H758v-1.8c0.6,0,1.2,0,1.8-0.1c0.6-0.1,1.1-0.3,1.6-0.5c0.5-0.3,0.9-0.6,1.2-1.1
			c0.3-0.5,0.6-1,0.7-1.7h1.7v18.5H762.8z"/>
		<path class="st18" d="M771.3,308c0-0.7,0.1-1.4,0.3-2.1c0.1-0.7,0.3-1.4,0.6-2c0.3-0.6,0.6-1.2,1.1-1.6c0.5-0.5,1-0.8,1.7-1.1
			c0.7-0.3,1.5-0.4,2.5-0.4c1,0,1.8,0.1,2.5,0.4c0.7,0.3,1.3,0.7,1.7,1.1s0.8,1,1.1,1.6c0.3,0.6,0.5,1.3,0.6,2
			c0.1,0.7,0.2,1.4,0.3,2.1c0,0.7,0.1,1.4,0.1,2.1c0,0.7,0,1.4-0.1,2.1c0,0.7-0.1,1.4-0.3,2.1c-0.1,0.7-0.3,1.4-0.6,2
			c-0.3,0.6-0.6,1.2-1.1,1.6s-1,0.8-1.7,1.1c-0.7,0.3-1.5,0.4-2.5,0.4c-1,0-1.8-0.1-2.5-0.4c-0.7-0.3-1.3-0.6-1.7-1.1
			c-0.5-0.5-0.8-1-1.1-1.6c-0.3-0.6-0.5-1.3-0.6-2c-0.1-0.7-0.2-1.4-0.3-2.1c0-0.7-0.1-1.4-0.1-2.1
			C771.3,309.5,771.3,308.7,771.3,308 M773.7,312.4c0,0.9,0.2,1.7,0.4,2.4s0.6,1.4,1.1,1.9c0.5,0.5,1.3,0.8,2.2,0.8
			c0.9,0,1.7-0.3,2.2-0.8c0.5-0.5,0.9-1.2,1.1-1.9c0.2-0.8,0.4-1.6,0.4-2.4c0-0.9,0.1-1.6,0.1-2.3c0-0.5,0-1,0-1.5
			c0-0.5-0.1-1.1-0.1-1.6c-0.1-0.5-0.2-1.1-0.3-1.6c-0.1-0.5-0.4-1-0.7-1.4c-0.3-0.4-0.6-0.7-1.1-1c-0.4-0.2-1-0.4-1.6-0.4
			c-0.6,0-1.2,0.1-1.6,0.4c-0.4,0.2-0.8,0.6-1.1,1c-0.3,0.4-0.5,0.8-0.7,1.4c-0.1,0.5-0.3,1.1-0.3,1.6c-0.1,0.5-0.1,1.1-0.1,1.6
			c0,0.5,0,1,0,1.5C773.6,310.8,773.7,311.6,773.7,312.4"/>
		<path class="st18" d="M785.8,308c0-0.7,0.1-1.4,0.3-2.1c0.1-0.7,0.3-1.4,0.6-2c0.3-0.6,0.6-1.2,1.1-1.6c0.5-0.5,1-0.8,1.7-1.1
			c0.7-0.3,1.5-0.4,2.5-0.4c1,0,1.8,0.1,2.5,0.4c0.7,0.3,1.3,0.7,1.7,1.1c0.5,0.5,0.8,1,1.1,1.6c0.3,0.6,0.5,1.3,0.6,2
			c0.1,0.7,0.2,1.4,0.3,2.1c0,0.7,0.1,1.4,0.1,2.1c0,0.7,0,1.4-0.1,2.1c0,0.7-0.1,1.4-0.3,2.1c-0.1,0.7-0.3,1.4-0.6,2
			c-0.3,0.6-0.6,1.2-1.1,1.6c-0.5,0.5-1,0.8-1.7,1.1c-0.7,0.3-1.5,0.4-2.5,0.4c-1,0-1.8-0.1-2.5-0.4c-0.7-0.3-1.3-0.6-1.7-1.1
			c-0.5-0.5-0.8-1-1.1-1.6s-0.5-1.3-0.6-2c-0.1-0.7-0.2-1.4-0.3-2.1c0-0.7-0.1-1.4-0.1-2.1C785.8,309.5,785.8,308.7,785.8,308
			 M788.2,312.4c0,0.9,0.2,1.7,0.4,2.4s0.6,1.4,1.1,1.9c0.5,0.5,1.3,0.8,2.2,0.8c0.9,0,1.7-0.3,2.2-0.8c0.5-0.5,0.9-1.2,1.1-1.9
			c0.2-0.8,0.4-1.6,0.4-2.4c0-0.9,0.1-1.6,0.1-2.3c0-0.5,0-1,0-1.5s-0.1-1.1-0.1-1.6c-0.1-0.5-0.2-1.1-0.3-1.6s-0.4-1-0.7-1.4
			c-0.3-0.4-0.6-0.7-1.1-1c-0.4-0.2-1-0.4-1.6-0.4c-0.6,0-1.2,0.1-1.6,0.4c-0.4,0.2-0.8,0.6-1.1,1c-0.3,0.4-0.5,0.8-0.7,1.4
			c-0.1,0.5-0.3,1.1-0.3,1.6c-0.1,0.5-0.1,1.1-0.1,1.6c0,0.5,0,1,0,1.5C788.1,310.8,788.1,311.6,788.2,312.4"/>
		<path class="st18" d="M801.8,304c0.1-0.6,0.4-1.2,0.7-1.7c0.3-0.5,0.8-0.9,1.3-1.2c0.5-0.3,1.2-0.4,2-0.4c0.8,0,1.5,0.1,2,0.4
			c0.5,0.3,1,0.7,1.3,1.1c0.3,0.5,0.5,1,0.7,1.7c0.1,0.6,0.2,1.3,0.2,2c0,0.7-0.1,1.3-0.2,2c-0.1,0.6-0.4,1.2-0.7,1.7
			c-0.3,0.5-0.8,0.9-1.3,1.2c-0.5,0.3-1.2,0.4-1.9,0.4c-0.8,0-1.4-0.1-2-0.4c-0.5-0.3-1-0.6-1.3-1.1c-0.3-0.5-0.6-1-0.7-1.6
			c-0.1-0.6-0.2-1.3-0.2-2C801.6,305.3,801.6,304.6,801.8,304 M803.6,307.2c0,0.4,0.1,0.9,0.3,1.2c0.2,0.4,0.4,0.7,0.7,0.9
			c0.3,0.3,0.7,0.4,1.2,0.4c0.5,0,0.9-0.1,1.2-0.4c0.3-0.2,0.5-0.6,0.7-0.9c0.2-0.4,0.3-0.8,0.3-1.2c0.1-0.5,0.1-0.9,0.1-1.3
			c0-0.4,0-0.8-0.1-1.2c0-0.4-0.1-0.9-0.3-1.2c-0.2-0.4-0.4-0.7-0.7-0.9c-0.3-0.3-0.7-0.4-1.2-0.4c-0.5,0-0.9,0.1-1.2,0.4
			c-0.3,0.3-0.5,0.6-0.7,0.9c-0.2,0.4-0.3,0.8-0.3,1.2c-0.1,0.4-0.1,0.9-0.1,1.3C803.5,306.3,803.6,306.8,803.6,307.2 M820.3,300.4
			l-14,19.4h-2.2l14-19.4H820.3z M814.7,312.3c0.1-0.6,0.4-1.2,0.7-1.7c0.3-0.5,0.8-0.9,1.3-1.2c0.5-0.3,1.2-0.4,2-0.4
			c0.8,0,1.5,0.1,2,0.4c0.5,0.3,1,0.7,1.3,1.1c0.3,0.5,0.5,1,0.7,1.7c0.1,0.6,0.2,1.3,0.2,2c0,0.7-0.1,1.3-0.2,2
			c-0.1,0.6-0.4,1.2-0.7,1.7c-0.3,0.5-0.8,0.9-1.3,1.1c-0.5,0.3-1.2,0.4-1.9,0.4c-0.8,0-1.4-0.1-2-0.4c-0.5-0.3-1-0.6-1.3-1.1
			c-0.3-0.5-0.6-1-0.7-1.6c-0.1-0.6-0.2-1.3-0.2-2C814.5,313.6,814.5,313,814.7,312.3 M816.5,315.5c0,0.4,0.1,0.9,0.3,1.2
			c0.2,0.4,0.4,0.7,0.7,0.9c0.3,0.3,0.7,0.4,1.2,0.4c0.5,0,0.9-0.1,1.2-0.4c0.3-0.2,0.5-0.6,0.7-0.9c0.2-0.4,0.3-0.8,0.3-1.2
			c0.1-0.5,0.1-0.9,0.1-1.3c0-0.4,0-0.8-0.1-1.2c0-0.4-0.1-0.9-0.3-1.2c-0.2-0.4-0.4-0.7-0.7-0.9c-0.3-0.3-0.7-0.4-1.2-0.4
			c-0.5,0-0.9,0.1-1.2,0.4c-0.3,0.3-0.5,0.6-0.7,0.9c-0.2,0.4-0.3,0.8-0.3,1.2c-0.1,0.4-0.1,0.9-0.1,1.3
			C816.4,314.7,816.4,315.1,816.5,315.5"/>
		<rect x="836.9" y="302.6" class="st18" width="47.6" height="17"/>
		<rect x="889.1" y="307.1" class="st18" width="4.5" height="9.1"/>
	</g>
</g>
<g id="Layer_3">
</g>
<g id="Layer_6">
</g>
<g id="Layer_7">
</g>
<g id="Layer_8">
</g>
<g id="Layer_9">
</g>
<g id="Layer_10">
</g>
<g id="Layer_11">
	<g id="unknown_sound_notification">
		<g>
			<g id="Hat">
				<path class="st0" d="M279.4,762.1v-9.7c0,0,0.9-3.3,4.2-3.4c3.4-0.1,3.9,3.3,3.9,4.2c0,0.9,0.7-1.1,3.2-1.1s3.8,2.3,3.9,3.5
					c0.2,1.2-0.7,3.2-0.7,3.2s0.6-0.4,1.4-0.3c0.8,0.1,2.3,1.3,2.5,2.4c0.2,1.2-1,3.1-1,3.1"/>
			</g>
			<circle class="st18" cx="286.5" cy="777" r="17.1"/>
			<g id="earphoneTop">
				<path class="st4" d="M301.3,770.1c0,0-0.5-2.4-2.6-4.7c-2.8-3.1-7-4.7-12.5-4.7c-5.5,0-9.7,1.6-12.2,4.7
					c-1.9,2.3-2.2,4.6-2.2,4.6l-1.5-0.2c0-0.1,0.4-2.7,2.5-5.4c1.3-1.5,2.9-2.8,4.8-3.6c2.4-1.1,5.3-1.6,8.5-1.6
					c3.3,0,6.2,0.5,8.6,1.6c2,0.9,3.7,2.1,5.1,3.6c2.3,2.6,2.9,5.2,2.9,5.3L301.3,770.1z"/>
			</g>
			<g id="moustache">
				<path class="st0" d="M288.8,781.2c0.1,0.2,0.9,2.5,0.8,3.3c-0.1,0.8-0.3,1.8-1.6,1.8s-1.8-1.7-1.8-1.7c0,0.9-0.9,1.7-1.8,1.7
					s-1.7-0.5-1.7-1.4c0-0.9,0.7-4,0.7-4s1-0.9,2.6-0.9C287.6,779.9,288.8,781.2,288.8,781.2z"/>
			</g>
			<g id="mouth">
				<g>
					<path class="st7" d="M279.4,780.9c0,0,4.5,0.1,6.6,0c2.1-0.1,3.3,0.4,4.2,0.4c0.8,0,0.9-0.8,0.9-1.6s-1.4-4.7-4.8-4.8
						c-3.4,0-7.1,3.5-7.1,5.5C279.2,780.7,279.4,780.9,279.4,780.9z"/>
				</g>
				<g>
					<path class="st6" d="M279.4,780.9c0,0,4.5,0.1,6.6,0c2.1-0.1,3.3,0.4,4.2,0.4c0.8,0,0.8-1,0.7-1.8c0-0.5-3-0.8-4.7-0.8
						c-3.4-0.1-5.5,0.9-6.1,1.3C279.8,780.2,279.4,780.9,279.4,780.9z"/>
				</g>
			</g>
			<g id="RightEye">
				<path class="st0" d="M294.9,773.1c-0.1-0.6-0.6-1.1-1.2-1.1c-0.7,0-1.2,0.5-1.2,1.2c0,0.1,0,0.1,0,0.2v0.9h0
					c0,0.7,0.5,1.2,1.2,1.2s1.2-0.5,1.2-1.2L294.9,773.1L294.9,773.1z"/>
			</g>
			<g id="LeftEye">
				<path class="st0" d="M279.1,773.1c-0.1-0.6-0.6-1.1-1.2-1.1c-0.7,0-1.2,0.5-1.2,1.2c0,0.1,0,0.1,0,0.2v0.9h0
					c0,0.7,0.5,1.2,1.2,1.2s1.2-0.5,1.2-1.2L279.1,773.1L279.1,773.1z"/>
			</g>
			<g id="glasses">
				<g class="st3">
					<path class="st4" d="M274.3,767.9h22.9c0,0,0,1.5,0,3s-1.4,6-5.7,6c-5.3,0-5.8-5.8-5.8-5.8s-0.5,5.8-5.8,5.8
						c-4.3,0-5.7-4.8-5.7-5.5C274.3,770.7,274.3,767.9,274.3,767.9z"/>
				</g>
				<g class="st15">
					<path class="st9" d="M276.4,768.4h4.7c0,0,2,1.8,2,2.5c0,0.1-0.2,0.4-0.3,0.4c-0.3,0-1.2,0.2-1.2,0.7c0,1.3,1.8,2.6,1.8,2.9
						c0,0.4-1.3,1-2.1,1.4C281,773.4,276.4,768.4,276.4,768.4z"/>
				</g>
				<g class="st15">
					<path class="st9" d="M287.9,768.5h4.7c0,0,2,1.8,2,2.5c0,0.2-0.2,0.4-0.3,0.4c-0.3,0-1.2,0.2-1.2,0.7c0,1.3,1.8,2.6,1.8,2.9
						c0,0.4-1.3,1-2.1,1.4C292.5,773.5,287.9,768.5,287.9,768.5z"/>
				</g>
			</g>
			<g id="headphoneL">
				<g>
					<path class="st4" d="M271.5,786.1c0,0.2-0.2,0.5-0.5,0.5h-0.5c-0.3,0-0.5-0.2-0.5-0.5v-16.7c0-0.2,0.2-0.5,0.5-0.5h0.5
						c0.2,0,0.5,0.2,0.5,0.5V786.1z"/>
				</g>
				<g>
					<rect x="268.9" y="768.7" class="st4" width="1.1" height="16.6"/>
				</g>
				<g>
					<path class="st4" d="M268.8,770.2v15.1c0,0-2.1-2.2-2.1-7.4S268.8,770.2,268.8,770.2z"/>
				</g>
			</g>
			<g id="headphoneR">
				<g>
					<path class="st4" d="M301.3,786.1c0,0.2,0.2,0.5,0.5,0.5h0.5c0.3,0,0.5-0.2,0.5-0.5v-16.7c0-0.2-0.2-0.5-0.5-0.5h-0.5
						c-0.3,0-0.5,0.2-0.5,0.5V786.1z"/>
				</g>
				<g>
					<rect x="302.8" y="768.7" class="st4" width="1.1" height="16.6"/>
				</g>
				<g>
					<path class="st4" d="M304,770.2v15.1c0,0,2.1-2.2,2.1-7.4S304,770.2,304,770.2z"/>
				</g>
			</g>
		</g>
		<g>
			<line class="st22" x1="227" y1="739.4" x2="904.9" y2="739.4"/>
			<line class="st22" x1="227" y1="960" x2="904.9" y2="960"/>
			<text transform="matrix(1 0 0 1 314.9375 794.0713)" class="st18 st5 st26">IsthatU</text>
			<text transform="matrix(1 0 0 1 314.9375 873.7729)" class="st18 st5 st25">There is an unknown sound!</text>
			<text transform="matrix(1 0 0 1 314.9375 939.2866)" class="st21 st5 st24">Slide to view</text>
		</g>
	</g>
</g>
</svg>
