<svg version="1.1" id="configureScreen" xmlns="http://www.w3.org/2000/svg" xmlns:xlink="http://www.w3.org/1999/xlink" x="0px" y="0px" width="375px" height="664.69px" viewBox="157 336 752 1332" style="enable-background:new 0 0 1080 1920;" xml:space="preserve">
<style type="text/css">
<![CDATA[
	#configureScreen .st0{fill:#7A4A8A;}
	#configureScreen .st1{fill:#101113;}
	#configureScreen .st2{fill:#18B4BC;}
	#configureScreen .st3{fill:#E73114;}
	#configureScreen .st4{opacity:0.98;}
	#configureScreen .st5{fill:#1D1D1B;}
	#configureScreen .st6{font-family: 'Arial'; font-size: 34px;}
	#configureScreen .st7{fill:#F08A4D;}
	#configureScreen .st8{fill:#F4A164;}
	#configureScreen .st9{fill:#27345D;}
	#configureScreen .st10{fill:#F6F6F6;}
	#configureScreen .st11{fill:#F8F8F8;}
	#configureScreen .st12{clip-path:url(#SVGID_2_);}
	#configureScreen .st13{clip-path:url(#SVGID_6_);}
	#configureScreen .st14{opacity:0.1;}
	#configureScreen .st15{opacity:0.5;}
	#configureScreen .st16{opacity:0.6;}
	#configureScreen .st17{opacity:0.9;}
	#configureScreen .st18{fill:none;stroke:#000000;stroke-miterlimit:10;}
	#configureScreen .st19{fill:#FFFFFF;}
	#configureScreen .st20{opacity:0.5;fill:#3D4C9A;}
	#configureScreen .st21{fill:#9FA0A0;}
	#configureScreen .st22{fill:none;stroke:#FFFFFF;stroke-width:0.25;stroke-miterlimit:10;}
	#configureScreen .st23{fill:#040000;}
	#configureScreen .st24{font-size:34;}
	#configureScreen .st25{fill:#070405;}
	#configureScreen .st26{fill:#3D4C9A;}
	#configureScreen .st27{opacity:0.1;fill:#FFFFFF;}
	#configureScreen .st28{fill:none;stroke:#040000;stroke-miterlimit:10;}
	#configureScreen .st29{fill:#FFFFFF;stroke:#000000;stroke-width:3;stroke-miterlimit:10;}
	#configureScreen .st30{fill:none;stroke:#FFFFFF;stroke-width:3;stroke-miterlimit:10;}
]]>
</style>
<g id="Layer_1">
	<g>
		<rect x="156.9" y="281.8" class="st25" width="753.9" height="54"/>
		<g>
			<path class="st19" d="M187.9,310.7c0,3.7-3,6.7-6.7,6.7c-3.7,0-6.7-3-6.7-6.7c0-3.7,3-6.7,6.7-6.7
				C184.9,304,187.9,307,187.9,310.7"/>
			<path class="st19" d="M204.9,310.7c0,3.7-3,6.7-6.7,6.7c-3.7,0-6.7-3-6.7-6.7c0-3.7,3-6.7,6.7-6.7
				C201.9,304,204.9,307,204.9,310.7"/>
			<path class="st19" d="M221.9,310.7c0,3.7-3,6.7-6.7,6.7c-3.7,0-6.7-3-6.7-6.7c0-3.7,3-6.7,6.7-6.7
				C218.9,304,221.9,307,221.9,310.7"/>
			<path class="st19" d="M238.9,310.7c0,3.7-3,6.7-6.7,6.7c-3.7,0-6.7-3-6.7-6.7c0-3.7,3-6.7,6.7-6.7
				C235.9,304,238.9,307,238.9,310.7"/>
			<path class="st19" d="M255.9,310.7c0,3.7-3,6.7-6.7,6.7c-3.7,0-6.7-3-6.7-6.7c0-3.7,3-6.7,6.7-6.7
				C252.9,304,255.9,307,255.9,310.7"/>
			<path class="st19" d="M262.5,303.8c2.1-1.9,4.5-3.4,7.1-4.3c2.6-1,5.2-1.4,7.9-1.4c2.7,0,5.3,0.5,7.9,1.4c2.6,1,4.9,2.4,7.1,4.3
				c0.2,0.2,0.3,0.5,0.3,0.8c0,0.3-0.1,0.6-0.3,0.8l-1.6,1.6c-0.2,0.2-0.5,0.3-0.8,0.3c-0.3,0-0.6-0.1-0.8-0.3
				c-1.7-1.5-3.6-2.6-5.6-3.4c-2-0.8-4.1-1.1-6.3-1.1c-2.1,0-4.2,0.4-6.3,1.1c-2.1,0.8-3.9,1.9-5.6,3.4c-0.2,0.2-0.5,0.3-0.8,0.3
				c-0.3,0-0.5-0.1-0.8-0.3l-1.6-1.6c-0.2-0.2-0.3-0.5-0.3-0.8C262.1,304.3,262.2,304,262.5,303.8L262.5,303.8z M267.7,308.9
				c1.4-1.2,2.9-2.1,4.6-2.7c1.7-0.6,3.4-0.9,5.2-0.9c1.8,0,3.5,0.3,5.2,0.9c1.7,0.6,3.2,1.5,4.6,2.7c0.3,0.2,0.4,0.5,0.4,0.8
				c0,0.3-0.1,0.6-0.3,0.8l-1.6,1.6c-0.2,0.2-0.4,0.3-0.7,0.3c-0.3,0-0.5-0.1-0.8-0.3c-1-0.8-2-1.4-3.2-1.8
				c-1.2-0.4-2.3-0.6-3.5-0.6c-1.2,0-2.4,0.2-3.5,0.6c-1.2,0.4-2.2,1-3.2,1.8c-0.2,0.2-0.5,0.3-0.8,0.2c-0.3,0-0.5-0.1-0.7-0.3
				l-1.6-1.6c-0.2-0.2-0.3-0.5-0.3-0.8C267.3,309.4,267.4,309.2,267.7,308.9C267.6,308.9,267.6,308.9,267.7,308.9
				C267.6,308.9,267.6,308.9,267.7,308.9 M275.1,313.3c0.3-0.3,0.7-0.6,1.1-0.7c0.4-0.2,0.8-0.2,1.3-0.2c0.4,0,0.9,0.1,1.3,0.2
				c0.4,0.2,0.8,0.4,1.1,0.7c0.3,0.3,0.6,0.7,0.7,1.1c0.2,0.4,0.3,0.8,0.2,1.3c0,0.4-0.1,0.8-0.2,1.3c-0.2,0.4-0.4,0.8-0.7,1.1
				c-0.3,0.3-0.7,0.6-1.1,0.7c-0.4,0.2-0.8,0.3-1.3,0.3c-0.4,0-0.8-0.1-1.3-0.2c-0.4-0.2-0.8-0.4-1.1-0.8c-0.3-0.3-0.6-0.7-0.7-1.1
				c-0.2-0.4-0.2-0.8-0.2-1.3c0-0.4,0.1-0.9,0.2-1.3C274.5,314,274.8,313.6,275.1,313.3"/>
			<path class="st19" d="M762.8,319.2V306H758v-1.8c0.6,0,1.2,0,1.8-0.1c0.6-0.1,1.1-0.3,1.6-0.5c0.5-0.3,0.9-0.6,1.2-1.1
				c0.3-0.5,0.6-1,0.7-1.7h1.7v18.5H762.8z"/>
			<path class="st19" d="M771.3,308c0-0.7,0.1-1.4,0.3-2.1c0.1-0.7,0.3-1.4,0.6-2c0.3-0.6,0.6-1.2,1.1-1.6c0.5-0.5,1-0.8,1.7-1.1
				c0.7-0.3,1.5-0.4,2.5-0.4c1,0,1.8,0.1,2.5,0.4c0.7,0.3,1.3,0.7,1.7,1.1s0.8,1,1.1,1.6c0.3,0.6,0.5,1.3,0.6,2
				c0.1,0.7,0.2,1.4,0.3,2.1c0,0.7,0.1,1.4,0.1,2.1c0,0.7,0,1.4-0.1,2.1c0,0.7-0.1,1.4-0.3,2.1c-0.1,0.7-0.3,1.4-0.6,2
				c-0.3,0.6-0.6,1.2-1.1,1.6s-1,0.8-1.7,1.1c-0.7,0.3-1.5,0.4-2.5,0.4c-1,0-1.8-0.1-2.5-0.4c-0.7-0.3-1.3-0.6-1.7-1.1
				c-0.5-0.5-0.8-1-1.1-1.6c-0.3-0.6-0.5-1.3-0.6-2c-0.1-0.7-0.2-1.4-0.3-2.1c0-0.7-0.1-1.4-0.1-2.1
				C771.3,309.5,771.3,308.7,771.3,308 M773.7,312.4c0,0.9,0.2,1.7,0.4,2.4s0.6,1.4,1.1,1.9c0.5,0.5,1.3,0.8,2.2,0.8
				c0.9,0,1.7-0.3,2.2-0.8c0.5-0.5,0.9-1.2,1.1-1.9c0.2-0.8,0.4-1.6,0.4-2.4c0-0.9,0.1-1.6,0.1-2.3c0-0.5,0-1,0-1.5
				c0-0.5-0.1-1.1-0.1-1.6c-0.1-0.5-0.2-1.1-0.3-1.6c-0.1-0.5-0.4-1-0.7-1.4c-0.3-0.4-0.6-0.7-1.1-1c-0.4-0.2-1-0.4-1.6-0.4
				c-0.6,0-1.2,0.1-1.6,0.4c-0.4,0.2-0.8,0.6-1.1,1c-0.3,0.4-0.5,0.8-0.7,1.4c-0.1,0.5-0.3,1.1-0.3,1.6c-0.1,0.5-0.1,1.1-0.1,1.6
				c0,0.5,0,1,0,1.5C773.6,310.8,773.7,311.6,773.7,312.4"/>
			<path class="st19" d="M785.8,308c0-0.7,0.1-1.4,0.3-2.1c0.1-0.7,0.3-1.4,0.6-2c0.3-0.6,0.6-1.2,1.1-1.6c0.5-0.5,1-0.8,1.7-1.1
				c0.7-0.3,1.5-0.4,2.5-0.4c1,0,1.8,0.1,2.5,0.4c0.7,0.3,1.3,0.7,1.7,1.1c0.5,0.5,0.8,1,1.1,1.6c0.3,0.6,0.5,1.3,0.6,2
				c0.1,0.7,0.2,1.4,0.3,2.1c0,0.7,0.1,1.4,0.1,2.1c0,0.7,0,1.4-0.1,2.1c0,0.7-0.1,1.4-0.3,2.1c-0.1,0.7-0.3,1.4-0.6,2
				c-0.3,0.6-0.6,1.2-1.1,1.6c-0.5,0.5-1,0.8-1.7,1.1c-0.7,0.3-1.5,0.4-2.5,0.4c-1,0-1.8-0.1-2.5-0.4c-0.7-0.3-1.3-0.6-1.7-1.1
				c-0.5-0.5-0.8-1-1.1-1.6s-0.5-1.3-0.6-2c-0.1-0.7-0.2-1.4-0.3-2.1c0-0.7-0.1-1.4-0.1-2.1C785.8,309.5,785.8,308.7,785.8,308
				 M788.2,312.4c0,0.9,0.2,1.7,0.4,2.4s0.6,1.4,1.1,1.9c0.5,0.5,1.3,0.8,2.2,0.8c0.9,0,1.7-0.3,2.2-0.8c0.5-0.5,0.9-1.2,1.1-1.9
				c0.2-0.8,0.4-1.6,0.4-2.4c0-0.9,0.1-1.6,0.1-2.3c0-0.5,0-1,0-1.5s-0.1-1.1-0.1-1.6c-0.1-0.5-0.2-1.1-0.3-1.6s-0.4-1-0.7-1.4
				c-0.3-0.4-0.6-0.7-1.1-1c-0.4-0.2-1-0.4-1.6-0.4c-0.6,0-1.2,0.1-1.6,0.4c-0.4,0.2-0.8,0.6-1.1,1c-0.3,0.4-0.5,0.8-0.7,1.4
				c-0.1,0.5-0.3,1.1-0.3,1.6c-0.1,0.5-0.1,1.1-0.1,1.6c0,0.5,0,1,0,1.5C788.1,310.8,788.1,311.6,788.2,312.4"/>
			<path class="st19" d="M801.8,304c0.1-0.6,0.4-1.2,0.7-1.7c0.3-0.5,0.8-0.9,1.3-1.2c0.5-0.3,1.2-0.4,2-0.4c0.8,0,1.5,0.1,2,0.4
				c0.5,0.3,1,0.7,1.3,1.1c0.3,0.5,0.5,1,0.7,1.7c0.1,0.6,0.2,1.3,0.2,2c0,0.7-0.1,1.3-0.2,2c-0.1,0.6-0.4,1.2-0.7,1.7
				c-0.3,0.5-0.8,0.9-1.3,1.2c-0.5,0.3-1.2,0.4-1.9,0.4c-0.8,0-1.4-0.1-2-0.4c-0.5-0.3-1-0.6-1.3-1.1c-0.3-0.5-0.6-1-0.7-1.6
				c-0.1-0.6-0.2-1.3-0.2-2C801.6,305.3,801.6,304.6,801.8,304 M803.6,307.2c0,0.4,0.1,0.9,0.3,1.2c0.2,0.4,0.4,0.7,0.7,0.9
				c0.3,0.3,0.7,0.4,1.2,0.4c0.5,0,0.9-0.1,1.2-0.4c0.3-0.2,0.5-0.6,0.7-0.9c0.2-0.4,0.3-0.8,0.3-1.2c0.1-0.5,0.1-0.9,0.1-1.3
				c0-0.4,0-0.8-0.1-1.2c0-0.4-0.1-0.9-0.3-1.2c-0.2-0.4-0.4-0.7-0.7-0.9c-0.3-0.3-0.7-0.4-1.2-0.4c-0.5,0-0.9,0.1-1.2,0.4
				c-0.3,0.3-0.5,0.6-0.7,0.9c-0.2,0.4-0.3,0.8-0.3,1.2c-0.1,0.4-0.1,0.9-0.1,1.3C803.5,306.3,803.6,306.8,803.6,307.2 M820.3,300.4
				l-14,19.4h-2.2l14-19.4H820.3z M814.7,312.3c0.1-0.6,0.4-1.2,0.7-1.7c0.3-0.5,0.8-0.9,1.3-1.2c0.5-0.3,1.2-0.4,2-0.4
				c0.8,0,1.5,0.1,2,0.4c0.5,0.3,1,0.7,1.3,1.1c0.3,0.5,0.5,1,0.7,1.7c0.1,0.6,0.2,1.3,0.2,2c0,0.7-0.1,1.3-0.2,2
				c-0.1,0.6-0.4,1.2-0.7,1.7c-0.3,0.5-0.8,0.9-1.3,1.1c-0.5,0.3-1.2,0.4-1.9,0.4c-0.8,0-1.4-0.1-2-0.4c-0.5-0.3-1-0.6-1.3-1.1
				c-0.3-0.5-0.6-1-0.7-1.6c-0.1-0.6-0.2-1.3-0.2-2C814.5,313.6,814.5,313,814.7,312.3 M816.5,315.5c0,0.4,0.1,0.9,0.3,1.2
				c0.2,0.4,0.4,0.7,0.7,0.9c0.3,0.3,0.7,0.4,1.2,0.4c0.5,0,0.9-0.1,1.2-0.4s0.5-0.6,0.7-0.9c0.2-0.4,0.3-0.8,0.3-1.2
				c0.1-0.5,0.1-0.9,0.1-1.3c0-0.4,0-0.8-0.1-1.2c0-0.4-0.1-0.9-0.3-1.2c-0.2-0.4-0.4-0.7-0.7-0.9c-0.3-0.3-0.7-0.4-1.2-0.4
				c-0.5,0-0.9,0.1-1.2,0.4c-0.3,0.3-0.5,0.6-0.7,0.9c-0.2,0.4-0.3,0.8-0.3,1.2c-0.1,0.4-0.1,0.9-0.1,1.3
				C816.4,314.7,816.4,315.1,816.5,315.5"/>
			<rect x="836.9" y="302.6" class="st19" width="47.6" height="17"/>
			<rect x="889.1" y="307.1" class="st19" width="4.5" height="9.1"/>
		</g>
	</g>
</g>
<g id="Layer_3">
</g>
<g id="Layer_6">
</g>
<g id="Layer_7">
</g>
<g id="Layer_8">
</g>
<g id="Layer_9">
</g>
<g id="Layer_10">
</g>
<g id="Layer_11">
	<rect x="154.4" y="338.2" class="st19" width="755.4" height="1272.1"/>
	<g>
		<defs>
			<rect id="SVGID_1_" x="154.4" y="457.1" width="755.4" height="502.9"/>
		</defs>
		<clipPath id="SVGID_2_">
			<use xlink:href="#SVGID_1_"  style="overflow:visible;"/>
		</clipPath>
		<g class="st12">
			<defs>
				<rect id="SVGID_3_" x="138.2" y="349.5" width="1983.2" height="610.5"/>
			</defs>
			<clipPath id="SVGID_4_">
				<use xlink:href="#SVGID_3_"  style="overflow:visible;"/>
			</clipPath>
			<g transform="matrix(1 0 0 1 -4.029916e-006 1.055339e-005)" style="clip-path:url(#SVGID_4_);">
				
					<image style="overflow:visible;" width="750" height="474" xlink:href="52896A22.png"  transform="matrix(2.6443 0 0 1.288 138.209 349.52)">
				</image>
			</g>
		</g>
	</g>
	<text transform="matrix(1 0 0 1 227.7813 1058.9297)" class="st21 st6 st24">02/12/2016</text>
	<text transform="matrix(1 0 0 1 698.8281 1058.9297)" class="st21 st6 st24">05:30 PM</text>
	<line class="st18" x1="222" y1="1127.3" x2="858" y2="1127.3"/>
	<line class="st18" x1="222" y1="1368.6" x2="858" y2="1368.6"/>
	<text transform="matrix(1 0 0 1 408.6074 425.9468)" class="st21 st6 st24">Unknown Sound</text>
	<path class="st21" d="M214.6,407.4c-1,1-1,2.6,0,3.5l22.2,22.2c1.1,1.1,2.9,1.1,4,0c1.1-1.1,1.1-2.9,0-4l-18.3-18.3
		c-1-1-1-2.6,0-3.5l18.3-18.3c1.1-1.1,1.1-2.9,0-4c-1.1-1.1-2.9-1.1-4,0L214.6,407.4z"/>
	<path id="sound_play" class="st19" d="M584,749.9L584,749.9l-65.6-38.3c0,0-0.1,0-0.1-0.1l-0.2-0.1l0,0c-0.8-0.5-1.7-0.8-2.8-0.8
		c-3.1,0-5.5,2.5-5.5,5.5v0v76.9c0,3,2.5,5.5,5.5,5.5c1,0,1.9-0.3,2.8-0.8l0,0l0.2-0.1c0,0,0.1,0,0.1-0.1l65.6-38.3l0,0
		c1.6-1,2.7-2.7,2.7-4.7C586.7,752.6,585.6,750.8,584,749.9 M515.3,793.1v-76.9l65.9,38.5L515.3,793.1z M540,666.7
		c-48.6,0-87.9,39.4-87.9,87.9s39.4,87.9,87.9,87.9s87.9-39.4,87.9-87.9S588.6,666.7,540,666.7 M540,831.6
		c-42.5,0-76.9-34.4-76.9-76.9s34.5-76.9,76.9-76.9c42.5,0,76.9,34.4,76.9,76.9S582.5,831.6,540,831.6"/>
	<g id="dismiss_menu">
		<text transform="matrix(1 0 0 1 264.7773 1340.0879)" class="st6 st24">Snooze</text>
		<text transform="matrix(1 0 0 1 704.8203 1341.0879)" class="st23 st6 st24">Dismiss</text>
		<text transform="matrix(1 0 0 1 512.8281 1341.0879)" class="st23 st6 st24">Add</text>
		<g transform="matrix( 1, 0, 0, 1, 0,0) ">
			<g>
				<g id="a">
					<path d="M314.6,1209.7c3.1-0.7,6.2-0.7,9.3,0l4.6-4.4c0.7-1.4,0.5-2.5-0.7-3.1c-5.7-1.4-11.4-1.4-17.2,0.1
						c-1.3,0.6-1.5,1.6-0.5,3L314.6,1209.7 M350.3,1235.7L350.3,1235.7c-1.5-5.3-4.3-10.1-8.5-14.2h-0.1c-5.3-5-11.4-7.9-18.5-8.7
						c-0.2,0-0.5,0-0.7,0c-1.1-0.2-2.3-0.2-3.4-0.2c-0.2,0-0.4,0-0.6,0c-0.9,0-1.8,0-2.6,0.1c-7.5,0.7-14,3.6-19.4,8.8
						c-6.2,5.9-9.4,13-9.5,21.1c0,0.1,0,0.3,0,0.4c0,8.4,3.2,15.6,9.5,21.5c6.1,5.9,13.4,8.9,22,9.1c0.2,0,0.4,0,0.6,0
						c8.8,0,16.3-3,22.6-9.1c4.2-4,7-8.5,8.5-13.6c0.6-2.5,0.9-5.2,0.9-7.9c0-0.2,0-0.3,0-0.4C351,1240.2,350.8,1237.9,350.3,1235.7
						 M346.2,1243c0,2.3-0.2,4.6-0.7,6.7c-1.2,4.3-3.6,8.2-7.2,11.6c-5.3,5.1-11.7,7.6-19.2,7.6c-0.2,0-0.4,0-0.6,0
						c-7.3-0.1-13.5-2.7-18.6-7.6c-5.4-5-8-11.1-8-18.3c0-0.2,0-0.3,0-0.4c0.1-6.9,2.8-12.8,8-17.9c5.1-4.9,11.3-7.4,18.7-7.5
						c0.1,0,0.2,0,0.5,0c0.6,0,1.2,0,1.7,0.1c6.8,0.3,12.6,2.8,17.5,7.4c3.6,3.6,6.1,7.6,7.3,12c0.4,1.9,0.6,3.8,0.6,5.8
						C346.2,1242.7,346.2,1242.9,346.2,1243 M335.1,1227.7c-4.6-4.3-10.2-6.5-16.6-6.5v21.4h23.4c-0.1-1.6-0.3-3.1-0.6-4.5
						C340.2,1234.2,338.2,1230.7,335.1,1227.7z"/>
				</g>
			</g>
		</g>
		<path class="st23" d="M778.3,1233.3h-27.7c-1.1,0-2,0.9-2,2v4c0,1.1,0.9,2,2,2h27.7c1.1,0,2-0.9,2-2v-4
			C780.3,1234.2,779.4,1233.3,778.3,1233.3 M778.3,1239.2h-27.7v-4h27.7V1239.2z M764.5,1205.7c-17.5,0-31.6,14.2-31.6,31.6
			c0,17.5,14.2,31.6,31.6,31.6s31.6-14.2,31.6-31.6C796.1,1219.8,781.9,1205.7,764.5,1205.7 M764.5,1264.9
			c-15.3,0-27.7-12.4-27.7-27.7c0-15.3,12.4-27.7,27.7-27.7s27.7,12.4,27.7,27.7C792.1,1252.5,779.7,1264.9,764.5,1264.9"/>
		<path class="st23" d="M545.1,1205.2c-17.5,0-31.6,14.2-31.6,31.6s14.2,31.6,31.6,31.6s31.6-14.2,31.6-31.6
			S562.5,1205.2,545.1,1205.2 M545.1,1264.5c-15.3,0-27.7-12.4-27.7-27.7s12.4-27.7,27.7-27.7s27.7,12.4,27.7,27.7
			S560.4,1264.5,545.1,1264.5 M558.9,1232.8H549v-9.9c0-1.1-0.9-2-2-2h-4c-1.1,0-2,0.9-2,2v9.9h-9.9c-1.1,0-2,0.9-2,2v4
			c0,1.1,0.9,2,2,2h9.9v9.9c0,1.1,0.9,2,2,2h4c1.1,0,2-0.9,2-2v-9.9h9.9c1.1,0,2-0.9,2-2v-4C560.9,1233.7,560,1232.8,558.9,1232.8
			 M558.9,1238.8h-11.9v11.9h-4v-11.9h-11.9v-4h11.9V1223h4v11.9h11.9V1238.8z"/>
	</g>
	<g id="add_menu">
		<rect x="154.4" y="1402.1" class="st11" width="755.4" height="258.1"/>
		<line class="st18" x1="156.9" y1="1454.1" x2="909.7" y2="1454.1"/>
		<line class="st18" x1="156.9" y1="1547.1" x2="909.7" y2="1547.1"/>
		<line class="st18" x1="193.2" y1="1470.1" x2="193.2" y2="1536.1"/>
		<text transform="matrix(1 0 0 1 216.7363 1624.2393)" class="st2 st6 st24">Cancel</text>
		<text transform="matrix(1 0 0 1 796.0625 1624.2393)" class="st6 st24">Ok</text>
	</g>
</g>
</svg>
