<svg version="1.1" id="modeScreen" xmlns="http://www.w3.org/2000/svg" xmlns:xlink="http://www.w3.org/1999/xlink" x="0px" y="0px" width="375px" height="664.69px" viewBox="157 336 752 1332" style="enable-background:new 0 0 1080 1920;" xml:space="preserve">
<style type="text/css">
<![CDATA[
	.st0{fill:#7A4A8A;}
    .st1{fill:#101113;}
    .st2{font-family: 'Arial'; font-size: 34px;}
    .st3{fill:#E73114;}
    .st4{opacity:0.98;}
    .st5{fill:#1D1D1B;}
    .st6{font-family: 'Arial'; font-size: 34px;}
    .st7{fill:#F08A4D;}
    .st8{fill:#F4A164;}
    .st9{fill:#27345D;}
    .st10{fill:#F6F6F6;}
    .st11{fill:#F8F8F8;}
    .st12{clip-path:url(#SVGID_2_);}
    .st13{clip-path:url(#SVGID_6_);}
    .st14{opacity:0.1;}
    .st15{opacity:0.5;}
    .st16{opacity:0.6;}
    .st17{opacity:0.9;}
    .st18{fill:none;stroke:#000000;stroke-miterlimit:10;}
    .st19{fill:#FFFFFF;}
    .st20{fill:none;}
    .st21{opacity:0.5;fill:#3D4C9A;}
    .st22{fill:#9FA0A0;}
    .st23{fill:none;stroke:#FFFFFF;stroke-width:0.25;stroke-miterlimit:10;}
    .st24{font-family: 'Arial'; font-size: 34px;}
    .st25{fill:#040000;}
    .st26{font-size:34;}
    .st27{fill:#070405;}
    .st28{fill:#3D4C9A;}
    .st29{opacity:0.1;fill:#FFFFFF;}
    .st30{fill:none;stroke:#040000;stroke-miterlimit:10;}
    .st31{fill:#FFFFFF;stroke:#000000;stroke-width:3;stroke-miterlimit:10;}
    .st32{fill:none;stroke:#FFFFFF;stroke-width:3;stroke-miterlimit:10;}
]]>
</style>
<g id="Layer_1">
	<path class="st1" d="M910.6,286.7c0-1.9-1.5-3.4-3.4-3.4H160.3c-1.9,0-3.4,1.5-3.4,3.4v1323.7c0,1.9,1.5,3.4,3.4,3.4h746.9
		c1.9,0,3.4-1.5,3.4-3.4V286.7z"/>
	<g>
		<rect x="156.9" y="281.8" class="st27" width="753.9" height="54"/>
		<g>
			<path class="st19" d="M187.9,310.7c0,3.7-3,6.7-6.7,6.7c-3.7,0-6.7-3-6.7-6.7c0-3.7,3-6.7,6.7-6.7
				C184.9,304,187.9,307,187.9,310.7"/>
			<path class="st19" d="M204.9,310.7c0,3.7-3,6.7-6.7,6.7c-3.7,0-6.7-3-6.7-6.7c0-3.7,3-6.7,6.7-6.7
				C201.9,304,204.9,307,204.9,310.7"/>
			<path class="st19" d="M221.9,310.7c0,3.7-3,6.7-6.7,6.7c-3.7,0-6.7-3-6.7-6.7c0-3.7,3-6.7,6.7-6.7
				C218.9,304,221.9,307,221.9,310.7"/>
			<path class="st19" d="M238.9,310.7c0,3.7-3,6.7-6.7,6.7c-3.7,0-6.7-3-6.7-6.7c0-3.7,3-6.7,6.7-6.7
				C235.9,304,238.9,307,238.9,310.7"/>
			<path class="st19" d="M255.9,310.7c0,3.7-3,6.7-6.7,6.7c-3.7,0-6.7-3-6.7-6.7c0-3.7,3-6.7,6.7-6.7
				C252.9,304,255.9,307,255.9,310.7"/>
			<path class="st19" d="M262.5,303.8c2.1-1.9,4.5-3.4,7.1-4.3c2.6-1,5.2-1.4,7.9-1.4c2.7,0,5.3,0.5,7.9,1.4c2.6,1,4.9,2.4,7.1,4.3
				c0.2,0.2,0.3,0.5,0.3,0.8c0,0.3-0.1,0.6-0.3,0.8l-1.6,1.6c-0.2,0.2-0.5,0.3-0.8,0.3c-0.3,0-0.6-0.1-0.8-0.3
				c-1.7-1.5-3.6-2.6-5.6-3.4c-2-0.8-4.1-1.1-6.3-1.1c-2.1,0-4.2,0.4-6.3,1.1c-2.1,0.8-3.9,1.9-5.6,3.4c-0.2,0.2-0.5,0.3-0.8,0.3
				c-0.3,0-0.5-0.1-0.8-0.3l-1.6-1.6c-0.2-0.2-0.3-0.5-0.3-0.8C262.1,304.3,262.2,304,262.5,303.8L262.5,303.8z M267.7,308.9
				c1.4-1.2,2.9-2.1,4.6-2.7c1.7-0.6,3.4-0.9,5.2-0.9c1.8,0,3.5,0.3,5.2,0.9c1.7,0.6,3.2,1.5,4.6,2.7c0.3,0.2,0.4,0.5,0.4,0.8
				c0,0.3-0.1,0.6-0.3,0.8l-1.6,1.6c-0.2,0.2-0.4,0.3-0.7,0.3c-0.3,0-0.5-0.1-0.8-0.3c-1-0.8-2-1.4-3.2-1.8
				c-1.2-0.4-2.3-0.6-3.5-0.6c-1.2,0-2.4,0.2-3.5,0.6c-1.2,0.4-2.2,1-3.2,1.8c-0.2,0.2-0.5,0.3-0.8,0.2c-0.3,0-0.5-0.1-0.7-0.3
				l-1.6-1.6c-0.2-0.2-0.3-0.5-0.3-0.8C267.3,309.4,267.4,309.2,267.7,308.9C267.6,308.9,267.6,308.9,267.7,308.9
				C267.6,308.9,267.6,308.9,267.7,308.9 M275.1,313.3c0.3-0.3,0.7-0.6,1.1-0.7c0.4-0.2,0.8-0.2,1.3-0.2c0.4,0,0.9,0.1,1.3,0.2
				c0.4,0.2,0.8,0.4,1.1,0.7c0.3,0.3,0.6,0.7,0.7,1.1c0.2,0.4,0.3,0.8,0.2,1.3c0,0.4-0.1,0.8-0.2,1.3c-0.2,0.4-0.4,0.8-0.7,1.1
				c-0.3,0.3-0.7,0.6-1.1,0.7c-0.4,0.2-0.8,0.3-1.3,0.3c-0.4,0-0.8-0.1-1.3-0.2c-0.4-0.2-0.8-0.4-1.1-0.8c-0.3-0.3-0.6-0.7-0.7-1.1
				c-0.2-0.4-0.2-0.8-0.2-1.3c0-0.4,0.1-0.9,0.2-1.3C274.5,314,274.8,313.6,275.1,313.3"/>
			<path class="st19" d="M762.8,319.2V306H758v-1.8c0.6,0,1.2,0,1.8-0.1c0.6-0.1,1.1-0.3,1.6-0.5c0.5-0.3,0.9-0.6,1.2-1.1
				c0.3-0.5,0.6-1,0.7-1.7h1.7v18.5H762.8z"/>
			<path class="st19" d="M771.3,308c0-0.7,0.1-1.4,0.3-2.1c0.1-0.7,0.3-1.4,0.6-2c0.3-0.6,0.6-1.2,1.1-1.6c0.5-0.5,1-0.8,1.7-1.1
				c0.7-0.3,1.5-0.4,2.5-0.4c1,0,1.8,0.1,2.5,0.4c0.7,0.3,1.3,0.7,1.7,1.1s0.8,1,1.1,1.6c0.3,0.6,0.5,1.3,0.6,2
				c0.1,0.7,0.2,1.4,0.3,2.1c0,0.7,0.1,1.4,0.1,2.1c0,0.7,0,1.4-0.1,2.1c0,0.7-0.1,1.4-0.3,2.1c-0.1,0.7-0.3,1.4-0.6,2
				c-0.3,0.6-0.6,1.2-1.1,1.6s-1,0.8-1.7,1.1c-0.7,0.3-1.5,0.4-2.5,0.4c-1,0-1.8-0.1-2.5-0.4c-0.7-0.3-1.3-0.6-1.7-1.1
				c-0.5-0.5-0.8-1-1.1-1.6c-0.3-0.6-0.5-1.3-0.6-2c-0.1-0.7-0.2-1.4-0.3-2.1c0-0.7-0.1-1.4-0.1-2.1
				C771.3,309.5,771.3,308.7,771.3,308 M773.7,312.4c0,0.9,0.2,1.7,0.4,2.4s0.6,1.4,1.1,1.9c0.5,0.5,1.3,0.8,2.2,0.8
				c0.9,0,1.7-0.3,2.2-0.8c0.5-0.5,0.9-1.2,1.1-1.9c0.2-0.8,0.4-1.6,0.4-2.4c0-0.9,0.1-1.6,0.1-2.3c0-0.5,0-1,0-1.5
				c0-0.5-0.1-1.1-0.1-1.6c-0.1-0.5-0.2-1.1-0.3-1.6c-0.1-0.5-0.4-1-0.7-1.4c-0.3-0.4-0.6-0.7-1.1-1c-0.4-0.2-1-0.4-1.6-0.4
				c-0.6,0-1.2,0.1-1.6,0.4c-0.4,0.2-0.8,0.6-1.1,1c-0.3,0.4-0.5,0.8-0.7,1.4c-0.1,0.5-0.3,1.1-0.3,1.6c-0.1,0.5-0.1,1.1-0.1,1.6
				c0,0.5,0,1,0,1.5C773.6,310.8,773.7,311.6,773.7,312.4"/>
			<path class="st19" d="M785.8,308c0-0.7,0.1-1.4,0.3-2.1c0.1-0.7,0.3-1.4,0.6-2c0.3-0.6,0.6-1.2,1.1-1.6c0.5-0.5,1-0.8,1.7-1.1
				c0.7-0.3,1.5-0.4,2.5-0.4c1,0,1.8,0.1,2.5,0.4c0.7,0.3,1.3,0.7,1.7,1.1c0.5,0.5,0.8,1,1.1,1.6c0.3,0.6,0.5,1.3,0.6,2
				c0.1,0.7,0.2,1.4,0.3,2.1c0,0.7,0.1,1.4,0.1,2.1c0,0.7,0,1.4-0.1,2.1c0,0.7-0.1,1.4-0.3,2.1c-0.1,0.7-0.3,1.4-0.6,2
				c-0.3,0.6-0.6,1.2-1.1,1.6c-0.5,0.5-1,0.8-1.7,1.1c-0.7,0.3-1.5,0.4-2.5,0.4c-1,0-1.8-0.1-2.5-0.4c-0.7-0.3-1.3-0.6-1.7-1.1
				c-0.5-0.5-0.8-1-1.1-1.6s-0.5-1.3-0.6-2c-0.1-0.7-0.2-1.4-0.3-2.1c0-0.7-0.1-1.4-0.1-2.1C785.8,309.5,785.8,308.7,785.8,308
				 M788.2,312.4c0,0.9,0.2,1.7,0.4,2.4s0.6,1.4,1.1,1.9c0.5,0.5,1.3,0.8,2.2,0.8c0.9,0,1.7-0.3,2.2-0.8c0.5-0.5,0.9-1.2,1.1-1.9
				c0.2-0.8,0.4-1.6,0.4-2.4c0-0.9,0.1-1.6,0.1-2.3c0-0.5,0-1,0-1.5s-0.1-1.1-0.1-1.6c-0.1-0.5-0.2-1.1-0.3-1.6s-0.4-1-0.7-1.4
				c-0.3-0.4-0.6-0.7-1.1-1c-0.4-0.2-1-0.4-1.6-0.4c-0.6,0-1.2,0.1-1.6,0.4c-0.4,0.2-0.8,0.6-1.1,1c-0.3,0.4-0.5,0.8-0.7,1.4
				c-0.1,0.5-0.3,1.1-0.3,1.6c-0.1,0.5-0.1,1.1-0.1,1.6c0,0.5,0,1,0,1.5C788.1,310.8,788.1,311.6,788.2,312.4"/>
			<path class="st19" d="M801.8,304c0.1-0.6,0.4-1.2,0.7-1.7c0.3-0.5,0.8-0.9,1.3-1.2c0.5-0.3,1.2-0.4,2-0.4c0.8,0,1.5,0.1,2,0.4
				c0.5,0.3,1,0.7,1.3,1.1c0.3,0.5,0.5,1,0.7,1.7c0.1,0.6,0.2,1.3,0.2,2c0,0.7-0.1,1.3-0.2,2c-0.1,0.6-0.4,1.2-0.7,1.7
				c-0.3,0.5-0.8,0.9-1.3,1.2c-0.5,0.3-1.2,0.4-1.9,0.4c-0.8,0-1.4-0.1-2-0.4c-0.5-0.3-1-0.6-1.3-1.1c-0.3-0.5-0.6-1-0.7-1.6
				c-0.1-0.6-0.2-1.3-0.2-2C801.6,305.3,801.6,304.6,801.8,304 M803.6,307.2c0,0.4,0.1,0.9,0.3,1.2c0.2,0.4,0.4,0.7,0.7,0.9
				c0.3,0.3,0.7,0.4,1.2,0.4c0.5,0,0.9-0.1,1.2-0.4c0.3-0.2,0.5-0.6,0.7-0.9c0.2-0.4,0.3-0.8,0.3-1.2c0.1-0.5,0.1-0.9,0.1-1.3
				c0-0.4,0-0.8-0.1-1.2c0-0.4-0.1-0.9-0.3-1.2c-0.2-0.4-0.4-0.7-0.7-0.9c-0.3-0.3-0.7-0.4-1.2-0.4c-0.5,0-0.9,0.1-1.2,0.4
				c-0.3,0.3-0.5,0.6-0.7,0.9c-0.2,0.4-0.3,0.8-0.3,1.2c-0.1,0.4-0.1,0.9-0.1,1.3C803.5,306.3,803.6,306.8,803.6,307.2 M820.3,300.4
				l-14,19.4h-2.2l14-19.4H820.3z M814.7,312.3c0.1-0.6,0.4-1.2,0.7-1.7c0.3-0.5,0.8-0.9,1.3-1.2c0.5-0.3,1.2-0.4,2-0.4
				c0.8,0,1.5,0.1,2,0.4c0.5,0.3,1,0.7,1.3,1.1c0.3,0.5,0.5,1,0.7,1.7c0.1,0.6,0.2,1.3,0.2,2c0,0.7-0.1,1.3-0.2,2
				c-0.1,0.6-0.4,1.2-0.7,1.7c-0.3,0.5-0.8,0.9-1.3,1.1c-0.5,0.3-1.2,0.4-1.9,0.4c-0.8,0-1.4-0.1-2-0.4c-0.5-0.3-1-0.6-1.3-1.1
				c-0.3-0.5-0.6-1-0.7-1.6c-0.1-0.6-0.2-1.3-0.2-2C814.5,313.6,814.5,313,814.7,312.3 M816.5,315.5c0,0.4,0.1,0.9,0.3,1.2
				c0.2,0.4,0.4,0.7,0.7,0.9c0.3,0.3,0.7,0.4,1.2,0.4c0.5,0,0.9-0.1,1.2-0.4c0.3-0.2,0.5-0.6,0.7-0.9c0.2-0.4,0.3-0.8,0.3-1.2
				c0.1-0.5,0.1-0.9,0.1-1.3c0-0.4,0-0.8-0.1-1.2c0-0.4-0.1-0.9-0.3-1.2c-0.2-0.4-0.4-0.7-0.7-0.9c-0.3-0.3-0.7-0.4-1.2-0.4
				c-0.5,0-0.9,0.1-1.2,0.4c-0.3,0.3-0.5,0.6-0.7,0.9c-0.2,0.4-0.3,0.8-0.3,1.2c-0.1,0.4-0.1,0.9-0.1,1.3
				C816.4,314.7,816.4,315.1,816.5,315.5"/>
			<rect x="836.9" y="302.6" class="st19" width="47.6" height="17"/>
			<rect x="889.1" y="307.1" class="st19" width="4.5" height="9.1"/>
		</g>
	</g>
</g>
<g id="Layer_3">
</g>
<g id="Layer_6">
</g>
<g id="Layer_7">
</g>
<g id="Layer_8">
</g>
<g id="Layer_9">
	<g id="selections">
		<rect x="157.8" y="1050.5" class="st18" width="750.7" height="563.4"/>
		<path class="st24" d="M255.3,1273.2c5.2,0,9.4-4.2,9.4-9.4v-15.7c0-5.2-4.2-9.4-9.4-9.4c-5.2,0-9.4,4.2-9.4,9.4v15.7
			C245.9,1269,250.1,1273.2,255.3,1273.2z"/>
		<path class="st24" d="M269.4,1257.6c-0.9,0-1.6,0.7-1.6,1.6v4.7c0,6.9-5.6,12.5-12.5,12.5s-12.5-5.6-12.5-12.5v-4.7
			c0-0.9-0.7-1.6-1.6-1.6s-1.6,0.7-1.6,1.6v4.7c0,7.6,5.4,13.9,12.6,15.4v3.9c-2.8,0.9-5.2,3-6.4,5.8h6.3c0-1.7,1.4-3.1,3.1-3.1
			s3.1,1.4,3.1,3.1h6.3c-1.1-2.8-3.4-4.8-6.2-5.7v-4c7.1-1.5,12.4-7.8,12.4-15.3v-4.7C270.9,1258.3,270.2,1257.6,269.4,1257.6z"/>
		<line class="st17" x1="222" y1="1307" x2="858" y2="1307"/>
		<text transform="matrix(1 0 0 1 306.8711 1275.2461)" class="st24 st5 st25">Microphone</text>
		<path class="st30" d="M840.4,1270.2c0,1.6-1,2.8-2.1,2.8h-70.6c-1.2,0-2.1-1.3-2.1-2.8v-10.7c0-1.6,1-2.8,2.1-2.8h70.6
			c1.2,0,2.1,1.3,2.1,2.8V1270.2z"/>
		<circle class="st30" cx="772" cy="1263.9" r="19.2"/>
		<line class="st29" x1="222" y1="1400.4" x2="858" y2="1400.4"/>
		<text transform="matrix(1 0 0 1 306.8711 1368.6133)" class="st24 st5 st25">Camera</text>
		<path class="st30" d="M840.4,1363.6c0,1.6-1,2.8-2.1,2.8h-70.6c-1.2,0-2.1-1.3-2.1-2.8v-10.7c0-1.6,1-2.8,2.1-2.8h70.6
			c1.2,0,2.1,1.3,2.1,2.8V1363.6z"/>
		<circle class="st30" cx="772" cy="1357.2" r="19.2"/>
		<line class="st29" x1="222" y1="1499.4" x2="858" y2="1499.4"/>
		<text transform="matrix(1 0 0 1 310.873 1468.9141)" class="st24 st5 st25">Wifi</text>
		<path class="st30" d="M840.4,1462.6c0,1.6-1,2.8-2.1,2.8h-70.6c-1.2,0-2.1-1.3-2.1-2.8v-10.7c0-1.6,1-2.8,2.1-2.8h70.6
			c1.2,0,2.1,1.3,2.1,2.8V1462.6z"/>
		<circle class="st30" cx="772" cy="1456.2" r="19.2"/>
		<g>
			<path class="st24" d="M272.9,1348.1h-12c-1.7-0.8-3.6-1.3-5.6-1.3c-2,0-3.9,0.5-5.6,1.3h-12c-2.1,0-3.8,1.7-3.8,3.8v15.7
				c0,2.1,1.7,3.8,3.8,3.8h12.7c1.5,0.6,3.1,1,4.9,1c1.7,0,3.4-0.3,4.9-1h12.7c2.1,0,3.8-1.7,3.8-3.8v-15.7
				C276.7,1349.8,275,1348.1,272.9,1348.1z M239.1,1356.3c-1.8,0-3.3-1.5-3.3-3.3s1.5-3.3,3.3-3.3s3.3,1.5,3.3,3.3
				S240.9,1356.3,239.1,1356.3z M255.3,1370.7c-6.1,0-11.1-5-11.1-11.1s5-11.1,11.1-11.1s11.1,5,11.1,11.1
				S261.4,1370.7,255.3,1370.7z"/>
			<circle class="st24" cx="255.3" cy="1359.6" r="8.3"/>
			<path class="st24" d="M265.2,1346.8h8.6c1.3,0,2.4-1.1,2.4-2.4c0-1.3-1.1-2.4-2.4-2.4h-8.6c-1.3,0-2.4,1.1-2.4,2.4
				C262.8,1345.8,263.9,1346.8,265.2,1346.8z"/>
		</g>
		<g>
			<path class="st24" d="M234.9,1453.1c-0.6,0-1.2-0.2-1.6-0.7c-0.9-0.9-0.9-2.4,0-3.3c5.9-5.9,13.7-9.1,22-9.1
				c8.3,0,16.1,3.2,22,9.1c0.9,0.9,0.9,2.4,0,3.3c-0.9,0.9-2.4,0.9-3.3,0c-5-5-11.7-7.8-18.7-7.8c-7.1,0-13.7,2.8-18.7,7.8
				C236.1,1452.9,235.5,1453.1,234.9,1453.1z"/>
			<path class="st24" d="M241,1459.2c-0.6,0-1.2-0.2-1.6-0.7c-0.9-0.9-0.9-2.4,0-3.3c4.3-4.3,9.9-6.6,15.9-6.6s11.7,2.3,15.9,6.6
				c0.9,0.9,0.9,2.4,0,3.3c-0.9,0.9-2.4,0.9-3.3,0c-3.4-3.4-7.9-5.2-12.7-5.2c-4.8,0-9.3,1.9-12.7,5.3
				C242.2,1459,241.6,1459.2,241,1459.2z"/>
			<path class="st24" d="M247.1,1465.4c-0.6,0-1.2-0.2-1.6-0.7c-0.9-0.9-0.9-2.4,0-3.3c2.6-2.6,6.1-4,9.8-4c3.7,0,7.2,1.4,9.8,4
				c0.9,0.9,0.9,2.4,0,3.3c-0.9,0.9-2.4,0.9-3.3,0c-1.7-1.7-4-2.7-6.5-2.7c-2.5,0-4.8,1-6.5,2.7
				C248.3,1465.2,247.7,1465.4,247.1,1465.4z"/>
			<path class="st24" d="M258.7,1468.9c0,1.9-1.5,3.4-3.4,3.4c-1.9,0-3.4-1.5-3.4-3.4c0-1.9,1.5-3.4,3.4-3.4
				C257.2,1465.5,258.7,1467,258.7,1468.9z"/>
		</g>
	</g>
	<g id="device_b">
		<rect x="157.8" y="1050.5" class="st27" width="751.8" height="129.3"/>
		<rect x="243" y="1091" class="st19" width="212" height="40"/>
		<text transform="matrix(1 0 0 1 243 1120.1357)" class="st18 st23 st25">DEVICE B</text>
	</g>
</g>
<g id="Layer_10">
	<rect x="161.5" y="1017.2" class="st29" width="15.6" height="16.9"/>
	<rect x="177.1" y="1034.1" class="st29" width="15.6" height="16.9"/>
	<rect x="192.8" y="1051.1" class="st29" width="15.6" height="16.9"/>
	<rect x="239.7" y="1068" class="st29" width="15.6" height="16.9"/>
	<rect x="208.4" y="1068" class="st29" width="15.6" height="16.9"/>
	<rect x="161.5" y="983.3" class="st29" width="15.6" height="16.9"/>
	<rect x="177.1" y="966.4" class="st29" width="15.6" height="16.9"/>
	<rect x="192.8" y="949.4" class="st29" width="15.6" height="16.9"/>
	<rect x="208.4" y="932.5" class="st29" width="15.6" height="16.9"/>
	<rect x="177.1" y="932.5" class="st29" width="15.6" height="16.9"/>
	<rect x="271" y="932.5" class="st29" width="15.6" height="16.9"/>
	<rect x="302.2" y="932.5" class="st29" width="15.6" height="16.9"/>
	<rect x="302.2" y="1068" class="st29" width="15.6" height="16.9"/>
	<rect x="161.5" y="949.4" class="st29" width="15.6" height="16.9"/>
	<rect x="192.8" y="1017.2" class="st29" width="15.6" height="16.9"/>
	<rect x="177.1" y="1000.2" class="st29" width="15.6" height="16.9"/>
	<g>
		<rect x="208.4" y="1034.1" class="st29" width="15.6" height="16.9"/>
		<rect x="224.1" y="1051.1" class="st29" width="15.6" height="16.9"/>
		<rect x="239.7" y="1034.1" class="st29" width="15.6" height="16.9"/>
		<rect x="224.1" y="1017.2" class="st29" width="15.6" height="16.9"/>
	</g>
	<g>
		<rect x="192.8" y="983.3" class="st29" width="15.6" height="16.9"/>
		<rect x="208.4" y="1000.2" class="st29" width="15.6" height="16.9"/>
		<rect x="224.1" y="983.3" class="st29" width="15.6" height="16.9"/>
		<rect x="208.4" y="966.4" class="st29" width="15.6" height="16.9"/>
	</g>
	<g>
		<rect x="239.7" y="1000.2" class="st29" width="15.6" height="16.9"/>
		<rect x="255.3" y="1017.2" class="st29" width="15.6" height="16.9"/>
		<rect x="271" y="1000.2" class="st29" width="15.6" height="16.9"/>
		<rect x="255.3" y="983.3" class="st29" width="15.6" height="16.9"/>
	</g>
	<g>
		<rect x="255.3" y="1051.1" class="st29" width="15.6" height="16.9"/>
		<rect x="271" y="1068" class="st29" width="15.6" height="16.9"/>
		<rect x="286.6" y="1051.1" class="st29" width="15.6" height="16.9"/>
		<rect x="271" y="1034.1" class="st29" width="15.6" height="16.9"/>
	</g>
	<rect x="286.6" y="1017.2" class="st29" width="15.6" height="16.9"/>
	<rect x="302.2" y="1034.1" class="st29" width="15.6" height="16.9"/>
	<rect x="302.2" y="1000.2" class="st29" width="15.6" height="16.9"/>
	<g>
		<rect x="271" y="966.4" class="st29" width="15.6" height="16.9"/>
		<rect x="286.6" y="983.3" class="st29" width="15.6" height="16.9"/>
		<rect x="302.2" y="966.4" class="st29" width="15.6" height="16.9"/>
		<rect x="286.6" y="949.4" class="st29" width="15.6" height="16.9"/>
	</g>
	<g>
		<rect x="224.1" y="949.4" class="st29" width="15.6" height="16.9"/>
		<rect x="239.7" y="966.4" class="st29" width="15.6" height="16.9"/>
		<rect x="255.3" y="949.4" class="st29" width="15.6" height="16.9"/>
		<rect x="239.7" y="932.5" class="st29" width="15.6" height="16.9"/>
	</g>
	<g>
		<rect x="316.5" y="1017.2" class="st29" width="15.6" height="16.9"/>
		<rect x="332.1" y="1034.1" class="st29" width="15.6" height="16.9"/>
		<rect x="347.8" y="1051.1" class="st29" width="15.6" height="16.9"/>
		<rect x="394.7" y="1068" class="st29" width="15.6" height="16.9"/>
		<rect x="363.4" y="1068" class="st29" width="15.6" height="16.9"/>
		<rect x="332.1" y="1068" class="st29" width="15.6" height="16.9"/>
		<rect x="316.5" y="1051.1" class="st29" width="15.6" height="16.9"/>
		<rect x="316.5" y="983.3" class="st29" width="15.6" height="16.9"/>
		<rect x="332.1" y="966.4" class="st29" width="15.6" height="16.9"/>
		<rect x="347.8" y="949.4" class="st29" width="15.6" height="16.9"/>
		<rect x="363.4" y="932.5" class="st29" width="15.6" height="16.9"/>
		<rect x="332.1" y="932.5" class="st29" width="15.6" height="16.9"/>
		<rect x="425.9" y="932.5" class="st29" width="15.6" height="16.9"/>
		<rect x="457.2" y="932.5" class="st29" width="15.6" height="16.9"/>
		<rect x="457.2" y="1068" class="st29" width="15.6" height="16.9"/>
		<rect x="316.5" y="949.4" class="st29" width="15.6" height="16.9"/>
		<rect x="347.8" y="1017.2" class="st29" width="15.6" height="16.9"/>
		<rect x="332.1" y="1000.2" class="st29" width="15.6" height="16.9"/>
		<g>
			<rect x="363.4" y="1034.1" class="st29" width="15.6" height="16.9"/>
			<rect x="379" y="1051.1" class="st29" width="15.6" height="16.9"/>
			<rect x="394.7" y="1034.1" class="st29" width="15.6" height="16.9"/>
			<rect x="379" y="1017.2" class="st29" width="15.6" height="16.9"/>
		</g>
		<g>
			<rect x="347.8" y="983.3" class="st29" width="15.6" height="16.9"/>
			<rect x="363.4" y="1000.2" class="st29" width="15.6" height="16.9"/>
			<rect x="379" y="983.3" class="st29" width="15.6" height="16.9"/>
			<rect x="363.4" y="966.4" class="st29" width="15.6" height="16.9"/>
		</g>
		<g>
			<rect x="394.7" y="1000.2" class="st29" width="15.6" height="16.9"/>
			<rect x="410.3" y="1017.2" class="st29" width="15.6" height="16.9"/>
			<rect x="425.9" y="1000.2" class="st29" width="15.6" height="16.9"/>
			<rect x="410.3" y="983.3" class="st29" width="15.6" height="16.9"/>
		</g>
		<g>
			<rect x="410.3" y="1051.1" class="st29" width="15.6" height="16.9"/>
			<rect x="425.9" y="1068" class="st29" width="15.6" height="16.9"/>
			<rect x="441.6" y="1051.1" class="st29" width="15.6" height="16.9"/>
			<rect x="425.9" y="1034.1" class="st29" width="15.6" height="16.9"/>
		</g>
		<rect x="441.6" y="1017.2" class="st29" width="15.6" height="16.9"/>
		<rect x="457.2" y="1034.1" class="st29" width="15.6" height="16.9"/>
		<rect x="457.2" y="1000.2" class="st29" width="15.6" height="16.9"/>
		<g>
			<rect x="425.9" y="966.4" class="st29" width="15.6" height="16.9"/>
			<rect x="441.6" y="983.3" class="st29" width="15.6" height="16.9"/>
			<rect x="457.2" y="966.4" class="st29" width="15.6" height="16.9"/>
			<rect x="441.6" y="949.4" class="st29" width="15.6" height="16.9"/>
		</g>
		<g>
			<rect x="379" y="949.4" class="st29" width="15.6" height="16.9"/>
			<rect x="394.7" y="966.4" class="st29" width="15.6" height="16.9"/>
			<rect x="410.3" y="949.4" class="st29" width="15.6" height="16.9"/>
			<rect x="394.7" y="932.5" class="st29" width="15.6" height="16.9"/>
		</g>
	</g>
	<rect x="255.3" y="1084.9" class="st29" width="15.6" height="16.9"/>
	<rect x="286.6" y="1084.9" class="st29" width="15.6" height="16.9"/>
	<rect x="316.5" y="1084.9" class="st29" width="15.6" height="16.9"/>
	<rect x="347.8" y="1084.9" class="st29" width="15.6" height="16.9"/>
	<rect x="379" y="1084.9" class="st29" width="15.6" height="16.9"/>
	<rect x="410.3" y="1084.9" class="st29" width="15.6" height="16.9"/>
	<rect x="441.6" y="1084.9" class="st29" width="15.6" height="16.9"/>
	<rect x="271.7" y="1101.9" class="st29" width="15.6" height="16.9"/>
	<rect x="302.9" y="1101.9" class="st29" width="15.6" height="16.9"/>
	<rect x="287.3" y="1118.8" class="st29" width="15.6" height="16.9"/>
	<rect x="395.4" y="1237.4" class="st28" width="15.6" height="16.9"/>
	<rect x="364.1" y="1237.4" class="st29" width="15.6" height="16.9"/>
	<rect x="332.8" y="1135.8" class="st29" width="15.6" height="16.9"/>
	<rect x="348.5" y="1118.8" class="st29" width="15.6" height="16.9"/>
	<rect x="364.1" y="1101.9" class="st29" width="15.6" height="16.9"/>
	<rect x="332.8" y="1101.9" class="st29" width="15.6" height="16.9"/>
	<rect x="426.6" y="1101.9" class="st29" width="15.6" height="16.9"/>
	<rect x="457.9" y="1101.9" class="st29" width="15.6" height="16.9"/>
	<rect x="457.9" y="1237.4" class="st29" width="15.6" height="16.9"/>
	<rect x="317.2" y="1118.8" class="st29" width="15.6" height="16.9"/>
	<rect x="379.7" y="1220.5" class="st29" width="15.6" height="16.9"/>
	<rect x="395.4" y="1203.5" class="st29" width="15.6" height="16.9"/>
	<rect x="379.7" y="1186.6" class="st29" width="15.6" height="16.9"/>
	<g>
		<rect x="348.5" y="1152.7" class="st29" width="15.6" height="16.9"/>
		<rect x="364.1" y="1169.6" class="st29" width="15.6" height="16.9"/>
		<rect x="379.7" y="1152.7" class="st29" width="15.6" height="16.9"/>
		<rect x="364.1" y="1135.8" class="st29" width="15.6" height="16.9"/>
	</g>
	<rect x="395.4" y="1169.6" class="st29" width="15.6" height="16.9"/>
	<rect x="411" y="1186.6" class="st21" width="15.6" height="16.9"/>
	<rect x="426.6" y="1169.6" class="st21" width="15.6" height="16.9"/>
	<rect x="411" y="1152.7" class="st29" width="15.6" height="16.9"/>
	<rect x="411" y="1220.5" class="st29" width="15.6" height="16.9"/>
	<rect x="426.6" y="1237.4" class="st28" width="15.6" height="16.9"/>
	<rect x="442.3" y="1220.5" class="st29" width="15.6" height="16.9"/>
	<rect x="426.6" y="1203.5" class="st21" width="15.6" height="16.9"/>
	<rect x="442.3" y="1186.6" class="st21" width="15.6" height="16.9"/>
	<rect x="457.9" y="1203.5" class="st21" width="15.6" height="16.9"/>
	<rect x="457.9" y="1169.6" class="st21" width="15.6" height="16.9"/>
	<g>
		<rect x="426.6" y="1135.8" class="st29" width="15.6" height="16.9"/>
		<rect x="442.3" y="1152.7" class="st29" width="15.6" height="16.9"/>
		<rect x="457.9" y="1135.8" class="st29" width="15.6" height="16.9"/>
		<rect x="442.3" y="1118.8" class="st29" width="15.6" height="16.9"/>
	</g>
	<g>
		<rect x="379.7" y="1118.8" class="st29" width="15.6" height="16.9"/>
		<rect x="395.4" y="1135.8" class="st29" width="15.6" height="16.9"/>
		<rect x="411" y="1118.8" class="st29" width="15.6" height="16.9"/>
		<rect x="395.4" y="1101.9" class="st29" width="15.6" height="16.9"/>
	</g>
	<rect x="348.5" y="1254.3" class="st29" width="15.6" height="16.9"/>
	<rect x="379.7" y="1254.3" class="st28" width="15.6" height="16.9"/>
	<rect x="411" y="1254.3" class="st28" width="15.6" height="16.9"/>
	<rect x="442.3" y="1254.3" class="st28" width="15.6" height="16.9"/>
	<rect x="348.5" y="1288.2" class="st29" width="15.6" height="16.9"/>
	<rect x="364.1" y="1271.3" class="st28" width="15.6" height="16.9"/>
	<rect x="426.6" y="1271.3" class="st28" width="15.6" height="16.9"/>
	<rect x="457.9" y="1271.3" class="st28" width="15.6" height="16.9"/>
	<rect x="457.9" y="1406.8" class="st29" width="15.6" height="16.9"/>
	<rect x="395.4" y="1372.9" class="st21" width="15.6" height="16.9"/>
	<rect x="379.7" y="1356" class="st21" width="15.6" height="16.9"/>
	<rect x="364.1" y="1339" class="st21" width="15.6" height="16.9"/>
	<rect x="379.7" y="1322.1" class="st28" width="15.6" height="16.9"/>
	<rect x="364.1" y="1305.1" class="st28" width="15.6" height="16.9"/>
	<rect x="395.4" y="1339" class="st29" width="15.6" height="16.9"/>
	<rect x="411" y="1356" class="st21" width="15.6" height="16.9"/>
	<rect x="426.6" y="1339" class="st29" width="15.6" height="16.9"/>
	<rect x="411" y="1322.1" class="st28" width="15.6" height="16.9"/>
	<rect x="411" y="1389.8" class="st29" width="15.6" height="16.9"/>
	<rect x="426.6" y="1406.8" class="st29" width="15.6" height="16.9"/>
	<rect x="442.3" y="1389.8" class="st29" width="15.6" height="16.9"/>
	<rect x="426.6" y="1372.9" class="st21" width="15.6" height="16.9"/>
	<rect x="442.3" y="1356" class="st21" width="15.6" height="16.9"/>
	<rect x="457.9" y="1372.9" class="st21" width="15.6" height="16.9"/>
	<rect x="457.9" y="1339" class="st29" width="15.6" height="16.9"/>
	<rect x="426.6" y="1305.1" class="st28" width="15.6" height="16.9"/>
	<rect x="442.3" y="1322.1" class="st28" width="15.6" height="16.9"/>
	<rect x="457.9" y="1305.1" class="st28" width="15.6" height="16.9"/>
	<rect x="442.3" y="1288.2" class="st28" width="15.6" height="16.9"/>
	<g>
		<rect x="379.7" y="1288.2" class="st28" width="15.6" height="16.9"/>
		<rect x="395.4" y="1305.1" class="st28" width="15.6" height="16.9"/>
		<rect x="411" y="1288.2" class="st29" width="15.6" height="16.9"/>
		<rect x="395.4" y="1271.3" class="st29" width="15.6" height="16.9"/>
	</g>
	<rect x="442.3" y="1423.7" class="st29" width="15.6" height="16.9"/>
	<g>
		<g class="st17">
			<g>
				<rect x="472.8" y="1017.2" class="st29" width="15.6" height="16.9"/>
				<rect x="488.5" y="1034.1" class="st29" width="15.6" height="16.9"/>
				<rect x="504.1" y="1051.1" class="st29" width="15.6" height="16.9"/>
				<rect x="551" y="1068" class="st29" width="15.6" height="16.9"/>
				<rect x="519.8" y="1068" class="st29" width="15.6" height="16.9"/>
				<rect x="488.5" y="1068" class="st29" width="15.6" height="16.9"/>
				<rect x="472.8" y="1051.1" class="st29" width="15.6" height="16.9"/>
				<rect x="472.8" y="983.3" class="st29" width="15.6" height="16.9"/>
				<rect x="488.5" y="966.4" class="st29" width="15.6" height="16.9"/>
				<rect x="504.1" y="949.4" class="st29" width="15.6" height="16.9"/>
				<rect x="519.8" y="932.5" class="st29" width="15.6" height="16.9"/>
				<rect x="488.5" y="932.5" class="st29" width="15.6" height="16.9"/>
				<rect x="582.3" y="932.5" class="st29" width="15.6" height="16.9"/>
				<rect x="613.6" y="932.5" class="st29" width="15.6" height="16.9"/>
				<rect x="613.6" y="1068" class="st29" width="15.6" height="16.9"/>
				<rect x="472.8" y="949.4" class="st29" width="15.6" height="16.9"/>
				<rect x="504.1" y="1017.2" class="st29" width="15.6" height="16.9"/>
				<rect x="488.5" y="1000.2" class="st29" width="15.6" height="16.9"/>
				<g>
					<rect x="519.8" y="1034.1" class="st29" width="15.6" height="16.9"/>
					<rect x="535.4" y="1051.1" class="st29" width="15.6" height="16.9"/>
					<rect x="551" y="1034.1" class="st29" width="15.6" height="16.9"/>
					<rect x="535.4" y="1017.2" class="st29" width="15.6" height="16.9"/>
				</g>
				<g>
					<rect x="504.1" y="983.3" class="st29" width="15.6" height="16.9"/>
					<rect x="519.8" y="1000.2" class="st29" width="15.6" height="16.9"/>
					<rect x="535.4" y="983.3" class="st29" width="15.6" height="16.9"/>
					<rect x="519.8" y="966.4" class="st29" width="15.6" height="16.9"/>
				</g>
				<g>
					<rect x="551" y="1000.2" class="st29" width="15.6" height="16.9"/>
					<rect x="566.7" y="1017.2" class="st29" width="15.6" height="16.9"/>
					<rect x="582.3" y="1000.2" class="st29" width="15.6" height="16.9"/>
					<rect x="566.7" y="983.3" class="st29" width="15.6" height="16.9"/>
				</g>
				<g>
					<rect x="566.7" y="1051.1" class="st29" width="15.6" height="16.9"/>
					<rect x="582.3" y="1068" class="st29" width="15.6" height="16.9"/>
					<rect x="597.9" y="1051.1" class="st29" width="15.6" height="16.9"/>
					<rect x="582.3" y="1034.1" class="st29" width="15.6" height="16.9"/>
				</g>
				<rect x="597.9" y="1017.2" class="st29" width="15.6" height="16.9"/>
				<rect x="613.6" y="1034.1" class="st29" width="15.6" height="16.9"/>
				<rect x="613.6" y="1000.2" class="st29" width="15.6" height="16.9"/>
				<g>
					<rect x="582.3" y="966.4" class="st29" width="15.6" height="16.9"/>
					<rect x="597.9" y="983.3" class="st29" width="15.6" height="16.9"/>
					<rect x="613.6" y="966.4" class="st29" width="15.6" height="16.9"/>
					<rect x="597.9" y="949.4" class="st29" width="15.6" height="16.9"/>
				</g>
				<g>
					<rect x="535.4" y="949.4" class="st29" width="15.6" height="16.9"/>
					<rect x="551" y="966.4" class="st29" width="15.6" height="16.9"/>
					<rect x="566.7" y="949.4" class="st29" width="15.6" height="16.9"/>
					<rect x="551" y="932.5" class="st29" width="15.6" height="16.9"/>
				</g>
			</g>
			<g>
				<rect x="627.8" y="1017.2" class="st29" width="15.6" height="16.9"/>
				<rect x="643.5" y="1034.1" class="st29" width="15.6" height="16.9"/>
				<rect x="659.1" y="1051.1" class="st29" width="15.6" height="16.9"/>
				<rect x="706" y="1068" class="st29" width="15.6" height="16.9"/>
				<rect x="674.7" y="1068" class="st29" width="15.6" height="16.9"/>
				<rect x="643.5" y="1068" class="st29" width="15.6" height="16.9"/>
				<rect x="627.8" y="1051.1" class="st29" width="15.6" height="16.9"/>
				<rect x="627.8" y="983.3" class="st29" width="15.6" height="16.9"/>
				<rect x="643.5" y="966.4" class="st29" width="15.6" height="16.9"/>
				<rect x="659.1" y="949.4" class="st29" width="15.6" height="16.9"/>
				<rect x="674.7" y="932.5" class="st29" width="15.6" height="16.9"/>
				<rect x="643.5" y="932.5" class="st29" width="15.6" height="16.9"/>
				<rect x="737.3" y="932.5" class="st29" width="15.6" height="16.9"/>
				<rect x="768.6" y="932.5" class="st29" width="15.6" height="16.9"/>
				<rect x="768.6" y="1068" class="st29" width="15.6" height="16.9"/>
				<rect x="627.8" y="949.4" class="st29" width="15.6" height="16.9"/>
				<rect x="659.1" y="1017.2" class="st29" width="15.6" height="16.9"/>
				<rect x="643.5" y="1000.2" class="st29" width="15.6" height="16.9"/>
				<g>
					<rect x="674.7" y="1034.1" class="st29" width="15.6" height="16.9"/>
					<rect x="690.4" y="1051.1" class="st29" width="15.6" height="16.9"/>
					<rect x="706" y="1034.1" class="st29" width="15.6" height="16.9"/>
					<rect x="690.4" y="1017.2" class="st29" width="15.6" height="16.9"/>
				</g>
				<g>
					<rect x="659.1" y="983.3" class="st29" width="15.6" height="16.9"/>
					<rect x="674.7" y="1000.2" class="st29" width="15.6" height="16.9"/>
					<rect x="690.4" y="983.3" class="st29" width="15.6" height="16.9"/>
					<rect x="674.7" y="966.4" class="st29" width="15.6" height="16.9"/>
				</g>
				<g>
					<rect x="706" y="1000.2" class="st29" width="15.6" height="16.9"/>
					<rect x="721.7" y="1017.2" class="st29" width="15.6" height="16.9"/>
					<rect x="737.3" y="1000.2" class="st29" width="15.6" height="16.9"/>
					<rect x="721.7" y="983.3" class="st29" width="15.6" height="16.9"/>
				</g>
				<g>
					<rect x="721.7" y="1051.1" class="st29" width="15.6" height="16.9"/>
					<rect x="737.3" y="1068" class="st29" width="15.6" height="16.9"/>
					<rect x="752.9" y="1051.1" class="st29" width="15.6" height="16.9"/>
					<rect x="737.3" y="1034.1" class="st29" width="15.6" height="16.9"/>
				</g>
				<rect x="752.9" y="1017.2" class="st29" width="15.6" height="16.9"/>
				<rect x="768.6" y="1034.1" class="st29" width="15.6" height="16.9"/>
				<rect x="768.6" y="1000.2" class="st29" width="15.6" height="16.9"/>
				<g>
					<rect x="737.3" y="966.4" class="st29" width="15.6" height="16.9"/>
					<rect x="752.9" y="983.3" class="st29" width="15.6" height="16.9"/>
					<rect x="768.6" y="966.4" class="st29" width="15.6" height="16.9"/>
					<rect x="752.9" y="949.4" class="st29" width="15.6" height="16.9"/>
				</g>
				<g>
					<rect x="690.4" y="949.4" class="st29" width="15.6" height="16.9"/>
					<rect x="706" y="966.4" class="st29" width="15.6" height="16.9"/>
					<rect x="721.7" y="949.4" class="st29" width="15.6" height="16.9"/>
					<rect x="706" y="932.5" class="st29" width="15.6" height="16.9"/>
				</g>
			</g>
		</g>
		<rect x="504.1" y="1084.9" class="st29" width="15.6" height="16.9"/>
		<rect x="472.9" y="1084.9" class="st29" width="15.6" height="16.9"/>
		<rect x="566.7" y="1084.9" class="st29" width="15.6" height="16.9"/>
		<rect x="597.9" y="1084.9" class="st29" width="15.6" height="16.9"/>
		<rect x="627.8" y="1084.9" class="st29" width="15.6" height="16.9"/>
		<rect x="659.1" y="1084.9" class="st29" width="15.6" height="16.9"/>
		<rect x="690.4" y="1084.9" class="st29" width="15.6" height="16.9"/>
		<rect x="721.6" y="1084.9" class="st29" width="15.6" height="16.9"/>
		<rect x="752.9" y="1084.9" class="st29" width="15.6" height="16.9"/>
		<rect x="535.4" y="1084.9" class="st29" width="15.6" height="16.9"/>
	</g>
	<rect x="473.5" y="1186.6" class="st21" width="15.6" height="16.9"/>
	<rect x="489.2" y="1203.5" class="st21" width="15.6" height="16.9"/>
	<rect x="504.8" y="1220.5" class="st21" width="15.6" height="16.9"/>
	<rect x="551.7" y="1237.4" class="st29" width="15.6" height="16.9"/>
	<rect x="520.5" y="1237.4" class="st21" width="15.6" height="16.9"/>
	<rect x="489.2" y="1237.4" class="st21" width="15.6" height="16.9"/>
	<rect x="473.5" y="1220.5" class="st21" width="15.6" height="16.9"/>
	<rect x="473.5" y="1152.7" class="st29" width="15.6" height="16.9"/>
	<rect x="489.2" y="1135.8" class="st29" width="15.6" height="16.9"/>
	<rect x="504.8" y="1118.8" class="st29" width="15.6" height="16.9"/>
	<rect x="520.5" y="1101.9" class="st29" width="15.6" height="16.9"/>
	<rect x="489.2" y="1101.9" class="st29" width="15.6" height="16.9"/>
	<rect x="583" y="1101.9" class="st29" width="15.6" height="16.9"/>
	<rect x="614.3" y="1101.9" class="st29" width="15.6" height="16.9"/>
	<rect x="614.3" y="1237.4" class="st29" width="15.6" height="16.9"/>
	<rect x="473.5" y="1118.8" class="st29" width="15.6" height="16.9"/>
	<rect x="504.8" y="1186.6" class="st29" width="15.6" height="16.9"/>
	<rect x="489.2" y="1169.6" class="st29" width="15.6" height="16.9"/>
	<g>
		<rect x="520.5" y="1203.5" class="st29" width="15.6" height="16.9"/>
		<rect x="536.1" y="1220.5" class="st29" width="15.6" height="16.9"/>
		<rect x="551.7" y="1203.5" class="st29" width="15.6" height="16.9"/>
		<rect x="536.1" y="1186.6" class="st29" width="15.6" height="16.9"/>
	</g>
	<g>
		<rect x="504.8" y="1152.7" class="st29" width="15.6" height="16.9"/>
		<rect x="520.5" y="1169.6" class="st29" width="15.6" height="16.9"/>
		<rect x="536.1" y="1152.7" class="st29" width="15.6" height="16.9"/>
		<rect x="520.5" y="1135.8" class="st29" width="15.6" height="16.9"/>
	</g>
	<g>
		<rect x="551.7" y="1169.6" class="st29" width="15.6" height="16.9"/>
		<rect x="567.4" y="1186.6" class="st29" width="15.6" height="16.9"/>
		<rect x="583" y="1169.6" class="st29" width="15.6" height="16.9"/>
		<rect x="567.4" y="1152.7" class="st29" width="15.6" height="16.9"/>
	</g>
	<g>
		<rect x="567.4" y="1220.5" class="st29" width="15.6" height="16.9"/>
		<rect x="583" y="1237.4" class="st29" width="15.6" height="16.9"/>
		<rect x="598.6" y="1220.5" class="st29" width="15.6" height="16.9"/>
		<rect x="583" y="1203.5" class="st29" width="15.6" height="16.9"/>
	</g>
	<rect x="598.6" y="1186.6" class="st29" width="15.6" height="16.9"/>
	<rect x="614.3" y="1203.5" class="st29" width="15.6" height="16.9"/>
	<rect x="614.3" y="1169.6" class="st29" width="15.6" height="16.9"/>
	<g>
		<rect x="583" y="1135.8" class="st29" width="15.6" height="16.9"/>
		<rect x="598.6" y="1152.7" class="st29" width="15.6" height="16.9"/>
		<rect x="614.3" y="1135.8" class="st29" width="15.6" height="16.9"/>
		<rect x="598.6" y="1118.8" class="st29" width="15.6" height="16.9"/>
	</g>
	<g>
		<rect x="536.1" y="1118.8" class="st29" width="15.6" height="16.9"/>
		<rect x="551.7" y="1135.8" class="st29" width="15.6" height="16.9"/>
		<rect x="567.4" y="1118.8" class="st29" width="15.6" height="16.9"/>
		<rect x="551.7" y="1101.9" class="st29" width="15.6" height="16.9"/>
	</g>
	<g>
		<rect x="628.5" y="1186.6" class="st29" width="15.6" height="16.9"/>
		<rect x="644.2" y="1203.5" class="st29" width="15.6" height="16.9"/>
		<rect x="659.8" y="1220.5" class="st29" width="15.6" height="16.9"/>
		<rect x="706.7" y="1237.4" class="st29" width="15.6" height="16.9"/>
		<rect x="675.4" y="1237.4" class="st29" width="15.6" height="16.9"/>
		<rect x="644.2" y="1237.4" class="st29" width="15.6" height="16.9"/>
		<rect x="628.5" y="1220.5" class="st29" width="15.6" height="16.9"/>
		<rect x="628.5" y="1152.7" class="st29" width="15.6" height="16.9"/>
		<rect x="644.2" y="1135.8" class="st29" width="15.6" height="16.9"/>
		<rect x="659.8" y="1118.8" class="st29" width="15.6" height="16.9"/>
		<rect x="675.4" y="1101.9" class="st29" width="15.6" height="16.9"/>
		<rect x="644.2" y="1101.9" class="st29" width="15.6" height="16.9"/>
		<rect x="738" y="1101.9" class="st29" width="15.6" height="16.9"/>
		<rect x="769.3" y="1101.9" class="st29" width="15.6" height="16.9"/>
		<rect x="769.3" y="1237.4" class="st29" width="15.6" height="16.9"/>
		<rect x="628.5" y="1118.8" class="st29" width="15.6" height="16.9"/>
		<rect x="659.8" y="1186.6" class="st29" width="15.6" height="16.9"/>
		<rect x="644.2" y="1169.6" class="st29" width="15.6" height="16.9"/>
		<g>
			<rect x="675.4" y="1203.5" class="st29" width="15.6" height="16.9"/>
			<rect x="691.1" y="1220.5" class="st29" width="15.6" height="16.9"/>
			<rect x="706.7" y="1203.5" class="st29" width="15.6" height="16.9"/>
			<rect x="691.1" y="1186.6" class="st29" width="15.6" height="16.9"/>
		</g>
		<g>
			<rect x="659.8" y="1152.7" class="st29" width="15.6" height="16.9"/>
			<rect x="675.4" y="1169.6" class="st29" width="15.6" height="16.9"/>
			<rect x="691.1" y="1152.7" class="st29" width="15.6" height="16.9"/>
			<rect x="675.4" y="1135.8" class="st29" width="15.6" height="16.9"/>
		</g>
		<g>
			<rect x="706.7" y="1169.6" class="st29" width="15.6" height="16.9"/>
			<rect x="722.3" y="1186.6" class="st29" width="15.6" height="16.9"/>
			<rect x="738" y="1169.6" class="st29" width="15.6" height="16.9"/>
			<rect x="722.3" y="1152.7" class="st29" width="15.6" height="16.9"/>
		</g>
		<g>
			<rect x="722.3" y="1220.5" class="st29" width="15.6" height="16.9"/>
			<rect x="738" y="1237.4" class="st29" width="15.6" height="16.9"/>
			<rect x="753.6" y="1220.5" class="st29" width="15.6" height="16.9"/>
			<rect x="738" y="1203.5" class="st29" width="15.6" height="16.9"/>
		</g>
		<rect x="753.6" y="1186.6" class="st29" width="15.6" height="16.9"/>
		<rect x="769.3" y="1203.5" class="st29" width="15.6" height="16.9"/>
		<rect x="769.3" y="1169.6" class="st29" width="15.6" height="16.9"/>
		<g>
			<rect x="738" y="1135.8" class="st29" width="15.6" height="16.9"/>
			<rect x="753.6" y="1152.7" class="st29" width="15.6" height="16.9"/>
			<rect x="769.3" y="1135.8" class="st29" width="15.6" height="16.9"/>
			<rect x="753.6" y="1118.8" class="st29" width="15.6" height="16.9"/>
		</g>
		<g>
			<rect x="691.1" y="1118.8" class="st29" width="15.6" height="16.9"/>
			<rect x="706.7" y="1135.8" class="st29" width="15.6" height="16.9"/>
			<rect x="722.3" y="1118.8" class="st29" width="15.6" height="16.9"/>
			<rect x="706.7" y="1101.9" class="st29" width="15.6" height="16.9"/>
		</g>
	</g>
	<rect x="504.8" y="1252.2" class="st21" width="15.6" height="16.9"/>
	<rect x="473.5" y="1254.3" class="st29" width="15.6" height="16.9"/>
	<rect x="567.4" y="1254.3" class="st29" width="15.6" height="16.9"/>
	<rect x="598.6" y="1254.3" class="st29" width="15.6" height="16.9"/>
	<rect x="628.5" y="1254.3" class="st29" width="15.6" height="16.9"/>
	<rect x="659.8" y="1254.3" class="st29" width="15.6" height="16.9"/>
	<rect x="691.1" y="1254.3" class="st29" width="15.6" height="16.9"/>
	<rect x="722.3" y="1254.3" class="st29" width="15.6" height="16.9"/>
	<rect x="753.6" y="1254.3" class="st29" width="15.6" height="16.9"/>
	<rect x="536.1" y="1254.3" class="st29" width="15.6" height="16.9"/>
	<rect x="504.8" y="1423.7" class="st29" width="15.6" height="16.9"/>
	<rect x="473.5" y="1423.7" class="st29" width="15.6" height="16.9"/>
	<rect x="473.5" y="1356" class="st21" width="15.6" height="16.9"/>
	<rect x="489.2" y="1372.9" class="st29" width="15.6" height="16.9"/>
	<rect x="504.8" y="1389.8" class="st29" width="15.6" height="16.9"/>
	<rect x="551.7" y="1406.8" class="st29" width="15.6" height="16.9"/>
	<rect x="520.5" y="1406.8" class="st29" width="15.6" height="16.9"/>
	<rect x="489.2" y="1406.8" class="st29" width="15.6" height="16.9"/>
	<rect x="473.5" y="1389.8" class="st29" width="15.6" height="16.9"/>
	<rect x="473.5" y="1322.1" class="st29" width="15.6" height="16.9"/>
	<rect x="489.2" y="1305.1" class="st21" width="15.6" height="16.9"/>
	<rect x="504.8" y="1288.2" class="st21" width="15.6" height="16.9"/>
	<rect x="520.5" y="1271.3" class="st21" width="15.6" height="16.9"/>
	<rect x="489.2" y="1271.3" class="st21" width="15.6" height="16.9"/>
	<rect x="583" y="1271.3" class="st29" width="15.6" height="16.9"/>
	<rect x="614.3" y="1271.3" class="st29" width="15.6" height="16.9"/>
	<rect x="473.5" y="1288.2" class="st29" width="15.6" height="16.9"/>
	<rect x="504.8" y="1356" class="st29" width="15.6" height="16.9"/>
	<rect x="489.2" y="1339" class="st21" width="15.6" height="16.9"/>
	<g>
		<rect x="520.5" y="1372.9" class="st29" width="15.6" height="16.9"/>
		<rect x="536.1" y="1389.8" class="st29" width="15.6" height="16.9"/>
		<rect x="551.7" y="1372.9" class="st29" width="15.6" height="16.9"/>
		<rect x="536.1" y="1356" class="st29" width="15.6" height="16.9"/>
	</g>
	<rect x="504.8" y="1322.1" class="st21" width="15.6" height="16.9"/>
	<rect x="520.5" y="1339" class="st29" width="15.6" height="16.9"/>
	<rect x="536.1" y="1322.1" class="st29" width="15.6" height="16.9"/>
	<rect x="520.5" y="1305.1" class="st21" width="15.6" height="16.9"/>
	<g>
		<rect x="551.7" y="1339" class="st29" width="15.6" height="16.9"/>
		<rect x="567.4" y="1356" class="st29" width="15.6" height="16.9"/>
		<rect x="583" y="1339" class="st29" width="15.6" height="16.9"/>
		<rect x="567.4" y="1322.1" class="st29" width="15.6" height="16.9"/>
	</g>
	<g>
		<rect x="567.4" y="1389.8" class="st29" width="15.6" height="16.9"/>
		<rect x="583" y="1406.8" class="st29" width="15.6" height="16.9"/>
		<rect x="598.6" y="1389.8" class="st29" width="15.6" height="16.9"/>
		<rect x="583" y="1372.9" class="st29" width="15.6" height="16.9"/>
	</g>
	<rect x="598.6" y="1356" class="st29" width="15.6" height="16.9"/>
	<rect x="614.3" y="1372.9" class="st29" width="15.6" height="16.9"/>
	<rect x="614.3" y="1339" class="st29" width="15.6" height="16.9"/>
	<g>
		<rect x="583" y="1305.1" class="st29" width="15.6" height="16.9"/>
		<rect x="598.6" y="1322.1" class="st29" width="15.6" height="16.9"/>
		<rect x="614.3" y="1305.1" class="st29" width="15.6" height="16.9"/>
		<rect x="598.6" y="1288.2" class="st29" width="15.6" height="16.9"/>
	</g>
	<g>
		<rect x="536.1" y="1288.2" class="st29" width="15.6" height="16.9"/>
		<rect x="551.7" y="1305.1" class="st29" width="15.6" height="16.9"/>
		<rect x="567.4" y="1288.2" class="st29" width="15.6" height="16.9"/>
		<rect x="551.7" y="1271.3" class="st29" width="15.6" height="16.9"/>
	</g>
	<rect x="628.5" y="1356" class="st29" width="15.6" height="16.9"/>
	<rect x="706.7" y="1406.8" class="st29" width="15.6" height="16.9"/>
	<rect x="628.5" y="1322.1" class="st29" width="15.6" height="16.9"/>
	<rect x="644.2" y="1305.1" class="st29" width="15.6" height="16.9"/>
	<rect x="659.8" y="1288.2" class="st29" width="15.6" height="16.9"/>
	<rect x="675.4" y="1271.3" class="st29" width="15.6" height="16.9"/>
	<rect x="644.2" y="1271.3" class="st29" width="15.6" height="16.9"/>
	<rect x="738" y="1271.3" class="st29" width="15.6" height="16.9"/>
	<rect x="769.3" y="1271.3" class="st29" width="15.6" height="16.9"/>
	<rect x="769.3" y="1406.8" class="st29" width="15.6" height="16.9"/>
	<rect x="628.5" y="1288.2" class="st29" width="15.6" height="16.9"/>
	<rect x="659.8" y="1356" class="st29" width="15.6" height="16.9"/>
	<rect x="644.2" y="1339" class="st29" width="15.6" height="16.9"/>
	<g>
		<rect x="675.4" y="1372.9" class="st29" width="15.6" height="16.9"/>
		<rect x="691.1" y="1389.8" class="st29" width="15.6" height="16.9"/>
		<rect x="706.7" y="1372.9" class="st29" width="15.6" height="16.9"/>
		<rect x="691.1" y="1356" class="st29" width="15.6" height="16.9"/>
	</g>
	<g>
		<rect x="659.8" y="1322.1" class="st29" width="15.6" height="16.9"/>
		<rect x="675.4" y="1339" class="st29" width="15.6" height="16.9"/>
		<rect x="691.1" y="1322.1" class="st29" width="15.6" height="16.9"/>
		<rect x="675.4" y="1305.1" class="st29" width="15.6" height="16.9"/>
	</g>
	<g>
		<rect x="706.7" y="1339" class="st29" width="15.6" height="16.9"/>
		<rect x="722.3" y="1356" class="st29" width="15.6" height="16.9"/>
		<rect x="738" y="1339" class="st29" width="15.6" height="16.9"/>
		<rect x="722.3" y="1322.1" class="st29" width="15.6" height="16.9"/>
	</g>
	<g>
		<rect x="722.3" y="1389.8" class="st29" width="15.6" height="16.9"/>
		<rect x="738" y="1406.8" class="st29" width="15.6" height="16.9"/>
		<rect x="753.6" y="1389.8" class="st29" width="15.6" height="16.9"/>
		<rect x="738" y="1372.9" class="st29" width="15.6" height="16.9"/>
	</g>
	<rect x="753.6" y="1356" class="st29" width="15.6" height="16.9"/>
	<rect x="769.3" y="1372.9" class="st29" width="15.6" height="16.9"/>
	<rect x="769.3" y="1339" class="st29" width="15.6" height="16.9"/>
	<g>
		<rect x="738" y="1305.1" class="st29" width="15.6" height="16.9"/>
		<rect x="753.6" y="1322.1" class="st29" width="15.6" height="16.9"/>
		<rect x="769.3" y="1305.1" class="st29" width="15.6" height="16.9"/>
		<rect x="753.6" y="1288.2" class="st29" width="15.6" height="16.9"/>
	</g>
	<g>
		<rect x="691.1" y="1288.2" class="st29" width="15.6" height="16.9"/>
		<rect x="706.7" y="1305.1" class="st29" width="15.6" height="16.9"/>
		<rect x="722.3" y="1288.2" class="st29" width="15.6" height="16.9"/>
		<rect x="706.7" y="1271.3" class="st29" width="15.6" height="16.9"/>
	</g>
	<rect x="722.3" y="1423.7" class="st29" width="15.6" height="16.9"/>
	<rect x="753.6" y="1423.7" class="st29" width="15.6" height="16.9"/>
	<rect x="536.1" y="1423.7" class="st29" width="15.6" height="16.9"/>
	<rect x="785.1" y="1016.6" class="st29" width="15.6" height="16.9"/>
	<rect x="800.7" y="1033.5" class="st29" width="15.6" height="16.9"/>
	<rect x="816.4" y="1050.5" class="st29" width="15.6" height="16.9"/>
	<rect x="863.3" y="1067.4" class="st29" width="15.6" height="16.9"/>
	<rect x="832" y="1067.4" class="st29" width="15.6" height="16.9"/>
	<rect x="800.7" y="1067.4" class="st29" width="15.6" height="16.9"/>
	<rect x="785.1" y="1050.5" class="st29" width="15.6" height="16.9"/>
	<rect x="785.1" y="982.7" class="st29" width="15.6" height="16.9"/>
	<rect x="800.7" y="965.8" class="st29" width="15.6" height="16.9"/>
	<rect x="816.4" y="948.8" class="st29" width="15.6" height="16.9"/>
	<rect x="832" y="931.9" class="st29" width="15.6" height="16.9"/>
	<rect x="800.7" y="931.9" class="st29" width="15.6" height="16.9"/>
	<rect x="785.1" y="948.8" class="st29" width="15.6" height="16.9"/>
	<rect x="816.4" y="1016.6" class="st29" width="15.6" height="16.9"/>
	<rect x="800.7" y="999.6" class="st29" width="15.6" height="16.9"/>
	<g>
		<rect x="832" y="1033.5" class="st29" width="15.6" height="16.9"/>
		<rect x="847.6" y="1050.5" class="st29" width="15.6" height="16.9"/>
		<rect x="863.3" y="1033.5" class="st29" width="15.6" height="16.9"/>
		<rect x="847.6" y="1016.6" class="st29" width="15.6" height="16.9"/>
	</g>
	<g>
		<rect x="816.4" y="982.7" class="st29" width="15.6" height="16.9"/>
		<rect x="832" y="999.6" class="st29" width="15.6" height="16.9"/>
		<rect x="847.6" y="982.7" class="st29" width="15.6" height="16.9"/>
		<rect x="832" y="965.8" class="st29" width="15.6" height="16.9"/>
	</g>
	<g>
		<rect x="863.3" y="999.6" class="st29" width="15.6" height="16.9"/>
		<rect x="878.9" y="1016.6" class="st29" width="15.6" height="16.9"/>
		<rect x="894.5" y="999.6" class="st29" width="15.6" height="16.9"/>
		<rect x="878.9" y="982.7" class="st29" width="15.6" height="16.9"/>
	</g>
	<rect x="878.9" y="1050.5" class="st29" width="15.6" height="16.9"/>
	<rect x="894.5" y="1067.4" class="st29" width="15.6" height="16.9"/>
	<rect x="894.5" y="1033.5" class="st29" width="15.6" height="16.9"/>
	<rect x="894.5" y="965.8" class="st29" width="15.6" height="16.9"/>
	<rect x="847.6" y="948.8" class="st29" width="15.6" height="16.9"/>
	<rect x="863.3" y="965.8" class="st29" width="15.6" height="16.9"/>
	<rect x="878.9" y="948.8" class="st29" width="15.6" height="16.9"/>
	<rect x="863.3" y="931.9" class="st29" width="15.6" height="16.9"/>
	<rect x="816.4" y="1084.3" class="st29" width="15.6" height="16.9"/>
	<rect x="785.1" y="1084.3" class="st29" width="15.6" height="16.9"/>
	<rect x="878.9" y="1084.3" class="st29" width="15.6" height="16.9"/>
	<rect x="847.6" y="1084.3" class="st29" width="15.6" height="16.9"/>
	<rect x="785.8" y="1186" class="st29" width="15.6" height="16.9"/>
	<rect x="801.4" y="1202.9" class="st29" width="15.6" height="16.9"/>
	<rect x="817" y="1219.9" class="st29" width="15.6" height="16.9"/>
	<rect x="864" y="1236.8" class="st29" width="15.6" height="16.9"/>
	<rect x="832.7" y="1236.8" class="st29" width="15.6" height="16.9"/>
	<rect x="801.4" y="1236.8" class="st29" width="15.6" height="16.9"/>
	<rect x="785.8" y="1219.9" class="st29" width="15.6" height="16.9"/>
	<rect x="785.8" y="1152.1" class="st29" width="15.6" height="16.9"/>
	<rect x="801.4" y="1135.2" class="st29" width="15.6" height="16.9"/>
	<rect x="817" y="1118.2" class="st29" width="15.6" height="16.9"/>
	<rect x="832.7" y="1101.3" class="st29" width="15.6" height="16.9"/>
	<rect x="801.4" y="1101.3" class="st29" width="15.6" height="16.9"/>
	<rect x="895.2" y="1101.3" class="st29" width="15.6" height="16.9"/>
	<rect x="785.8" y="1118.2" class="st29" width="15.6" height="16.9"/>
	<rect x="817" y="1186" class="st29" width="15.6" height="16.9"/>
	<rect x="801.4" y="1169" class="st29" width="15.6" height="16.9"/>
	<g>
		<rect x="832.7" y="1202.9" class="st29" width="15.6" height="16.9"/>
		<rect x="848.3" y="1219.9" class="st29" width="15.6" height="16.9"/>
		<rect x="864" y="1202.9" class="st29" width="15.6" height="16.9"/>
		<rect x="848.3" y="1186" class="st29" width="15.6" height="16.9"/>
	</g>
	<g>
		<rect x="817" y="1152.1" class="st29" width="15.6" height="16.9"/>
		<rect x="832.7" y="1169" class="st29" width="15.6" height="16.9"/>
		<rect x="848.3" y="1152.1" class="st29" width="15.6" height="16.9"/>
		<rect x="832.7" y="1135.2" class="st29" width="15.6" height="16.9"/>
	</g>
	<g>
		<rect x="864" y="1169" class="st29" width="15.6" height="16.9"/>
		<rect x="879.6" y="1186" class="st29" width="15.6" height="16.9"/>
		<rect x="895.2" y="1169" class="st29" width="15.6" height="16.9"/>
		<rect x="879.6" y="1152.1" class="st29" width="15.6" height="16.9"/>
	</g>
	<rect x="879.6" y="1219.9" class="st29" width="15.6" height="16.9"/>
	<rect x="895.2" y="1236.8" class="st29" width="15.6" height="16.9"/>
	<rect x="895.2" y="1202.9" class="st29" width="15.6" height="16.9"/>
	<rect x="895.2" y="1135.2" class="st29" width="15.6" height="16.9"/>
	<g>
		<rect x="848.3" y="1118.2" class="st29" width="15.6" height="16.9"/>
		<rect x="864" y="1135.2" class="st29" width="15.6" height="16.9"/>
		<rect x="879.6" y="1118.2" class="st29" width="15.6" height="16.9"/>
		<rect x="864" y="1101.3" class="st29" width="15.6" height="16.9"/>
	</g>
	<rect x="817" y="1253.7" class="st29" width="15.6" height="16.9"/>
	<rect x="785.8" y="1253.7" class="st29" width="15.6" height="16.9"/>
	<rect x="879.6" y="1253.7" class="st29" width="15.6" height="16.9"/>
	<rect x="848.3" y="1253.7" class="st29" width="15.6" height="16.9"/>
	<rect x="785.8" y="1355.4" class="st29" width="15.6" height="16.9"/>
	<rect x="801.4" y="1372.3" class="st29" width="15.6" height="16.9"/>
	<rect x="817" y="1389.3" class="st29" width="15.6" height="16.9"/>
	<rect x="864" y="1406.2" class="st29" width="15.6" height="16.9"/>
	<rect x="832.7" y="1406.2" class="st29" width="15.6" height="16.9"/>
	<rect x="801.4" y="1406.2" class="st29" width="15.6" height="16.9"/>
	<rect x="785.8" y="1389.3" class="st29" width="15.6" height="16.9"/>
	<rect x="785.8" y="1321.5" class="st29" width="15.6" height="16.9"/>
	<rect x="801.4" y="1304.6" class="st29" width="15.6" height="16.9"/>
	<rect x="817" y="1287.6" class="st29" width="15.6" height="16.9"/>
	<rect x="832.7" y="1270.7" class="st29" width="15.6" height="16.9"/>
	<rect x="801.4" y="1270.7" class="st29" width="15.6" height="16.9"/>
	<rect x="895.2" y="1270.7" class="st29" width="15.6" height="16.9"/>
	<rect x="785.8" y="1287.6" class="st29" width="15.6" height="16.9"/>
	<rect x="817" y="1355.4" class="st29" width="15.6" height="16.9"/>
	<rect x="801.4" y="1338.4" class="st29" width="15.6" height="16.9"/>
	<g>
		<rect x="832.7" y="1372.3" class="st29" width="15.6" height="16.9"/>
		<rect x="848.3" y="1389.3" class="st29" width="15.6" height="16.9"/>
		<rect x="864" y="1372.3" class="st29" width="15.6" height="16.9"/>
		<rect x="848.3" y="1355.4" class="st29" width="15.6" height="16.9"/>
	</g>
	<g>
		<rect x="817" y="1321.5" class="st29" width="15.6" height="16.9"/>
		<rect x="832.7" y="1338.4" class="st29" width="15.6" height="16.9"/>
		<rect x="848.3" y="1321.5" class="st29" width="15.6" height="16.9"/>
		<rect x="832.7" y="1304.6" class="st29" width="15.6" height="16.9"/>
	</g>
	<g>
		<rect x="864" y="1338.4" class="st29" width="15.6" height="16.9"/>
		<rect x="879.6" y="1355.4" class="st29" width="15.6" height="16.9"/>
		<rect x="895.2" y="1338.4" class="st29" width="15.6" height="16.9"/>
		<rect x="879.6" y="1321.5" class="st29" width="15.6" height="16.9"/>
	</g>
	<rect x="879.6" y="1389.3" class="st29" width="15.6" height="16.9"/>
	<rect x="895.2" y="1406.2" class="st29" width="15.6" height="16.9"/>
	<rect x="895.2" y="1372.3" class="st29" width="15.6" height="16.9"/>
	<rect x="895.2" y="1304.6" class="st29" width="15.6" height="16.9"/>
	<g>
		<rect x="848.3" y="1287.6" class="st29" width="15.6" height="16.9"/>
		<rect x="864" y="1304.6" class="st29" width="15.6" height="16.9"/>
		<rect x="879.6" y="1287.6" class="st29" width="15.6" height="16.9"/>
		<rect x="864" y="1270.7" class="st29" width="15.6" height="16.9"/>
	</g>
	<rect x="817" y="1423.1" class="st29" width="15.6" height="16.9"/>
	<rect x="785.8" y="1423.1" class="st29" width="15.6" height="16.9"/>
	<rect x="879.6" y="1423.1" class="st29" width="15.6" height="16.9"/>
	<rect x="848.3" y="1423.1" class="st29" width="15.6" height="16.9"/>
	<rect x="739.6" y="1440.1" class="st29" width="15.6" height="16.9"/>
	<rect x="802.1" y="1440.1" class="st29" width="15.6" height="16.9"/>
	<rect x="833.4" y="1440.1" class="st29" width="15.6" height="16.9"/>
	<rect x="833.4" y="1507.8" class="st29" width="15.6" height="16.9"/>
	<g>
		<rect x="802.1" y="1474" class="st29" width="15.6" height="16.9"/>
		<rect x="817.7" y="1490.9" class="st29" width="15.6" height="16.9"/>
		<rect x="833.4" y="1474" class="st29" width="15.6" height="16.9"/>
		<rect x="817.7" y="1457" class="st29" width="15.6" height="16.9"/>
	</g>
	<rect x="755.2" y="1457" class="st29" width="15.6" height="16.9"/>
	<rect x="786.5" y="1457" class="st29" width="15.6" height="16.9"/>
	<rect x="770.8" y="1440.1" class="st29" width="15.6" height="16.9"/>
	<rect x="847.6" y="1490.9" class="st29" width="15.6" height="16.9"/>
	<rect x="863.3" y="1474" class="st29" width="15.6" height="16.9"/>
	<rect x="878.9" y="1457" class="st29" width="15.6" height="16.9"/>
	<rect x="894.5" y="1440.1" class="st29" width="15.6" height="16.9"/>
	<rect x="863.3" y="1440.1" class="st29" width="15.6" height="16.9"/>
	<rect x="847.6" y="1457" class="st29" width="15.6" height="16.9"/>
	<rect x="795.1" y="898.6" class="st29" width="15.6" height="16.9"/>
	<rect x="779.4" y="881.7" class="st29" width="15.6" height="16.9"/>
	<rect x="156.9" y="509" class="st29" width="15.6" height="16.9"/>
	<rect x="172.5" y="525.9" class="st29" width="15.6" height="16.9"/>
	<rect x="188.2" y="542.9" class="st29" width="15.6" height="16.9"/>
	<rect x="235.1" y="559.8" class="st29" width="15.6" height="16.9"/>
	<rect x="203.8" y="559.8" class="st29" width="15.6" height="16.9"/>
	<rect x="172.5" y="559.8" class="st29" width="15.6" height="16.9"/>
	<rect x="156.9" y="542.9" class="st29" width="15.6" height="16.9"/>
	<rect x="156.9" y="475.1" class="st29" width="15.6" height="16.9"/>
	<rect x="172.5" y="458.2" class="st29" width="15.6" height="16.9"/>
	<rect x="297.6" y="559.8" class="st29" width="15.6" height="16.9"/>
	<rect x="156.9" y="441.2" class="st29" width="15.6" height="16.9"/>
	<rect x="188.2" y="509" class="st29" width="15.6" height="16.9"/>
	<rect x="172.5" y="492" class="st29" width="15.6" height="16.9"/>
	<g>
		<rect x="203.8" y="525.9" class="st29" width="15.6" height="16.9"/>
		<rect x="219.4" y="542.9" class="st29" width="15.6" height="16.9"/>
		<rect x="235.1" y="525.9" class="st29" width="15.6" height="16.9"/>
		<rect x="219.4" y="509" class="st29" width="15.6" height="16.9"/>
	</g>
	<rect x="188.2" y="475.1" class="st29" width="15.6" height="16.9"/>
	<rect x="203.8" y="492" class="st29" width="15.6" height="16.9"/>
	<rect x="250.7" y="509" class="st29" width="15.6" height="16.9"/>
	<g>
		<rect x="250.7" y="542.9" class="st29" width="15.6" height="16.9"/>
		<rect x="266.3" y="559.8" class="st29" width="15.6" height="16.9"/>
		<rect x="282" y="542.9" class="st29" width="15.6" height="16.9"/>
		<rect x="266.3" y="525.9" class="st29" width="15.6" height="16.9"/>
	</g>
	<rect x="188.2" y="576.7" class="st29" width="15.6" height="16.9"/>
	<rect x="156.9" y="576.7" class="st29" width="15.6" height="16.9"/>
	<rect x="250.7" y="576.7" class="st29" width="15.6" height="16.9"/>
	<rect x="282" y="576.7" class="st29" width="15.6" height="16.9"/>
	<rect x="311.9" y="576.7" class="st29" width="15.6" height="16.9"/>
	<rect x="343.1" y="576.7" class="st29" width="15.6" height="16.9"/>
	<rect x="219.4" y="576.7" class="st29" width="15.6" height="16.9"/>
	<g>
		<rect x="157.6" y="678.4" class="st29" width="15.6" height="16.9"/>
		<rect x="173.2" y="695.3" class="st29" width="15.6" height="16.9"/>
		<rect x="188.9" y="712.3" class="st29" width="15.6" height="16.9"/>
		<rect x="235.8" y="729.2" class="st29" width="15.6" height="16.9"/>
		<rect x="204.5" y="729.2" class="st29" width="15.6" height="16.9"/>
		<rect x="173.2" y="729.2" class="st29" width="15.6" height="16.9"/>
		<rect x="157.6" y="712.3" class="st29" width="15.6" height="16.9"/>
		<rect x="157.6" y="644.5" class="st29" width="15.6" height="16.9"/>
		<rect x="173.2" y="627.6" class="st29" width="15.6" height="16.9"/>
		<rect x="188.9" y="610.6" class="st29" width="15.6" height="16.9"/>
		<rect x="204.5" y="593.7" class="st29" width="15.6" height="16.9"/>
		<rect x="173.2" y="593.7" class="st29" width="15.6" height="16.9"/>
		<rect x="267" y="593.7" class="st29" width="15.6" height="16.9"/>
		<rect x="298.3" y="593.7" class="st29" width="15.6" height="16.9"/>
		<rect x="298.3" y="729.2" class="st29" width="15.6" height="16.9"/>
		<rect x="157.6" y="610.6" class="st29" width="15.6" height="16.9"/>
		<rect x="188.9" y="678.4" class="st29" width="15.6" height="16.9"/>
		<rect x="173.2" y="661.4" class="st29" width="15.6" height="16.9"/>
		<g>
			<rect x="204.5" y="695.3" class="st29" width="15.6" height="16.9"/>
			<rect x="220.1" y="712.3" class="st29" width="15.6" height="16.9"/>
			<rect x="235.8" y="695.3" class="st29" width="15.6" height="16.9"/>
			<rect x="220.1" y="678.4" class="st29" width="15.6" height="16.9"/>
		</g>
		<g>
			<rect x="188.9" y="644.5" class="st29" width="15.6" height="16.9"/>
			<rect x="204.5" y="661.4" class="st29" width="15.6" height="16.9"/>
			<rect x="220.1" y="644.5" class="st29" width="15.6" height="16.9"/>
			<rect x="204.5" y="627.6" class="st29" width="15.6" height="16.9"/>
		</g>
		<g>
			<rect x="235.8" y="661.4" class="st29" width="15.6" height="16.9"/>
			<rect x="251.4" y="678.4" class="st29" width="15.6" height="16.9"/>
			<rect x="267" y="661.4" class="st29" width="15.6" height="16.9"/>
			<rect x="251.4" y="644.5" class="st29" width="15.6" height="16.9"/>
		</g>
		<g>
			<rect x="251.4" y="712.3" class="st29" width="15.6" height="16.9"/>
			<rect x="267" y="729.2" class="st29" width="15.6" height="16.9"/>
			<rect x="282.7" y="712.3" class="st29" width="15.6" height="16.9"/>
			<rect x="267" y="695.3" class="st29" width="15.6" height="16.9"/>
		</g>
		<rect x="282.7" y="678.4" class="st29" width="15.6" height="16.9"/>
		<rect x="298.3" y="695.3" class="st29" width="15.6" height="16.9"/>
		<rect x="298.3" y="661.4" class="st29" width="15.6" height="16.9"/>
		<g>
			<rect x="267" y="627.6" class="st29" width="15.6" height="16.9"/>
			<rect x="282.7" y="644.5" class="st29" width="15.6" height="16.9"/>
			<rect x="298.3" y="627.6" class="st29" width="15.6" height="16.9"/>
			<rect x="282.7" y="610.6" class="st29" width="15.6" height="16.9"/>
		</g>
		<g>
			<rect x="220.1" y="610.6" class="st29" width="15.6" height="16.9"/>
			<rect x="235.8" y="627.6" class="st29" width="15.6" height="16.9"/>
			<rect x="251.4" y="610.6" class="st29" width="15.6" height="16.9"/>
			<rect x="235.8" y="593.7" class="st29" width="15.6" height="16.9"/>
		</g>
	</g>
	<rect x="312.6" y="678.4" class="st29" width="15.6" height="16.9"/>
	<rect x="328.2" y="695.3" class="st29" width="15.6" height="16.9"/>
	<rect x="343.8" y="712.3" class="st29" width="15.6" height="16.9"/>
	<rect x="390.7" y="729.2" class="st29" width="15.6" height="16.9"/>
	<rect x="359.5" y="729.2" class="st29" width="15.6" height="16.9"/>
	<rect x="328.2" y="729.2" class="st29" width="15.6" height="16.9"/>
	<rect x="312.6" y="712.3" class="st29" width="15.6" height="16.9"/>
	<rect x="312.6" y="644.5" class="st29" width="15.6" height="16.9"/>
	<rect x="328.2" y="627.6" class="st29" width="15.6" height="16.9"/>
	<rect x="343.8" y="610.6" class="st29" width="15.6" height="16.9"/>
	<rect x="359.5" y="593.7" class="st29" width="15.6" height="16.9"/>
	<rect x="328.2" y="593.7" class="st29" width="15.6" height="16.9"/>
	<rect x="453.3" y="729.2" class="st29" width="15.6" height="16.9"/>
	<rect x="312.6" y="610.6" class="st29" width="15.6" height="16.9"/>
	<rect x="343.8" y="678.4" class="st29" width="15.6" height="16.9"/>
	<rect x="328.2" y="661.4" class="st29" width="15.6" height="16.9"/>
	<g>
		<rect x="359.5" y="695.3" class="st29" width="15.6" height="16.9"/>
		<rect x="375.1" y="712.3" class="st29" width="15.6" height="16.9"/>
		<rect x="390.7" y="695.3" class="st29" width="15.6" height="16.9"/>
		<rect x="375.1" y="678.4" class="st29" width="15.6" height="16.9"/>
	</g>
	<g>
		<rect x="343.8" y="644.5" class="st29" width="15.6" height="16.9"/>
		<rect x="359.5" y="661.4" class="st29" width="15.6" height="16.9"/>
		<rect x="375.1" y="644.5" class="st29" width="15.6" height="16.9"/>
		<rect x="359.5" y="627.6" class="st29" width="15.6" height="16.9"/>
	</g>
	<g>
		<rect x="390.7" y="661.4" class="st29" width="15.6" height="16.9"/>
		<rect x="406.4" y="678.4" class="st29" width="15.6" height="16.9"/>
		<rect x="422" y="661.4" class="st29" width="15.6" height="16.9"/>
		<rect x="406.4" y="644.5" class="st29" width="15.6" height="16.9"/>
	</g>
	<g>
		<rect x="406.4" y="712.3" class="st29" width="15.6" height="16.9"/>
		<rect x="422" y="729.2" class="st29" width="15.6" height="16.9"/>
		<rect x="437.7" y="712.3" class="st29" width="15.6" height="16.9"/>
		<rect x="422" y="695.3" class="st29" width="15.6" height="16.9"/>
	</g>
	<rect x="437.7" y="678.4" class="st29" width="15.6" height="16.9"/>
	<rect x="453.3" y="695.3" class="st29" width="15.6" height="16.9"/>
	<rect x="453.3" y="661.4" class="st29" width="15.6" height="16.9"/>
	<rect x="437.7" y="644.5" class="st29" width="15.6" height="16.9"/>
	<rect x="453.3" y="627.6" class="st29" width="15.6" height="16.9"/>
	<rect x="375.1" y="610.6" class="st29" width="15.6" height="16.9"/>
	<rect x="390.7" y="627.6" class="st29" width="15.6" height="16.9"/>
	<rect x="188.9" y="746.1" class="st29" width="15.6" height="16.9"/>
	<rect x="157.6" y="746.1" class="st29" width="15.6" height="16.9"/>
	<rect x="251.4" y="746.1" class="st29" width="15.6" height="16.9"/>
	<rect x="282.7" y="746.1" class="st29" width="15.6" height="16.9"/>
	<rect x="312.6" y="746.1" class="st29" width="15.6" height="16.9"/>
	<rect x="343.8" y="746.1" class="st29" width="15.6" height="16.9"/>
	<rect x="375.1" y="746.1" class="st29" width="15.6" height="16.9"/>
	<rect x="406.4" y="746.1" class="st29" width="15.6" height="16.9"/>
	<rect x="437.7" y="746.1" class="st29" width="15.6" height="16.9"/>
	<rect x="220.1" y="746.1" class="st29" width="15.6" height="16.9"/>
	<g>
		<g class="st17">
			<g>
				<rect x="157.6" y="847.8" class="st29" width="15.6" height="16.9"/>
				<rect x="173.2" y="864.7" class="st29" width="15.6" height="16.9"/>
				<rect x="188.9" y="881.7" class="st29" width="15.6" height="16.9"/>
				<rect x="235.8" y="898.6" class="st29" width="15.6" height="16.9"/>
				<rect x="204.5" y="898.6" class="st29" width="15.6" height="16.9"/>
				<rect x="173.2" y="898.6" class="st29" width="15.6" height="16.9"/>
				<rect x="157.6" y="881.7" class="st29" width="15.6" height="16.9"/>
				<rect x="157.6" y="813.9" class="st29" width="15.6" height="16.9"/>
				<rect x="173.2" y="797" class="st29" width="15.6" height="16.9"/>
				<rect x="188.9" y="780" class="st29" width="15.6" height="16.9"/>
				<rect x="204.5" y="763.1" class="st29" width="15.6" height="16.9"/>
				<rect x="173.2" y="763.1" class="st29" width="15.6" height="16.9"/>
				<rect x="267" y="763.1" class="st29" width="15.6" height="16.9"/>
				<rect x="298.3" y="763.1" class="st29" width="15.6" height="16.9"/>
				<rect x="298.3" y="898.6" class="st29" width="15.6" height="16.9"/>
				<rect x="157.6" y="780" class="st29" width="15.6" height="16.9"/>
				<rect x="188.9" y="847.8" class="st29" width="15.6" height="16.9"/>
				<rect x="173.2" y="830.8" class="st29" width="15.6" height="16.9"/>
				<g>
					<rect x="204.5" y="864.7" class="st29" width="15.6" height="16.9"/>
					<rect x="220.1" y="881.7" class="st29" width="15.6" height="16.9"/>
					<rect x="235.8" y="864.7" class="st29" width="15.6" height="16.9"/>
					<rect x="220.1" y="847.8" class="st29" width="15.6" height="16.9"/>
				</g>
				<g>
					<rect x="188.9" y="813.9" class="st29" width="15.6" height="16.9"/>
					<rect x="204.5" y="830.8" class="st29" width="15.6" height="16.9"/>
					<rect x="220.1" y="813.9" class="st29" width="15.6" height="16.9"/>
					<rect x="204.5" y="797" class="st29" width="15.6" height="16.9"/>
				</g>
				<g>
					<rect x="235.8" y="830.8" class="st29" width="15.6" height="16.9"/>
					<rect x="251.4" y="847.8" class="st29" width="15.6" height="16.9"/>
					<rect x="267" y="830.8" class="st29" width="15.6" height="16.9"/>
					<rect x="251.4" y="813.9" class="st29" width="15.6" height="16.9"/>
				</g>
				<g>
					<rect x="251.4" y="881.7" class="st29" width="15.6" height="16.9"/>
					<rect x="267" y="898.6" class="st29" width="15.6" height="16.9"/>
					<rect x="282.7" y="881.7" class="st29" width="15.6" height="16.9"/>
					<rect x="267" y="864.7" class="st29" width="15.6" height="16.9"/>
				</g>
				<rect x="282.7" y="847.8" class="st29" width="15.6" height="16.9"/>
				<rect x="298.3" y="864.7" class="st29" width="15.6" height="16.9"/>
				<rect x="298.3" y="830.8" class="st29" width="15.6" height="16.9"/>
				<g>
					<rect x="267" y="797" class="st29" width="15.6" height="16.9"/>
					<rect x="282.7" y="813.9" class="st29" width="15.6" height="16.9"/>
					<rect x="298.3" y="797" class="st29" width="15.6" height="16.9"/>
					<rect x="282.7" y="780" class="st29" width="15.6" height="16.9"/>
				</g>
				<g>
					<rect x="220.1" y="780" class="st29" width="15.6" height="16.9"/>
					<rect x="235.8" y="797" class="st29" width="15.6" height="16.9"/>
					<rect x="251.4" y="780" class="st29" width="15.6" height="16.9"/>
					<rect x="235.8" y="763.1" class="st29" width="15.6" height="16.9"/>
				</g>
			</g>
			<g>
				<rect x="312.6" y="847.8" class="st29" width="15.6" height="16.9"/>
				<rect x="328.2" y="864.7" class="st29" width="15.6" height="16.9"/>
				<rect x="343.8" y="881.7" class="st29" width="15.6" height="16.9"/>
				<rect x="390.7" y="898.6" class="st29" width="15.6" height="16.9"/>
				<rect x="359.5" y="898.6" class="st29" width="15.6" height="16.9"/>
				<rect x="328.2" y="898.6" class="st29" width="15.6" height="16.9"/>
				<rect x="312.6" y="881.7" class="st29" width="15.6" height="16.9"/>
				<rect x="312.6" y="813.9" class="st29" width="15.6" height="16.9"/>
				<rect x="328.2" y="797" class="st29" width="15.6" height="16.9"/>
				<rect x="343.8" y="780" class="st29" width="15.6" height="16.9"/>
				<rect x="359.5" y="763.1" class="st29" width="15.6" height="16.9"/>
				<rect x="328.2" y="763.1" class="st29" width="15.6" height="16.9"/>
				<rect x="422" y="763.1" class="st29" width="15.6" height="16.9"/>
				<rect x="453.3" y="763.1" class="st29" width="15.6" height="16.9"/>
				<rect x="453.3" y="898.6" class="st29" width="15.6" height="16.9"/>
				<rect x="312.6" y="780" class="st29" width="15.6" height="16.9"/>
				<rect x="343.8" y="847.8" class="st29" width="15.6" height="16.9"/>
				<rect x="328.2" y="830.8" class="st29" width="15.6" height="16.9"/>
				<g>
					<rect x="359.5" y="864.7" class="st29" width="15.6" height="16.9"/>
					<rect x="375.1" y="881.7" class="st29" width="15.6" height="16.9"/>
					<rect x="390.7" y="864.7" class="st29" width="15.6" height="16.9"/>
					<rect x="375.1" y="847.8" class="st29" width="15.6" height="16.9"/>
				</g>
				<g>
					<rect x="343.8" y="813.9" class="st29" width="15.6" height="16.9"/>
					<rect x="359.5" y="830.8" class="st29" width="15.6" height="16.9"/>
					<rect x="375.1" y="813.9" class="st29" width="15.6" height="16.9"/>
					<rect x="359.5" y="797" class="st29" width="15.6" height="16.9"/>
				</g>
				<g>
					<rect x="390.7" y="830.8" class="st29" width="15.6" height="16.9"/>
					<rect x="406.4" y="847.8" class="st29" width="15.6" height="16.9"/>
					<rect x="422" y="830.8" class="st29" width="15.6" height="16.9"/>
					<rect x="406.4" y="813.9" class="st29" width="15.6" height="16.9"/>
				</g>
				<g>
					<rect x="406.4" y="881.7" class="st29" width="15.6" height="16.9"/>
					<rect x="422" y="898.6" class="st29" width="15.6" height="16.9"/>
					<rect x="437.7" y="881.7" class="st29" width="15.6" height="16.9"/>
					<rect x="422" y="864.7" class="st29" width="15.6" height="16.9"/>
				</g>
				<rect x="437.7" y="847.8" class="st29" width="15.6" height="16.9"/>
				<rect x="453.3" y="864.7" class="st29" width="15.6" height="16.9"/>
				<rect x="453.3" y="830.8" class="st29" width="15.6" height="16.9"/>
				<g>
					<rect x="422" y="797" class="st29" width="15.6" height="16.9"/>
					<rect x="437.7" y="813.9" class="st29" width="15.6" height="16.9"/>
					<rect x="453.3" y="797" class="st29" width="15.6" height="16.9"/>
					<rect x="437.7" y="780" class="st29" width="15.6" height="16.9"/>
				</g>
				<g>
					<rect x="375.1" y="780" class="st29" width="15.6" height="16.9"/>
					<rect x="390.7" y="797" class="st29" width="15.6" height="16.9"/>
					<rect x="406.4" y="780" class="st29" width="15.6" height="16.9"/>
					<rect x="390.7" y="763.1" class="st29" width="15.6" height="16.9"/>
				</g>
			</g>
		</g>
		<rect x="188.9" y="915.5" class="st29" width="15.6" height="16.9"/>
		<rect x="157.6" y="915.5" class="st29" width="15.6" height="16.9"/>
		<rect x="251.4" y="915.5" class="st29" width="15.6" height="16.9"/>
		<rect x="282.7" y="915.5" class="st29" width="15.6" height="16.9"/>
		<rect x="312.6" y="915.5" class="st29" width="15.6" height="16.9"/>
		<rect x="343.8" y="915.5" class="st29" width="15.6" height="16.9"/>
		<rect x="375.1" y="915.5" class="st29" width="15.6" height="16.9"/>
		<rect x="406.4" y="915.5" class="st29" width="15.6" height="16.9"/>
		<rect x="437.7" y="915.5" class="st29" width="15.6" height="16.9"/>
		<rect x="220.1" y="915.5" class="st29" width="15.6" height="16.9"/>
	</g>
	<rect x="546.4" y="559.8" class="st29" width="15.6" height="16.9"/>
	<rect x="515.1" y="559.8" class="st29" width="15.6" height="16.9"/>
	<rect x="609" y="559.8" class="st29" width="15.6" height="16.9"/>
	<rect x="530.8" y="542.9" class="st29" width="15.6" height="16.9"/>
	<rect x="546.4" y="525.9" class="st29" width="15.6" height="16.9"/>
	<rect x="562.1" y="509" class="st29" width="15.6" height="16.9"/>
	<g>
		<rect x="562.1" y="542.9" class="st29" width="15.6" height="16.9"/>
		<rect x="577.7" y="559.8" class="st29" width="15.6" height="16.9"/>
		<rect x="593.3" y="542.9" class="st29" width="15.6" height="16.9"/>
		<rect x="577.7" y="525.9" class="st29" width="15.6" height="16.9"/>
	</g>
	<rect x="593.3" y="509" class="st29" width="15.6" height="16.9"/>
	<rect x="609" y="525.9" class="st29" width="15.6" height="16.9"/>
	<rect x="623.2" y="509" class="st29" width="15.6" height="16.9"/>
	<rect x="638.9" y="525.9" class="st29" width="15.6" height="16.9"/>
	<rect x="654.5" y="542.9" class="st29" width="15.6" height="16.9"/>
	<rect x="701.4" y="559.8" class="st29" width="15.6" height="16.9"/>
	<rect x="670.1" y="559.8" class="st29" width="15.6" height="16.9"/>
	<rect x="638.9" y="559.8" class="st29" width="15.6" height="16.9"/>
	<rect x="623.2" y="542.9" class="st29" width="15.6" height="16.9"/>
	<rect x="654.5" y="509" class="st29" width="15.6" height="16.9"/>
	<rect x="670.1" y="525.9" class="st29" width="15.6" height="16.9"/>
	<rect x="685.8" y="542.9" class="st29" width="15.6" height="16.9"/>
	<rect x="499.5" y="576.7" class="st29" width="15.6" height="16.9"/>
	<rect x="562.1" y="576.7" class="st29" width="15.6" height="16.9"/>
	<rect x="593.3" y="576.7" class="st29" width="15.6" height="16.9"/>
	<rect x="623.2" y="576.7" class="st29" width="15.6" height="16.9"/>
	<rect x="654.5" y="576.7" class="st29" width="15.6" height="16.9"/>
	<rect x="685.8" y="576.7" class="st29" width="15.6" height="16.9"/>
	<rect x="717" y="576.7" class="st29" width="15.6" height="16.9"/>
	<rect x="530.8" y="576.7" class="st29" width="15.6" height="16.9"/>
	<g>
		<rect x="468.9" y="678.4" class="st29" width="15.6" height="16.9"/>
		<rect x="484.6" y="695.3" class="st29" width="15.6" height="16.9"/>
		<rect x="500.2" y="712.3" class="st29" width="15.6" height="16.9"/>
		<rect x="547.1" y="729.2" class="st29" width="15.6" height="16.9"/>
		<rect x="515.8" y="729.2" class="st29" width="15.6" height="16.9"/>
		<rect x="484.6" y="729.2" class="st29" width="15.6" height="16.9"/>
		<rect x="468.9" y="712.3" class="st29" width="15.6" height="16.9"/>
		<rect x="468.9" y="644.5" class="st29" width="15.6" height="16.9"/>
		<rect x="484.6" y="627.6" class="st29" width="15.6" height="16.9"/>
		<rect x="500.2" y="610.6" class="st29" width="15.6" height="16.9"/>
		<rect x="515.8" y="593.7" class="st29" width="15.6" height="16.9"/>
		<rect x="484.6" y="593.7" class="st29" width="15.6" height="16.9"/>
		<rect x="578.4" y="593.7" class="st29" width="15.6" height="16.9"/>
		<rect x="609.7" y="593.7" class="st29" width="15.6" height="16.9"/>
		<rect x="609.7" y="729.2" class="st29" width="15.6" height="16.9"/>
		<rect x="468.9" y="610.6" class="st29" width="15.6" height="16.9"/>
		<rect x="500.2" y="678.4" class="st29" width="15.6" height="16.9"/>
		<rect x="484.6" y="661.4" class="st29" width="15.6" height="16.9"/>
		<g>
			<rect x="515.8" y="695.3" class="st29" width="15.6" height="16.9"/>
			<rect x="531.5" y="712.3" class="st29" width="15.6" height="16.9"/>
			<rect x="547.1" y="695.3" class="st29" width="15.6" height="16.9"/>
			<rect x="531.5" y="678.4" class="st29" width="15.6" height="16.9"/>
		</g>
		<g>
			<rect x="500.2" y="644.5" class="st29" width="15.6" height="16.9"/>
			<rect x="515.8" y="661.4" class="st29" width="15.6" height="16.9"/>
			<rect x="531.5" y="644.5" class="st29" width="15.6" height="16.9"/>
			<rect x="515.8" y="627.6" class="st29" width="15.6" height="16.9"/>
		</g>
		<g>
			<rect x="547.1" y="661.4" class="st29" width="15.6" height="16.9"/>
			<rect x="562.7" y="678.4" class="st29" width="15.6" height="16.9"/>
			<rect x="578.4" y="661.4" class="st29" width="15.6" height="16.9"/>
			<rect x="562.7" y="644.5" class="st29" width="15.6" height="16.9"/>
		</g>
		<g>
			<rect x="562.7" y="712.3" class="st29" width="15.6" height="16.9"/>
			<rect x="578.4" y="729.2" class="st29" width="15.6" height="16.9"/>
			<rect x="594" y="712.3" class="st29" width="15.6" height="16.9"/>
			<rect x="578.4" y="695.3" class="st29" width="15.6" height="16.9"/>
		</g>
		<rect x="594" y="678.4" class="st29" width="15.6" height="16.9"/>
		<rect x="609.7" y="695.3" class="st29" width="15.6" height="16.9"/>
		<rect x="609.7" y="661.4" class="st29" width="15.6" height="16.9"/>
		<g>
			<rect x="578.4" y="627.6" class="st29" width="15.6" height="16.9"/>
			<rect x="594" y="644.5" class="st29" width="15.6" height="16.9"/>
			<rect x="609.7" y="627.6" class="st29" width="15.6" height="16.9"/>
			<rect x="594" y="610.6" class="st29" width="15.6" height="16.9"/>
		</g>
		<g>
			<rect x="531.5" y="610.6" class="st29" width="15.6" height="16.9"/>
			<rect x="547.1" y="627.6" class="st29" width="15.6" height="16.9"/>
			<rect x="562.7" y="610.6" class="st29" width="15.6" height="16.9"/>
			<rect x="547.1" y="593.7" class="st29" width="15.6" height="16.9"/>
		</g>
	</g>
	<rect x="623.9" y="678.4" class="st29" width="15.6" height="16.9"/>
	<rect x="639.5" y="695.3" class="st29" width="15.6" height="16.9"/>
	<rect x="655.2" y="712.3" class="st29" width="15.6" height="16.9"/>
	<rect x="702.1" y="729.2" class="st29" width="15.6" height="16.9"/>
	<rect x="670.8" y="729.2" class="st29" width="15.6" height="16.9"/>
	<rect x="639.5" y="729.2" class="st29" width="15.6" height="16.9"/>
	<rect x="623.9" y="712.3" class="st29" width="15.6" height="16.9"/>
	<rect x="623.9" y="644.5" class="st29" width="15.6" height="16.9"/>
	<rect x="639.5" y="627.6" class="st29" width="15.6" height="16.9"/>
	<rect x="655.2" y="610.6" class="st29" width="15.6" height="16.9"/>
	<rect x="670.8" y="593.7" class="st29" width="15.6" height="16.9"/>
	<rect x="639.5" y="593.7" class="st29" width="15.6" height="16.9"/>
	<rect x="733.4" y="593.7" class="st29" width="15.6" height="16.9"/>
	<rect x="623.9" y="610.6" class="st29" width="15.6" height="16.9"/>
	<rect x="655.2" y="678.4" class="st29" width="15.6" height="16.9"/>
	<rect x="639.5" y="661.4" class="st29" width="15.6" height="16.9"/>
	<g>
		<rect x="670.8" y="695.3" class="st29" width="15.6" height="16.9"/>
		<rect x="686.5" y="712.3" class="st29" width="15.6" height="16.9"/>
		<rect x="702.1" y="695.3" class="st29" width="15.6" height="16.9"/>
		<rect x="686.5" y="678.4" class="st29" width="15.6" height="16.9"/>
	</g>
	<g>
		<rect x="655.2" y="644.5" class="st29" width="15.6" height="16.9"/>
		<rect x="670.8" y="661.4" class="st29" width="15.6" height="16.9"/>
		<rect x="686.5" y="644.5" class="st29" width="15.6" height="16.9"/>
		<rect x="670.8" y="627.6" class="st29" width="15.6" height="16.9"/>
	</g>
	<g>
		<rect x="702.1" y="661.4" class="st29" width="15.6" height="16.9"/>
		<rect x="717.7" y="678.4" class="st29" width="15.6" height="16.9"/>
		<rect x="733.4" y="661.4" class="st29" width="15.6" height="16.9"/>
		<rect x="717.7" y="644.5" class="st29" width="15.6" height="16.9"/>
	</g>
	<rect x="717.7" y="712.3" class="st29" width="15.6" height="16.9"/>
	<rect x="733.4" y="695.3" class="st29" width="15.6" height="16.9"/>
	<rect x="749" y="678.4" class="st29" width="15.6" height="16.9"/>
	<rect x="733.4" y="627.6" class="st29" width="15.6" height="16.9"/>
	<rect x="749" y="644.5" class="st29" width="15.6" height="16.9"/>
	<g>
		<rect x="686.5" y="610.6" class="st29" width="15.6" height="16.9"/>
		<rect x="702.1" y="627.6" class="st29" width="15.6" height="16.9"/>
		<rect x="717.7" y="610.6" class="st29" width="15.6" height="16.9"/>
		<rect x="702.1" y="593.7" class="st29" width="15.6" height="16.9"/>
	</g>
	<rect x="500.2" y="746.1" class="st29" width="15.6" height="16.9"/>
	<rect x="468.9" y="746.1" class="st29" width="15.6" height="16.9"/>
	<rect x="562.7" y="746.1" class="st29" width="15.6" height="16.9"/>
	<rect x="594" y="746.1" class="st29" width="15.6" height="16.9"/>
	<rect x="623.9" y="746.1" class="st29" width="15.6" height="16.9"/>
	<rect x="655.2" y="746.1" class="st29" width="15.6" height="16.9"/>
	<rect x="686.5" y="746.1" class="st29" width="15.6" height="16.9"/>
	<rect x="531.5" y="746.1" class="st29" width="15.6" height="16.9"/>
	<g>
		<rect x="468.9" y="847.8" class="st29" width="15.6" height="16.9"/>
		<rect x="484.6" y="864.7" class="st29" width="15.6" height="16.9"/>
		<rect x="500.2" y="881.7" class="st29" width="15.6" height="16.9"/>
		<rect x="547.1" y="898.6" class="st29" width="15.6" height="16.9"/>
		<rect x="515.8" y="898.6" class="st29" width="15.6" height="16.9"/>
		<rect x="484.6" y="898.6" class="st29" width="15.6" height="16.9"/>
		<rect x="468.9" y="881.7" class="st29" width="15.6" height="16.9"/>
		<rect x="468.9" y="813.9" class="st29" width="15.6" height="16.9"/>
		<rect x="484.6" y="797" class="st29" width="15.6" height="16.9"/>
		<rect x="500.2" y="780" class="st29" width="15.6" height="16.9"/>
		<rect x="515.8" y="763.1" class="st29" width="15.6" height="16.9"/>
		<rect x="484.6" y="763.1" class="st29" width="15.6" height="16.9"/>
		<rect x="578.4" y="763.1" class="st29" width="15.6" height="16.9"/>
		<rect x="609.7" y="763.1" class="st29" width="15.6" height="16.9"/>
		<rect x="609.7" y="898.6" class="st29" width="15.6" height="16.9"/>
		<rect x="468.9" y="780" class="st29" width="15.6" height="16.9"/>
		<rect x="500.2" y="847.8" class="st29" width="15.6" height="16.9"/>
		<rect x="484.6" y="830.8" class="st29" width="15.6" height="16.9"/>
		<g>
			<rect x="515.8" y="864.7" class="st29" width="15.6" height="16.9"/>
			<rect x="531.5" y="881.7" class="st29" width="15.6" height="16.9"/>
			<rect x="547.1" y="864.7" class="st29" width="15.6" height="16.9"/>
			<rect x="531.5" y="847.8" class="st29" width="15.6" height="16.9"/>
		</g>
		<g>
			<rect x="500.2" y="813.9" class="st29" width="15.6" height="16.9"/>
			<rect x="515.8" y="830.8" class="st29" width="15.6" height="16.9"/>
			<rect x="531.5" y="813.9" class="st29" width="15.6" height="16.9"/>
			<rect x="515.8" y="797" class="st29" width="15.6" height="16.9"/>
		</g>
		<g>
			<rect x="547.1" y="830.8" class="st29" width="15.6" height="16.9"/>
			<rect x="562.7" y="847.8" class="st29" width="15.6" height="16.9"/>
			<rect x="578.4" y="830.8" class="st29" width="15.6" height="16.9"/>
			<rect x="562.7" y="813.9" class="st29" width="15.6" height="16.9"/>
		</g>
		<g>
			<rect x="562.7" y="881.7" class="st29" width="15.6" height="16.9"/>
			<rect x="578.4" y="898.6" class="st29" width="15.6" height="16.9"/>
			<rect x="594" y="881.7" class="st29" width="15.6" height="16.9"/>
			<rect x="578.4" y="864.7" class="st29" width="15.6" height="16.9"/>
		</g>
		<rect x="594" y="847.8" class="st29" width="15.6" height="16.9"/>
		<rect x="609.7" y="864.7" class="st29" width="15.6" height="16.9"/>
		<rect x="609.7" y="830.8" class="st29" width="15.6" height="16.9"/>
		<g>
			<rect x="578.4" y="797" class="st29" width="15.6" height="16.9"/>
			<rect x="594" y="813.9" class="st29" width="15.6" height="16.9"/>
			<rect x="609.7" y="797" class="st29" width="15.6" height="16.9"/>
			<rect x="594" y="780" class="st29" width="15.6" height="16.9"/>
		</g>
		<g>
			<rect x="531.5" y="780" class="st29" width="15.6" height="16.9"/>
			<rect x="547.1" y="797" class="st29" width="15.6" height="16.9"/>
			<rect x="562.7" y="780" class="st29" width="15.6" height="16.9"/>
			<rect x="547.1" y="763.1" class="st29" width="15.6" height="16.9"/>
		</g>
	</g>
	<rect x="623.9" y="847.8" class="st29" width="15.6" height="16.9"/>
	<rect x="639.5" y="864.7" class="st29" width="15.6" height="16.9"/>
	<rect x="655.2" y="881.7" class="st29" width="15.6" height="16.9"/>
	<rect x="702.1" y="898.6" class="st29" width="15.6" height="16.9"/>
	<rect x="670.8" y="898.6" class="st29" width="15.6" height="16.9"/>
	<rect x="639.5" y="898.6" class="st29" width="15.6" height="16.9"/>
	<rect x="623.9" y="881.7" class="st29" width="15.6" height="16.9"/>
	<rect x="623.9" y="813.9" class="st29" width="15.6" height="16.9"/>
	<rect x="639.5" y="797" class="st29" width="15.6" height="16.9"/>
	<rect x="655.2" y="780" class="st29" width="15.6" height="16.9"/>
	<rect x="670.8" y="763.1" class="st29" width="15.6" height="16.9"/>
	<rect x="639.5" y="763.1" class="st29" width="15.6" height="16.9"/>
	<rect x="764.6" y="898.6" class="st29" width="15.6" height="16.9"/>
	<rect x="623.9" y="780" class="st29" width="15.6" height="16.9"/>
	<rect x="655.2" y="847.8" class="st29" width="15.6" height="16.9"/>
	<rect x="639.5" y="830.8" class="st29" width="15.6" height="16.9"/>
	<g>
		<rect x="670.8" y="864.7" class="st29" width="15.6" height="16.9"/>
		<rect x="686.5" y="881.7" class="st29" width="15.6" height="16.9"/>
		<rect x="702.1" y="864.7" class="st29" width="15.6" height="16.9"/>
		<rect x="686.5" y="847.8" class="st29" width="15.6" height="16.9"/>
	</g>
	<g>
		<rect x="655.2" y="813.9" class="st29" width="15.6" height="16.9"/>
		<rect x="670.8" y="830.8" class="st29" width="15.6" height="16.9"/>
		<rect x="686.5" y="813.9" class="st29" width="15.6" height="16.9"/>
		<rect x="670.8" y="797" class="st29" width="15.6" height="16.9"/>
	</g>
	<rect x="702.1" y="830.8" class="st29" width="15.6" height="16.9"/>
	<rect x="717.7" y="847.8" class="st29" width="15.6" height="16.9"/>
	<g>
		<rect x="717.7" y="881.7" class="st29" width="15.6" height="16.9"/>
		<rect x="733.4" y="898.6" class="st29" width="15.6" height="16.9"/>
		<rect x="749" y="881.7" class="st29" width="15.6" height="16.9"/>
		<rect x="733.4" y="864.7" class="st29" width="15.6" height="16.9"/>
	</g>
	<rect x="749" y="847.8" class="st29" width="15.6" height="16.9"/>
	<rect x="764.6" y="864.7" class="st29" width="15.6" height="16.9"/>
	<rect x="500.2" y="915.5" class="st29" width="15.6" height="16.9"/>
	<rect x="468.9" y="915.5" class="st29" width="15.6" height="16.9"/>
	<rect x="562.7" y="915.5" class="st29" width="15.6" height="16.9"/>
	<rect x="594" y="915.5" class="st29" width="15.6" height="16.9"/>
	<rect x="623.9" y="915.5" class="st29" width="15.6" height="16.9"/>
	<rect x="655.2" y="915.5" class="st29" width="15.6" height="16.9"/>
	<rect x="686.5" y="915.5" class="st29" width="15.6" height="16.9"/>
	<rect x="717.7" y="915.5" class="st29" width="15.6" height="16.9"/>
	<rect x="749" y="915.5" class="st29" width="15.6" height="16.9"/>
	<rect x="531.5" y="915.5" class="st29" width="15.6" height="16.9"/>
	<rect x="810.7" y="915.5" class="st29" width="15.6" height="16.9"/>
	<rect x="779.4" y="915.5" class="st29" width="15.6" height="16.9"/>
	<circle class="st9" cx="416.6" cy="1288.2" r="18.8"/>
	<g>
		<path class="st19" d="M394.9,1124.8l-8.1,11.4l-19.8-14.1l8.1-11.4l3.4,2.4l-5.1,7.2l4.3,3.1l4.8-6.7l3.4,2.4l-4.8,6.7l5.1,3.6
			l5.1-7.2L394.9,1124.8z"/>
		<path class="st19" d="M410.3,1103.1l-3.8,5.3l-21.1-2l-0.1,0.1c2.8,1.7,4.7,3,5.8,3.8l9.3,6.6l-2.7,3.8l-19.8-14.1l3.8-5.3
			l20.9,1.9l0.1-0.1c-2.7-1.7-4.5-2.9-5.6-3.7l-9.4-6.7l2.7-3.8L410.3,1103.1z"/>
		<path class="st19" d="M419.2,1090.5l-3,4.2l-16.3-11.6l-3.8,5.4l-3.5-2.5l10.6-14.9l3.5,2.5l-3.8,5.4L419.2,1090.5z"/>
		<path class="st19" d="M420.6,1072.5l7.6,5.4l-3,4.2l-19.8-14.1l4.1-5.8c1.9-2.7,3.8-4.3,5.7-4.9c1.9-0.6,3.8-0.2,5.8,1.2
			c1.2,0.8,2,1.9,2.4,3.2c0.5,1.3,0.5,2.7,0.2,4.2c6.6,0.2,10.8,0.3,12.8,0.3l-3.3,4.7l-10.9-0.7L420.6,1072.5z M417.2,1070.1l1-1.4
			c0.9-1.3,1.4-2.5,1.4-3.4s-0.5-1.8-1.4-2.4c-0.9-0.7-1.8-0.8-2.7-0.5c-0.9,0.4-1.8,1.2-2.7,2.6l-0.9,1.3L417.2,1070.1z"/>
		<path class="st19" d="M430.9,1049.3l-5.2-9.9l3.2-4.5l7.4,15.1l7.7,5.5l-3,4.2l-7.6-5.4l-16.9-2.1l3.2-4.5L430.9,1049.3z"/>
	</g>
	<text transform="matrix(0.545 -0.8385 0.8385 0.545 556.7842 856.624)" class="st19 st2 st26">KITCHEN</text>
	<g>
		<path class="st19" d="M165.7,580.4l4.4-6.1c2-2.8,3.9-4.5,5.6-5.2c1.7-0.7,3.4-0.4,5.2,0.9c1.2,0.9,1.9,1.8,2.3,2.9
			c0.4,1.1,0.3,2.2-0.2,3.2l0.1,0.1c1.2-1,2.4-1.6,3.5-1.6c1.2,0,2.4,0.5,3.6,1.4c1.8,1.3,2.7,3,2.8,5c0.1,2-0.7,4.1-2.3,6.4
			l-5.3,7.3L165.7,580.4z M176.5,581.9l1.8-2.4c0.8-1.1,1.2-2.1,1.3-2.8c0-0.8-0.4-1.4-1.2-2c-0.8-0.5-1.5-0.7-2.2-0.4
			c-0.7,0.3-1.5,1.1-2.4,2.3l-1.6,2.2L176.5,581.9z M179.8,584.3l5.1,3.7l2-2.7c0.8-1.1,1.2-2.2,1.2-3c0-0.9-0.5-1.6-1.4-2.3
			c-1.6-1.2-3.3-0.6-5,1.7L179.8,584.3z"/>
		<path class="st19" d="M207.5,564.1l-5.7-2l-5.2,7.2l3.6,4.8l-3.3,4.5l-14.7-21.3l3.7-5.1l24.8,7.4L207.5,564.1z M197.6,560.6
			c-5.2-1.8-8.1-2.8-8.8-3c-0.7-0.2-1.2-0.4-1.6-0.6c0.9,1.1,3.1,4,6.7,8.7L197.6,560.6z"/>
		<path class="st19" d="M218.1,549.6l-3,4.2L198.9,542l-3.9,5.3l-3.5-2.5l10.8-14.8l3.5,2.5l-3.9,5.3L218.1,549.6z"/>
		<path class="st19" d="M235.8,525.2l-3,4.1l-8.5-6.2l-5.7,7.8l8.5,6.2l-3,4.2L204.5,527l3-4.2l7.7,5.6l5.7-7.8l-7.7-5.6l3-4.1
			L235.8,525.2z"/>
	</g>
	<g>
		<path class="st19" d="M270.3,580.5l-3.2,4.9l-12.5-4.1c-0.4-0.1-1.3-0.5-2.7-1c-1.4-0.5-2.2-0.9-2.7-1.1c0.5,0.4,1.2,1,2.2,2
			c1,0.9,1.7,1.6,2,2l8.9,9.6l-3.2,4.9l-23.8-7.9l2.7-4.3l12.8,4.6c2.3,0.9,4.3,1.7,6,2.4c-0.5-0.4-1.2-1.1-2.2-2
			c-1-0.9-1.7-1.7-2.2-2.2L243,578l2.6-4.1l13.3,4.4c0.6,0.2,1.5,0.5,2.7,1c1.2,0.5,2.2,0.9,3,1.3c-0.7-0.6-1.5-1.3-2.4-2.2
			s-1.7-1.7-2.3-2.3l-9.5-9.8l2.7-4.3L270.3,580.5z"/>
		<path class="st19" d="M263.7,553c-1,1.6-1.2,3.3-0.6,5c0.7,1.7,2.1,3.2,4.3,4.6c4.6,2.9,7.9,2.7,10.1-0.7c0.9-1.4,1.7-3.4,2.3-5.9
			l3.6,2.3c-0.4,2.1-1.2,4.2-2.6,6.3c-1.9,3-4.3,4.7-7.1,5.1c-2.8,0.4-5.9-0.5-9.3-2.6c-2.1-1.4-3.7-2.9-4.8-4.7
			c-1.1-1.8-1.6-3.7-1.5-5.7c0.1-2,0.7-4,2-5.9c1.3-2,3-3.7,5.3-5.1l2.6,3.7c-0.9,0.5-1.7,1.1-2.4,1.7
			C264.8,551.6,264.2,552.3,263.7,553z"/>
	</g>
</g>
<g id="Layer_11">
	<g id="security_mode_menu">
		<rect x="360.6" y="446.7" class="st19" width="506" height="587.4"/>
		<rect x="361.3" y="447.8" class="st28" width="504.5" height="129.3"/>
		<line class="st18" x1="376.3" y1="682.4" x2="849.9" y2="682.4"/>
		<text transform="matrix(1 0 0 1 461.1094 649.0566)" class="st25 st6 st26">Privacy</text>
		<line class="st30" x1="376.3" y1="775.8" x2="849.9" y2="775.8"/>
		<text transform="matrix(1 0 0 1 459.041 743.9995)" class="st25 st6 st26">Comfortable</text>
		<line class="st30" x1="376.3" y1="874.8" x2="850.2" y2="874.8"/>
		<text transform="matrix(1 0 0 1 460.0762 838.3848)" class="st25 st6 st26">Sleep</text>
		<path class="st31" d="M831,645.6c0,1.6-1,2.8-2.1,2.8h-70.6c-1.2,0-2.1-1.3-2.1-2.8V635c0-1.6,1-2.8,2.1-2.8h70.6
			c1.2,0,2.1,1.3,2.1,2.8V645.6z"/>
		<circle class="st31" cx="762.7" cy="639.2" r="19.2"/>
		<path class="st31" d="M831,739c0,1.6-1,2.8-2.1,2.8h-70.6c-1.2,0-2.1-1.3-2.1-2.8v-10.7c0-1.6,1-2.8,2.1-2.8h70.6
			c1.2,0,2.1,1.3,2.1,2.8V739z"/>
		<circle class="st31" cx="762.7" cy="732.6" r="19.2"/>
		<path class="st31" d="M831,838c0,1.6-1,2.8-2.1,2.8h-70.6c-1.2,0-2.1-1.3-2.1-2.8v-10.7c0-1.6,1-2.8,2.1-2.8h70.6
			c1.2,0,2.1,1.3,2.1,2.8V838z"/>
		<circle class="st31" cx="762.7" cy="831.6" r="19.2"/>
		<path class="st3" d="M617.6,904.8c-25.8,0-46.7,20.9-46.7,46.6c0,25.8,20.9,46.7,46.7,46.7c25.8,0,46.6-20.9,46.6-46.7
			C664.2,925.6,643.3,904.8,617.6,904.8z M635.2,958.7h-10.3V969c0,4.3-3.3,7.8-7.3,7.8s-7.3-3.5-7.3-7.8v-10.3H600
			c-4.3,0-7.8-3.3-7.8-7.3s3.5-7.3,7.8-7.3h10.3v-10.3c0-4.3,3.3-7.8,7.3-7.8s7.3,3.5,7.3,7.8v10.3h10.3c4.3,0,7.8,3.3,7.8,7.3
			C643,955.4,639.5,958.7,635.2,958.7z"/>
		<rect x="413.8" y="491" class="st20" width="275.9" height="39.9"/>
		<text transform="matrix(1 0 0 1 413.7588 520.1143)" class="st19 st24 st26">SECURITY MODE</text>
		<path class="st19" d="M755.6,446.7c8.4,17.7,26.4,29.9,47.3,29.9s38.9-12.2,47.3-29.9H755.6z"/>
		<g>
			<path class="st25" d="M390.9,633.6c0.2,2.8,0.8,6,1.9,9.3h37.7c1.2-3.3,1.7-6.4,1.9-9.3H390.9z"/>
			<path class="st25" d="M432,624.4c-0.1-0.5-0.6-0.9-1.3-0.9c-2.6,0-6.4-0.4-10.7-1.8
				c-3.3-1.1-5.8-2.6-7.5-3.8c-0.2-0.2-0.5-0.3-0.9-0.3s-0.6,0.1-0.9,0.3c-1.8,1.2-4.3,2.7-7.5,3.8c-4.2,1.4-8,1.8-10.7,1.8
				c-0.6,0-1.2,0.4-1.3,0.9c-0.8,4.7-2.4,19.2,8.9,30.8c3.3,3.4,7,5.8,10.3,7.4c0.3,0.2,0.7,0.3,1.1,0.3s0.8-0.1,1.1-0.3
				c3.2-1.6,6.9-4,10.3-7.4C434.4,643.6,432.8,629.1,432,624.4L432,624.4z M421,653.7c-2.6,2.6-5.7,4.9-9.3,6.8
				c-3.6-1.8-6.7-4.1-9.3-6.8c-9.6-9.8-9.3-22.2-8.5-28c3.6-0.2,7.1-0.8,10.4-2c2.6-0.9,5.1-2.1,7.4-3.6c2.3,1.5,4.7,2.7,7.4,3.6
				c3.3,1.1,6.8,1.8,10.4,2C430.3,631.5,430.7,643.8,421,653.7L421,653.7z"/>
		</g>
		<g>
			<path class="st25" d="M430.8,723.6H389c0,4.3,0.7,9.9,3.3,15.4h35.1C430.1,733.5,430.8,728,430.8,723.6z"/>
			<path class="st25" d="M430.2,717.5c-0.1-0.5-0.6-0.9-1.3-0.9c-2.6,0-6.4-0.4-10.7-1.8
				c-3.3-1.1-5.8-2.6-7.5-3.8c-0.2-0.2-0.5-0.3-0.9-0.3c-0.3,0-0.6,0.1-0.9,0.3c-1.8,1.2-4.3,2.7-7.5,3.8c-4.2,1.4-8,1.8-10.7,1.8
				c-0.6,0-1.2,0.4-1.3,0.9c-0.8,4.7-2.4,19.2,8.9,30.8c3.3,3.4,7,5.8,10.3,7.4c0.3,0.2,0.7,0.3,1.1,0.3c0.4,0,0.8-0.1,1.1-0.3
				c3.2-1.6,6.9-4,10.3-7.4C432.6,736.8,431,722.2,430.2,717.5L430.2,717.5z M419.2,746.8c-2.6,2.6-5.7,4.9-9.3,6.8
				c-3.6-1.8-6.7-4.1-9.3-6.8c-9.6-9.8-9.3-22.2-8.5-28c3.6-0.2,7.1-0.8,10.4-2c2.6-0.9,5.1-2.1,7.4-3.6c2.3,1.5,4.7,2.7,7.4,3.6
				c3.3,1.1,6.8,1.8,10.4,2C428.5,724.6,428.9,737,419.2,746.8L419.2,746.8z"/>
		</g>
		<path class="st25" d="M432,816.8c-0.1-0.5-0.6-0.9-1.3-0.9c-2.6,0-6.4-0.4-10.7-1.8c-3.3-1.1-5.8-2.6-7.5-3.8
			c-0.2-0.2-0.5-0.3-0.9-0.3c-0.3,0-0.6,0.1-0.9,0.3c-1.8,1.2-4.3,2.7-7.5,3.8c-4.2,1.4-8,1.8-10.7,1.8c-0.6,0-1.2,0.4-1.3,0.9
			c-0.8,4.7-2.4,19.2,8.9,30.8c3.3,3.4,7,5.8,10.3,7.4c0.3,0.2,0.7,0.3,1.1,0.3c0.4,0,0.8-0.1,1.1-0.3c3.2-1.6,6.9-4,10.3-7.4
			C434.4,836.1,432.9,821.5,432,816.8L432,816.8z"/>
	</g>
	<g id="security_mode_button" >
		<path class="st28" d="M802.9,377.3c-26.2,0.2-47.2,21.4-47,47.3c0.2,25.7,21.2,46.7,47,46.7h0.3c12.5-0.1,24.3-5,33.1-14
			c8.8-9,13.7-20.8,13.6-33.3C849.7,398.2,828.7,377.3,802.9,377.3z"/>
		<path class="st19" d="M825.7,403.1h-5.2c-1.3-3.1-4.3-5.4-7.8-5.4c-3.5,0-6.7,2.3-7.8,5.4h-25c-1.7,0-3,1.4-3,3c0,1.7,1.4,3,3,3
			h24.9c1.3,3.1,4.3,5.4,7.8,5.4s6.7-2.3,7.8-5.4h5.2c1.7,0,3-1.4,3-3C828.8,404.4,827.4,403.1,825.7,403.1z M812.6,408.9
			c-1.6,0-2.8-1.3-2.8-2.8c0-1.6,1.3-2.8,2.8-2.8s2.8,1.3,2.8,2.8C815.4,407.6,814.2,408.9,812.6,408.9z"/>
		<path class="st19" d="M825.7,421.2h-22.3c-1.3-3.1-4.3-5.4-7.8-5.4c-3.6,0-6.7,2.3-7.8,5.4h-7.8c-1.7,0-3,1.4-3,3c0,1.7,1.4,3,3,3
			h7.7c1.3,3.1,4.3,5.4,7.8,5.4s6.7-2.3,7.8-5.4h22.3c1.7,0,3-1.4,3-3C828.8,422.6,827.4,421.2,825.7,421.2z M795.5,427.1
			c-1.6,0-2.8-1.3-2.8-2.8s1.3-2.8,2.8-2.8c1.6,0,2.8,1.3,2.8,2.8S797,427.1,795.5,427.1z"/>
		<path class="st19" d="M820.2,434c-3.6,0-6.7,2.3-7.8,5.4h-32.5c-1.7,0-3,1.4-3,3s1.4,3,3,3h32.4c1.3,3.1,4.3,5.3,7.8,5.3
			c4.7,0,8.5-3.8,8.5-8.5C828.6,437.8,824.8,434,820.2,434z M820.2,445.2c-1.6,0-2.8-1.3-2.8-2.8s1.3-2.8,2.8-2.8
			c1.6,0,2.8,1.3,2.8,2.8C822.9,444,821.7,445.2,820.2,445.2z"/>
	</g>
</g>
</svg>