<svg version="1.1" id="alarmLockScreen" xmlns="http://www.w3.org/2000/svg" xmlns:xlink="http://www.w3.org/1999/xlink" x="0px" y="0px" width="375px" height="664.69px" viewBox="157 336 752 1332" style="enable-background:new 0 0 1080 1920;" xml:space="preserve">
<style type="text/css">
    <![CDATA[
        #alarmLockScreen .st0{fill:#7A4A8A;}
        #alarmLockScreen .st1{fill:#101113;}
        #alarmLockScreen .st2{fill:#E73114;}
        #alarmLockScreen .st3{opacity:0.98;}
        #alarmLockScreen .st4{fill:#1D1D1B;}
        #alarmLockScreen .st5{fill:#F08A4D;}
        #alarmLockScreen .st6{fill:#F4A164;}
        #alarmLockScreen .st7{fill:#27345D;}
        #alarmLockScreen .st8{fill:#F6F6F6;}
        #alarmLockScreen .st9{fill:#F8F8F8;}
        #alarmLockScreen .st10{clip-path:url(#SVGID_2_);}
        #alarmLockScreen .st11{clip-path:url(#SVGID_6_);}
        #alarmLockScreen .st12{opacity:0.1;}
        #alarmLockScreen .st13{opacity:0.5;}
        #alarmLockScreen .st14{opacity:0.6;}
        #alarmLockScreen .st15{opacity:0.9;}
        #alarmLockScreen .st16{fill:none;stroke:#000000;stroke-miterlimit:10;}
        #alarmLockScreen .st17{fill:#FFFFFF;}
        #alarmLockScreen .st18{fill:none;}
        #alarmLockScreen .st19{opacity:0.5;fill:#3D4C9A;}
        #alarmLockScreen .st20{fill:#9FA0A0;}
        #alarmLockScreen .st21{fill:none;stroke:#FFFFFF;stroke-width:0.25;stroke-miterlimit:10;}
        #alarmLockScreen .st22{font-family: 'Arial';font-size: 34px;}
        #alarmLockScreen .st23{fill:#040000;}
        #alarmLockScreen .st24{font-size:30;}
        #alarmLockScreen .st25{fill:#070405;}
        #alarmLockScreen .st26{fill:#3D4C9A;}
        #alarmLockScreen .st27{opacity:0.1;fill:#FFFFFF;}
        #alarmLockScreen .st28{fill:none;stroke:#040000;stroke-miterlimit:10;}
        #alarmLockScreen .st29{fill:#FFFFFF;stroke:#000000;stroke-width:3;stroke-miterlimit:10;}
        #alarmLockScreen .st30{fill:none;stroke:#FFFFFF;stroke-width:3;stroke-miterlimit:10;}
    ]]>
</style>
<g id="Layer_1">
	
		<image style="overflow:visible;" width="1009" height="1799" xlink:href="lockscreen.jpg"  transform="matrix(0.7472 0 0 0.7365 156.9541 283.2075)">
	</image>
	<g>
		<path class="st17" d="M187.9,310.7c0,3.7-3,6.7-6.7,6.7c-3.7,0-6.7-3-6.7-6.7c0-3.7,3-6.7,6.7-6.7
			C184.9,304,187.9,307,187.9,310.7"/>
		<path class="st17" d="M204.9,310.7c0,3.7-3,6.7-6.7,6.7c-3.7,0-6.7-3-6.7-6.7c0-3.7,3-6.7,6.7-6.7
			C201.9,304,204.9,307,204.9,310.7"/>
		<path class="st17" d="M221.9,310.7c0,3.7-3,6.7-6.7,6.7c-3.7,0-6.7-3-6.7-6.7c0-3.7,3-6.7,6.7-6.7
			C218.9,304,221.9,307,221.9,310.7"/>
		<path class="st17" d="M238.9,310.7c0,3.7-3,6.7-6.7,6.7c-3.7,0-6.7-3-6.7-6.7c0-3.7,3-6.7,6.7-6.7
			C235.9,304,238.9,307,238.9,310.7"/>
		<path class="st17" d="M255.9,310.7c0,3.7-3,6.7-6.7,6.7c-3.7,0-6.7-3-6.7-6.7c0-3.7,3-6.7,6.7-6.7
			C252.9,304,255.9,307,255.9,310.7"/>
		<path class="st17" d="M262.5,303.8c2.1-1.9,4.5-3.4,7.1-4.3c2.6-1,5.2-1.4,7.9-1.4c2.7,0,5.3,0.5,7.9,1.4c2.6,1,4.9,2.4,7.1,4.3
			c0.2,0.2,0.3,0.5,0.3,0.8c0,0.3-0.1,0.6-0.3,0.8l-1.6,1.6c-0.2,0.2-0.5,0.3-0.8,0.3c-0.3,0-0.6-0.1-0.8-0.3
			c-1.7-1.5-3.6-2.6-5.6-3.4c-2-0.8-4.1-1.1-6.3-1.1c-2.1,0-4.2,0.4-6.3,1.1c-2.1,0.8-3.9,1.9-5.6,3.4c-0.2,0.2-0.5,0.3-0.8,0.3
			c-0.3,0-0.5-0.1-0.8-0.3l-1.6-1.6c-0.2-0.2-0.3-0.5-0.3-0.8C262.1,304.3,262.2,304,262.5,303.8L262.5,303.8z M267.7,308.9
			c1.4-1.2,2.9-2.1,4.6-2.7c1.7-0.6,3.4-0.9,5.2-0.9c1.8,0,3.5,0.3,5.2,0.9c1.7,0.6,3.2,1.5,4.6,2.7c0.3,0.2,0.4,0.5,0.4,0.8
			c0,0.3-0.1,0.6-0.3,0.8l-1.6,1.6c-0.2,0.2-0.4,0.3-0.7,0.3c-0.3,0-0.5-0.1-0.8-0.3c-1-0.8-2-1.4-3.2-1.8c-1.2-0.4-2.3-0.6-3.5-0.6
			c-1.2,0-2.4,0.2-3.5,0.6c-1.2,0.4-2.2,1-3.2,1.8c-0.2,0.2-0.5,0.3-0.8,0.2c-0.3,0-0.5-0.1-0.7-0.3l-1.6-1.6
			c-0.2-0.2-0.3-0.5-0.3-0.8C267.3,309.4,267.4,309.2,267.7,308.9C267.6,308.9,267.6,308.9,267.7,308.9
			C267.6,308.9,267.6,308.9,267.7,308.9 M275.1,313.3c0.3-0.3,0.7-0.6,1.1-0.7c0.4-0.2,0.8-0.2,1.3-0.2c0.4,0,0.9,0.1,1.3,0.2
			c0.4,0.2,0.8,0.4,1.1,0.7c0.3,0.3,0.6,0.7,0.7,1.1c0.2,0.4,0.3,0.8,0.2,1.3c0,0.4-0.1,0.8-0.2,1.3c-0.2,0.4-0.4,0.8-0.7,1.1
			c-0.3,0.3-0.7,0.6-1.1,0.7c-0.4,0.2-0.8,0.3-1.3,0.3c-0.4,0-0.8-0.1-1.3-0.2c-0.4-0.2-0.8-0.4-1.1-0.8c-0.3-0.3-0.6-0.7-0.7-1.1
			c-0.2-0.4-0.2-0.8-0.2-1.3c0-0.4,0.1-0.9,0.2-1.3C274.5,314,274.8,313.6,275.1,313.3"/>
		<path class="st17" d="M762.8,319.2V306H758v-1.8c0.6,0,1.2,0,1.8-0.1c0.6-0.1,1.1-0.3,1.6-0.5c0.5-0.3,0.9-0.6,1.2-1.1
			c0.3-0.5,0.6-1,0.7-1.7h1.7v18.5H762.8z"/>
		<path class="st17" d="M771.3,308c0-0.7,0.1-1.4,0.3-2.1c0.1-0.7,0.3-1.4,0.6-2c0.3-0.6,0.6-1.2,1.1-1.6c0.5-0.5,1-0.8,1.7-1.1
			c0.7-0.3,1.5-0.4,2.5-0.4c1,0,1.8,0.1,2.5,0.4c0.7,0.3,1.3,0.7,1.7,1.1s0.8,1,1.1,1.6c0.3,0.6,0.5,1.3,0.6,2
			c0.1,0.7,0.2,1.4,0.3,2.1c0,0.7,0.1,1.4,0.1,2.1c0,0.7,0,1.4-0.1,2.1c0,0.7-0.1,1.4-0.3,2.1c-0.1,0.7-0.3,1.4-0.6,2
			c-0.3,0.6-0.6,1.2-1.1,1.6s-1,0.8-1.7,1.1c-0.7,0.3-1.5,0.4-2.5,0.4c-1,0-1.8-0.1-2.5-0.4c-0.7-0.3-1.3-0.6-1.7-1.1
			c-0.5-0.5-0.8-1-1.1-1.6c-0.3-0.6-0.5-1.3-0.6-2c-0.1-0.7-0.2-1.4-0.3-2.1c0-0.7-0.1-1.4-0.1-2.1
			C771.3,309.5,771.3,308.7,771.3,308 M773.7,312.4c0,0.9,0.2,1.7,0.4,2.4s0.6,1.4,1.1,1.9c0.5,0.5,1.3,0.8,2.2,0.8
			c0.9,0,1.7-0.3,2.2-0.8c0.5-0.5,0.9-1.2,1.1-1.9c0.2-0.8,0.4-1.6,0.4-2.4c0-0.9,0.1-1.6,0.1-2.3c0-0.5,0-1,0-1.5
			c0-0.5-0.1-1.1-0.1-1.6c-0.1-0.5-0.2-1.1-0.3-1.6c-0.1-0.5-0.4-1-0.7-1.4c-0.3-0.4-0.6-0.7-1.1-1c-0.4-0.2-1-0.4-1.6-0.4
			c-0.6,0-1.2,0.1-1.6,0.4c-0.4,0.2-0.8,0.6-1.1,1c-0.3,0.4-0.5,0.8-0.7,1.4c-0.1,0.5-0.3,1.1-0.3,1.6c-0.1,0.5-0.1,1.1-0.1,1.6
			c0,0.5,0,1,0,1.5C773.6,310.8,773.7,311.6,773.7,312.4"/>
		<path class="st17" d="M785.8,308c0-0.7,0.1-1.4,0.3-2.1c0.1-0.7,0.3-1.4,0.6-2c0.3-0.6,0.6-1.2,1.1-1.6c0.5-0.5,1-0.8,1.7-1.1
			c0.7-0.3,1.5-0.4,2.5-0.4c1,0,1.8,0.1,2.5,0.4c0.7,0.3,1.3,0.7,1.7,1.1c0.5,0.5,0.8,1,1.1,1.6c0.3,0.6,0.5,1.3,0.6,2
			c0.1,0.7,0.2,1.4,0.3,2.1c0,0.7,0.1,1.4,0.1,2.1c0,0.7,0,1.4-0.1,2.1c0,0.7-0.1,1.4-0.3,2.1c-0.1,0.7-0.3,1.4-0.6,2
			c-0.3,0.6-0.6,1.2-1.1,1.6c-0.5,0.5-1,0.8-1.7,1.1c-0.7,0.3-1.5,0.4-2.5,0.4c-1,0-1.8-0.1-2.5-0.4c-0.7-0.3-1.3-0.6-1.7-1.1
			c-0.5-0.5-0.8-1-1.1-1.6s-0.5-1.3-0.6-2c-0.1-0.7-0.2-1.4-0.3-2.1c0-0.7-0.1-1.4-0.1-2.1C785.8,309.5,785.8,308.7,785.8,308
			 M788.2,312.4c0,0.9,0.2,1.7,0.4,2.4c0.2,0.8,0.6,1.4,1.1,1.9c0.5,0.5,1.3,0.8,2.2,0.8c0.9,0,1.7-0.3,2.2-0.8
			c0.5-0.5,0.9-1.2,1.1-1.9c0.2-0.8,0.4-1.6,0.4-2.4c0-0.9,0.1-1.6,0.1-2.3c0-0.5,0-1,0-1.5s-0.1-1.1-0.1-1.6
			c-0.1-0.5-0.2-1.1-0.3-1.6s-0.4-1-0.7-1.4c-0.3-0.4-0.6-0.7-1.1-1c-0.4-0.2-1-0.4-1.6-0.4c-0.6,0-1.2,0.1-1.6,0.4
			c-0.4,0.2-0.8,0.6-1.1,1c-0.3,0.4-0.5,0.8-0.7,1.4c-0.1,0.5-0.3,1.1-0.3,1.6c-0.1,0.5-0.1,1.1-0.1,1.6c0,0.5,0,1,0,1.5
			C788.1,310.8,788.1,311.6,788.2,312.4"/>
		<path class="st17" d="M801.8,304c0.1-0.6,0.4-1.2,0.7-1.7c0.3-0.5,0.8-0.9,1.3-1.2c0.5-0.3,1.2-0.4,2-0.4c0.8,0,1.5,0.1,2,0.4
			c0.5,0.3,1,0.7,1.3,1.1c0.3,0.5,0.5,1,0.7,1.7c0.1,0.6,0.2,1.3,0.2,2c0,0.7-0.1,1.3-0.2,2c-0.1,0.6-0.4,1.2-0.7,1.7
			c-0.3,0.5-0.8,0.9-1.3,1.2c-0.5,0.3-1.2,0.4-1.9,0.4c-0.8,0-1.4-0.1-2-0.4c-0.5-0.3-1-0.6-1.3-1.1c-0.3-0.5-0.6-1-0.7-1.6
			c-0.1-0.6-0.2-1.3-0.2-2C801.6,305.3,801.6,304.6,801.8,304 M803.6,307.2c0,0.4,0.1,0.9,0.3,1.2c0.2,0.4,0.4,0.7,0.7,0.9
			c0.3,0.3,0.7,0.4,1.2,0.4c0.5,0,0.9-0.1,1.2-0.4c0.3-0.2,0.5-0.6,0.7-0.9c0.2-0.4,0.3-0.8,0.3-1.2c0.1-0.5,0.1-0.9,0.1-1.3
			c0-0.4,0-0.8-0.1-1.2c0-0.4-0.1-0.9-0.3-1.2c-0.2-0.4-0.4-0.7-0.7-0.9c-0.3-0.3-0.7-0.4-1.2-0.4c-0.5,0-0.9,0.1-1.2,0.4
			c-0.3,0.3-0.5,0.6-0.7,0.9c-0.2,0.4-0.3,0.8-0.3,1.2c-0.1,0.4-0.1,0.9-0.1,1.3C803.5,306.3,803.6,306.8,803.6,307.2 M820.3,300.4
			l-14,19.4h-2.2l14-19.4H820.3z M814.7,312.3c0.1-0.6,0.4-1.2,0.7-1.7c0.3-0.5,0.8-0.9,1.3-1.2c0.5-0.3,1.2-0.4,2-0.4
			c0.8,0,1.5,0.1,2,0.4c0.5,0.3,1,0.7,1.3,1.1c0.3,0.5,0.5,1,0.7,1.7c0.1,0.6,0.2,1.3,0.2,2c0,0.7-0.1,1.3-0.2,2
			c-0.1,0.6-0.4,1.2-0.7,1.7c-0.3,0.5-0.8,0.9-1.3,1.1c-0.5,0.3-1.2,0.4-1.9,0.4c-0.8,0-1.4-0.1-2-0.4c-0.5-0.3-1-0.6-1.3-1.1
			c-0.3-0.5-0.6-1-0.7-1.6c-0.1-0.6-0.2-1.3-0.2-2C814.5,313.6,814.5,313,814.7,312.3 M816.5,315.5c0,0.4,0.1,0.9,0.3,1.2
			c0.2,0.4,0.4,0.7,0.7,0.9c0.3,0.3,0.7,0.4,1.2,0.4c0.5,0,0.9-0.1,1.2-0.4s0.5-0.6,0.7-0.9c0.2-0.4,0.3-0.8,0.3-1.2
			c0.1-0.5,0.1-0.9,0.1-1.3c0-0.4,0-0.8-0.1-1.2c0-0.4-0.1-0.9-0.3-1.2c-0.2-0.4-0.4-0.7-0.7-0.9c-0.3-0.3-0.7-0.4-1.2-0.4
			c-0.5,0-0.9,0.1-1.2,0.4c-0.3,0.3-0.5,0.6-0.7,0.9c-0.2,0.4-0.3,0.8-0.3,1.2c-0.1,0.4-0.1,0.9-0.1,1.3
			C816.4,314.7,816.4,315.1,816.5,315.5"/>
		<rect x="836.9" y="302.6" class="st17" width="47.6" height="17"/>
		<rect x="889.1" y="307.1" class="st17" width="4.5" height="9.1"/>
	</g>
</g>
<g id="Layer_3">
</g>
<g id="Layer_6">
</g>
<g id="Layer_7">
</g>
<g id="Layer_8">
</g>
<g id="Layer_9">
</g>
<g id="Layer_10">
</g>
<g id="Layer_11">
	<g>
		<defs>
			<rect id="SVGID_1_" x="-945.6" y="457.1" width="755.4" height="502.9"/>
		</defs>
		<clipPath id="SVGID_2_">
			<use xlink:href="#SVGID_1_"  style="overflow:visible;"/>
		</clipPath>
		<g class="st10">
			<defs>
				<rect id="SVGID_3_" x="-961.8" y="349.5" width="1983.2" height="610.5"/>
			</defs>
			<clipPath id="SVGID_4_">
				<use xlink:href="#SVGID_3_"  style="overflow:visible;"/>
			</clipPath>
			<g transform="matrix(1 0 0 1 -1.929022e-005 1.055339e-005)" style="clip-path:url(#SVGID_4_);">
				
					<image style="overflow:visible;" width="750" height="474" xlink:href="C8720AD9.png"  transform="matrix(2.6443 0 0 1.288 -961.791 349.52)">
				</image>
			</g>
		</g>
	</g>
	<g>
		<defs>
			<rect id="SVGID_5_" x="221.1" y="873.8" width="625.8" height="416"/>
		</defs>
		<clipPath id="SVGID_6_">
			<use xlink:href="#SVGID_5_"  style="overflow:visible;"/>
		</clipPath>
		<g class="st11">
			<defs>
				<rect id="SVGID_7_" x="221.1" y="873.8" width="625.8" height="416"/>
			</defs>
			<clipPath id="SVGID_8_">
				<use xlink:href="#SVGID_7_"  style="overflow:visible;"/>
			</clipPath>
			<g transform="matrix(1 0 0 1 5.420388e-006 2.020440e-005)" style="clip-path:url(#SVGID_8_);">
				
					<image style="overflow:visible;" width="331" height="220" xlink:href="C8720ADF.jpg"  transform="matrix(1.8907 0 0 1.8907 221.0957 873.7729)">
				</image>
			</g>
		</g>
	</g>
	<g>
		<rect x="396" y="814" class="st18" width="275.9" height="39.9"/>
		<text transform="matrix(1 0 0 1 444.4268 839.7422)" class="st17 st22 st24">EMERGENCY</text>
	</g>
	<line class="st30" x1="288" y1="776.8" x2="792" y2="776.8"/>
	<path class="st17" d="M575.6,1091.2L575.6,1091.2l-48.1-28.1c0,0-0.1,0-0.1,0l-0.2-0.1l0,0c-0.6-0.3-1.3-0.6-2-0.6
		c-2.2,0-4.1,1.8-4.1,4v0v56.5c0,2.2,1.8,4,4.1,4c0.7,0,1.4-0.2,2-0.6l0,0l0.2-0.1c0,0,0.1,0,0.1,0l48.1-28.1l0,0c1.2-0.7,2-2,2-3.5
		C577.6,1093.2,576.8,1091.9,575.6,1091.2 M525.2,1122.9v-56.4l48.4,28.2L525.2,1122.9z M543.4,1030.2c-35.6,0-64.5,28.9-64.5,64.5
		c0,35.6,28.9,64.5,64.5,64.5s64.5-28.9,64.5-64.5C607.9,1059.1,579,1030.2,543.4,1030.2 M543.4,1151.1c-31.2,0-56.5-25.3-56.5-56.5
		c0-31.2,25.3-56.5,56.5-56.5s56.5,25.3,56.5,56.5C599.8,1125.9,574.5,1151.1,543.4,1151.1"/>
	<g id="video_play">
		<text transform="matrix(1 0 0 1 510.0527 1472.0947)" class="st17 st22 st24">Talk</text>
		<text transform="matrix(1 0 0 1 731.5391 1472.0947)" class="st17 st22 st24">Alarm</text>
		<path class="st2" d="M306,1420.1c5.7,0,10.3-1.3,14.2-3.7c2.5-1.5,3.4-3.5,2.3-6.3c-1.4-3.3-2.9-6.6-4.3-9.9
			c-4.5-10.7-4.5-10.7-15.3-6.4c-4.5,1.8-7.3,0.9-9.2-3.4c-4.3-9.6-8.3-19.3-12.4-29c-1.5-3.7-0.3-6.5,3.1-8.4
			c2-1.2,4.2-2.1,6.3-3.2c3.1-1.6,4.1-4,2.8-7.2c-2.3-5.3-4.5-10.7-6.9-16c-1.1-2.4-3-3.6-5.7-2.6c-6.2,2.3-11.2,5.8-14.3,11.8
			c-3.3,6.5-4.2,13.4-3.2,20.6c2.5,18.5,10.3,34.9,20.8,50C289.6,1414.5,297.1,1419.9,306,1420.1z"/>
		<path class="st17" d="M550.1,1338h-13.8v-8.3c0-2-1.6-3.7-3.7-3.7s-3.7,1.6-3.7,3.7v8.3c-6.2,0.5-11,5.6-11,11.9v56.1
			c0,6.6,5.4,12,12,12h20.2c6.6,0,12-5.4,12-12v-56.1C562.1,1343.3,556.7,1338,550.1,1338z M555.6,1368.3c-0.3,1-0.8,1.8-1.8,1.8
			h-27.6c-1,0-1.5-0.9-1.8-1.8c-0.9-2.8-0.9-2.8-0.9-20.2c0-1,0.8-1.8,1.8-1.8h29.4c1,0,1.8,0.8,1.8,1.8
			C556.6,1365.5,556.6,1365.5,555.6,1368.3z"/>
		<g>
			<text transform="matrix(1 0 0 1 268.292 1468.9141)" class="st17 st22 st24">112</text>
		</g>
		<g>
			<path class="st17" d="M755,1341.9c1.1-0.5,1.5-1.8,1-2.9c-0.5-1.1-1.8-1.5-2.9-1c-7.6,3.6-13.7,9.7-17.3,17.4
				c-0.5,1.1,0,2.4,1.1,2.9c0.3,0.1,0.6,0.2,0.9,0.2c0.8,0,1.6-0.5,2-1.3C743,1350.5,748.3,1345,755,1341.9z"/>
			<path class="st17" d="M749.9,1334.2c1.1-0.5,1.5-1.8,1-2.9c-0.5-1.1-1.8-1.5-2.9-1c-8.8,4.2-15.9,11.4-20,20.3
				c-0.5,1.1,0,2.4,1.1,2.9c0.3,0.1,0.6,0.2,0.9,0.2c0.8,0,1.6-0.5,2-1.3C735.6,1344.5,742,1338,749.9,1334.2z"/>
			<path class="st17" d="M769.9,1375.4c2.6,0,4.7-2.1,4.7-4.7c0-2.6-2.1-4.7-4.7-4.7c-2.6,0-4.7,2.1-4.7,4.7
				C765.1,1373.3,767.3,1375.4,769.9,1375.4z"/>
			<path class="st17" d="M742.2,1370.7c0,15.3,12.4,27.7,27.7,27.7c15.3,0,27.7-12.4,27.7-27.7c0-15.3-12.4-27.7-27.7-27.7
				C754.6,1343.1,742.2,1355.4,742.2,1370.7z M769.9,1363.8c3.8,0,6.9,3.1,6.9,6.9c0,3.8-3.1,6.9-6.9,6.9c-3.8,0-6.9-3.1-6.9-6.9
				C763,1366.9,766.1,1363.8,769.9,1363.8z"/>
			<path class="st17" d="M810.8,1376.3c0-2.3-1.9-4.2-4.2-4.2c-2.3,0-4.2,1.9-4.2,4.2c0,2.1,1.5,3.8,3.5,4.1c0.4,3-0.1,6.1-1.4,8.9
				c-1.5,3.2-3.9,5.7-6.9,7.4v-6.3c0-1.1-0.8-1.9-1.8-2.1c-5.6,8.3-15.2,13.8-26,13.8s-20.3-5.5-26-13.8c-1,0.2-1.8,1-1.8,2.1v14.6
				c0,1.2,1,2.2,2.2,2.2h51.3c1.2,0,2.2-1,2.2-2.2v-4.6c4.3-1.9,7.8-5.3,9.8-9.6c1.6-3.5,2.2-7.3,1.6-11.1
				C810.1,1378.9,810.8,1377.7,810.8,1376.3z"/>
		</g>
	</g>
</g>
</svg>
